<svg xmlns="http://www.w3.org/2000/svg" width="100%" height="100%" viewBox="0 0 1698 148.248">
  <g id="Group_2013" data-name="Group 2013" opacity="0.05">
    <path id="Path_2725" data-name="Path 2725" d="M1061.977,65.963h-4.544l.054.021A5.984,5.984,0,0,0,1061.977,65.963Z" transform="translate(-292.858 -65.963)" fill="none"/>
    <path id="Path_2726" data-name="Path 2726" d="M1121.794,65.976l-.006-.013h-13.641a24.9,24.9,0,0,0,4.533,5.412C1117.466,75.494,1124.359,72.1,1121.794,65.976Z" transform="translate(-292.858 -65.963)" fill="none"/>
    <path id="Path_2727" data-name="Path 2727" d="M1802.206,225.713c1.445-8.919,10.02-11.321,11.2-16,1.487-5.909-6.381-11.87-12.019-5.545-3.008,3.374-5.717,6.979-8.98,10.145-4.53,4.4-2.612,8.433-1.2,16.485h11.251C1802.108,225.022,1802.1,226.392,1802.206,225.713Z" transform="translate(-292.858 -82.552)" fill="none"/>
    <path id="Path_2728" data-name="Path 2728" d="M1815.257,227.336a19.539,19.539,0,0,0-1.587,6.024h25.9c-1.9-2.065-4.225-4.386-7.121-7.037C1825.2,219.69,1818.045,221.4,1815.257,227.336Z" transform="translate(-292.858 -85.112)" fill="none"/>
    <path id="Path_2729" data-name="Path 2729" d="M1917.991,196.015c-2.266-3.153-9.668-3.658-10.34,2.464-.352,3.2.023,3.647,13.114,26.056.981,1.678,2.1,3.487,3.349,5.3h15.815C1930.272,221.634,1924.825,205.527,1917.991,196.015Z" transform="translate(-292.858 -81.591)" fill="none"/>
    <path id="Path_2730" data-name="Path 2730" d="M1981.732,71.823a10.966,10.966,0,0,0,9.126,7.742v-13.6h-5.428c-.116.039-.236.067-.35.109C1983.1,66.79,1981.172,70.256,1981.732,71.823Z" transform="translate(-292.858 -65.963)" fill="none"/>
    <path id="Path_2731" data-name="Path 2731" d="M964.456,75.3a27.367,27.367,0,0,0,7.419,10.569c4.449,4.1,8.344,8.688,12.932,12.658,10.962,9.486,23.245,15.09,32.583,21.85,7.488,5.42,13.207,2.968,24.779,10.82,6.76,4.586,8.279,4.7,35.866,12.3,13.242,3.644,17.65,1.1,21.735,1.81,11.178,1.945,5.627,13.5,21.933,18.678,23.491,7.455,19.207,21.2,41.88,24.877,3.549.576,6.927,1.89,10.687,1.541,6.947-.645,8.344-5.381,2.919-9.537-7.131-5.464-16.431.395-26.674-11.5-8.809-10.23-21.48-13.789-26.936-17.724-11.867-8.558-6.744-14.964-10.126-27.047-1.528-5.456,2.909-9.027,9.215-7.78,7.3,1.443,10.19-1.439,16.029-3.046,5.231-1.44,9.565,1.952,8.144,6.58-.4,1.3-2.151,2.463-3.576,3.3-5.657,3.329-14.217-1.064-16.789,6.565-3.979,11.806,14.678,19.415,26.389,26.113,4.189,2.4,4.918,8.283,17.613,11.119,22.441,5.014,19.238,20.453,33.69,26.443,10.452,4.332,22.958-6.846,8.906-13.219-2.448-1.111-5.255-1.7-7.489-3.056-5.082-3.076-13.923-12.321-20.731-17.243-7.26-5.25-12.074-1.539-21.77-10.318-8.006-7.248-11.095-6.716-16.867-9.272-8.491-3.759-3.052-11.352,4.315-10.127,12.817,2.13,15.291,12.929,31.67,16.348,9.06,1.891,13.267,7.468,22.7,15.4,11.207,9.421,25.928,9.847,25.314,19.9-.121,1.988.059,3.989-.041,5.978-.156,3.094,1.587,5.149,4.468,6.589a25.8,25.8,0,0,0,4.876,2.123c7.863,2.056,14.379,10.928,19.747,4.9,1.551-1.744,1.29-5.564-.874-7.5a42.137,42.137,0,0,0-7.86-4.813c-12.8-6.436-2.976-16.675-20.377-27.078-8.631-5.16-14.617-6.126-22.091-12.512-7.786-6.652-13.236-11.946-21.616-14.227-10.061-2.739-22.512-9.551-27.54-19.319-5.856-11.377-19.575-29.761-36.009-32.987-6.838-1.341-13.637,1.166-22.37-9.854-2.493-3.147-4.51-5.591-6.216-7.626H1077.51c3.81,4.857,8.867,7.807,11.209,11.454,10.723,16.7,29.75,16.881,37.2,18.805,12.363,3.2,8.366,10.667,2.383,10.913-13.894.572-22.009-4.2-37.564-11.995-13.7-6.866-8.119-17.893-27.027-19.377-11.295-.888-12.921,0-19.1-6.409-1.13-1.173-2.2-2.364-3.273-3.392h-10.76a3.939,3.939,0,0,0-.731,3.158,11.869,11.869,0,0,0,4.161,7.048c18.611,16.41,30.85,6.737,36.18,16.473,9.527,17.4,31.273,9.943,31.857,27.393a60.23,60.23,0,0,0,.827,6.965c2.3,15.112-27.378,6.513-43.34.5a36.573,36.573,0,0,1-8.212-4.337c-6.833-4.863-14.94-7.513-22.744-10.723-9.83-4.041-.1.491-26.454-15.243a50.232,50.232,0,0,1-12.582-10.209c-4.544-5.267-6.6-4.5-14.043-14.022-1.3-1.668-.577-3.4.505-4.866,2.473-3.358,8.522-1.481,10.337.479,3.272,3.533,7,6.769,9.957,10.488a34.8,34.8,0,0,0,12.752,9.986c9.688,4.451,21.262,13.036,31.452,16.551,17.058,5.882,15.929,11.3,40.816,19.861,4.844,1.668,9.272-1.159,9.845-3.293.48-1.79-1.67-5.31-4.121-6.314-15.883-6.505-11.131-1.444-26.551-14.719-7.566-6.513-15.624-2.931-28.951-13.292-15.176-11.8-21.2-4.873-31.7-21.885H957.674A22.12,22.12,0,0,1,964.456,75.3Z" transform="translate(-292.858 -65.963)" fill="none"/>
    <path id="Path_2732" data-name="Path 2732" d="M1023.154,66.423a5.176,5.176,0,0,0,.255-.46h-10.868a15.116,15.116,0,0,0,1.784,1.748A5.807,5.807,0,0,0,1023.154,66.423Z" transform="translate(-292.858 -65.963)" fill="none"/>
    <path id="Path_2733" data-name="Path 2733" d="M358.6,81.866C375,83.655,375.177,94.614,385.4,98.727a36.8,36.8,0,0,1,4.928,2.739c3.4,2.022,3.26,4.914,2.433,7.95-1.608,5.905-5.042,3.068-1.758,20.091,4.154,21.531,24.492,23.772,26.872,40.438,2.131,14.922,16.83,20.471,33.744,17.113,26.787-5.319,23.984,9.336,14.2,9.006-11.222-.378-16.873,3.912-27.807,1.582-14.825-3.161-27.471-7.49-30.32-21.1-1.084-5.18-4.386-8.052-10.921-6.182-13.445,3.847-23.81-4.064-33.552-12.387-9.24-7.895-18.921-10.284-23.831-14.882-3.712-3.476-2.563-7-3.811-11.763-1.321-5.041-6.8-6.168-9.751-3.2-5.173,5.193-5.61,16.844,4.943,23.446,13.423,8.4,11.6,4.5,22.432,15.3,7.239,7.218,23.536,13.029,33.45,14.612a16.456,16.456,0,0,1,11.134,6.467c5.627,7.587,21.086,17.985,33.489,18.2,6.157.107,11.3,2.289,13.99,7.81.041.084.082.162.123.245h12.4c-2.987-2.816-2.043-5.624,2.548-8.058,1.177-.625,10.877-1.91,18.067-2.462,7.185-.507,13.22,4.318,16.723,10.52h14.378c1.869-1.71,5.081-2.073,7.919,0h13.634a26.131,26.131,0,0,0-2.713-3.807c-3.194-3.682-7.454-7.908-12.711-7.608-3.1.177-6.231-.087-9.333.07-5,.254-8.882-1.587-12.4-4.5-10.959-9.088-6.718-13.883-14.529-18.664-3.428-2.1-9.46-1.567-15.422-2.318-6.142-.774-5.357-7.986-.388-8.731,34.107-5.148,28.976,14.562,39.054,22.782,2.822,2.3,7.914,2.9,10.053.206a5.775,5.775,0,0,0,.749-6.689c-3.36-5.778-5.964-11.9-10.67-17.079-8.345-9.176-16.175-6.946-22.159-15.684-1.147-1.675-.872-.541-5.637-13.8-4.244-11.808,8.2-18.649,9.271-34.309.385-5.632-2.852-7.292-21.984-18.073-2.612-1.472-7.149-1.5-12.056-4.754-2.355-1.561-3.224-4.8-2.191-6.6.988-1.721,4.743-3.047,7.506-2.233,8.029,2.367,11.753-1.932,14.885-6.462H440.313a2.55,2.55,0,0,1-1.378,1.188,6.206,6.206,0,0,1-6.593-1.188H419.461a26.739,26.739,0,0,0,9.207,9.36c12.711,7.525,8.511,15.739,28.274,21.551,7.229,2.126,12.7,4.411,14.1,12.428,1.779,10.214-18.472,15.34-3.164,42.225,4.2,7.369-6.469,14.226-13.162,5.233-2.365-3.178-2-7.02-2.732-18.521-.429-6.741-3.406-11.243-14.541-12.311-11.79-1.131-12.133-6.553-19.7-16.178-.755-.961-2.245-1.444-3.2-2.316-3.508-3.21-6.847-6.567-10.415-9.723-4.009-3.547-14.648-11.447-17.089-13.743-10.131-9.536-23.59-11.139-29.668-13.646-3.072-1.267-4.862-2.655-5.772-4.36H326.18a49.742,49.742,0,0,0,5.774,2.361C345.5,72.809,342.87,80.152,358.6,81.866Zm45.266,33.241c4.774-1.678,8.391,4.1,9.661,8.532,1.354,4.728,2.947,10.742,10.849,12.075,7.051,1.189,12.227-.322,14.57,4.559,4.689,9.771-2.169,16.355,6.47,26.116,2.882,3.257,2.922,3.231,2.93,5.86.027,7.788-11.244,7.637-15.235,1.127-4.09-6.674-3.827-12.839-4.792-21.061-1.123-9.57-14.292-2.1-22.3-16.824a85.657,85.657,0,0,1-5.622-13.785C399.605,119.384,401.435,115.96,403.861,115.107Z" transform="translate(-292.858 -65.963)" fill="none"/>
    <path id="Path_2734" data-name="Path 2734" d="M1475.23,78.149c2.267,3.083,5.215,5.774,7.811,8.673,7.71,8.611,7.17,16.409,13.472,20.508,3.174,2.066,6.9,1.525,13.9,1.539,10.285.019,9.074,4.011,10.942,26.626.289,3.5-5.171,14.929,11.524,17.454,29.523,4.464,5.123,36.9,35.827,44.668,3.175.8,8.985-.934,14.207,2.381,7.723,4.9,1.66,8.883-1.86,8.516-7.979-.832-10.374-.865-11.621,3.22a4.016,4.016,0,0,0-.01,2.478h35.289a21.239,21.239,0,0,1-6.576-10.442c-5.527-20.914-32.441-11.108-35.844-25.129-.694-2.86-1.57-5.784-1.517-8.668.175-9.566-5.493-22.361-15.609-25.407-16.491-4.963-10.143-6.619-14.172-21.693a4.391,4.391,0,0,1-.013-1.118c-.164-8.751,14.158-10,13.249,4.376-.3,4.743,2.8,7.842,7.044,9.15,17.5,5.395,9.078,20.112,26.71,23.7,14.044,2.862,10.646,11.907,3.784,10.269-3.493-.835-7.744-1.588-9.857.691-4.444,4.791,3.581,9.124,10.924,9.9,10.3,1.084,20.927,7.675,26.122,20.272,2.908,7.049,8.143,10.85,13.326,14.1h19.561a21.135,21.135,0,0,0-3.09-2.421c-4.784-3.122-14.571-8.225-18.511-14.728-3.467-5.724,4.548-10.872,10-6.91,6.478,4.71,5.05,10.169,12.805,13.336,9.287,3.793,16.831-3.093,25.324,6.034,1.432,1.54,2.857,3.088,4.185,4.689h12.922a56.261,56.261,0,0,0-5.336-7.34c-2.829-3.355-6.318-6.284-9.077-9.677-2-2.457-3.13-5.447-4.932-8.046-2.673-3.857-6.563-3.9-9.558-.3a36.737,36.737,0,0,1-3.1,3.471c-3.665,3.422-10.344,1.041-8.762-4.428a23.26,23.26,0,0,1,1.671-4.121c2.393-4.671.165-7.9-5.575-7.81-4.227.067-14.634,3.237-18.358,4.568-11.618,4.152-21.342-1.245-22.574-7.768-1.294-6.853,1.388-10.978-3.908-15.514-9.274-7.945-18.208-7.733-22.74-16.876-2.964-5.983,4.054-10.524,9.967-5.888,3.656,2.867,8.442,8.551,22.761,16.924,7.994,4.675,16.589,2.615,22.52,12.068,4.07,6.486,12.319,5.429,12.87.125.82-7.892-9.87-15.188-19.2-17.569-10.783-2.751-16.212-9.034-26.208-15.484-5.73-3.7-10.325-7.982-12.717-14.128-2.708-6.962-6.866-9.71-19.921-26.253-3.149-3.991-8.783-5.751-14.195-5.026-9.809,1.312-19.3-4.264-24.213-11.267a88.48,88.48,0,0,1-4.956-7.911h-45.762A11.414,11.414,0,0,0,1475.23,78.149Zm19.948-9.643c20.869,2.225,12.361,15,30.8,21.766,5.595,2.053,8.315,5.14,19.964,5.94,8.289.569,9.868,3.188,16.551,11.03,2.341,2.746,7.435,8.808,8.873,11.978,3.852,8.486-8.724,12.184-13,5.526-2.352-3.663-3.669-9.58-4.288-11.042-5.206-12.3-17.946-3.871-30.4-13.07-6.4-4.728-10.593-2.858-16.307-3.219-3.713-.234-5.983-2.487-6.144-5.761-.121-2.441-.5-4.873-.708-7.312-.45-5.248-13.083-4.56-13.715-9.977C1486.327,70.274,1488.486,68.482,1495.178,68.506Z" transform="translate(-292.858 -65.963)" fill="none"/>
    <path id="Path_2735" data-name="Path 2735" d="M1264.9,76.373c4.435-2.263,3.294-6.542.739-10.41h-13.575a36.142,36.142,0,0,0,7.542,9.2C1260.967,76.458,1262.954,77.368,1264.9,76.373Z" transform="translate(-292.858 -65.963)" fill="none"/>
    <path id="Path_2736" data-name="Path 2736" d="M1962.937,67.007a7.832,7.832,0,0,0,8.536-1.044h-9.913A5.075,5.075,0,0,0,1962.937,67.007Z" transform="translate(-292.858 -65.963)" fill="none"/>
    <path id="Path_2737" data-name="Path 2737" d="M1614.5,177.687c-3.782,0-4.812.881-4.83,4.15-.02,3.316,1.875,5.014,5.6,5.019,3.781.005,4.812-.88,4.83-4.151C1620.117,179.393,1618.218,177.691,1614.5,177.687Z" transform="translate(-292.858 -79.671)" fill="none"/>
    <path id="Path_2738" data-name="Path 2738" d="M293.113,208.927c11.066,2.412,13.92,3.993,21.847-.753,8.96-5.363,16.2-.434,24.514,3.233,2.268,1,4.381,1.93,6.37,2.8h26.8a170.314,170.314,0,0,0-29.792-13.092c-6.38-1.977-16.234-10.166-28.852-3.759-8.865,4.5-19.743,3.113-18.141-4.358.294-1.371.651-2.995,2.667-3.459,2.757-.634,5.31-2.105,8.433-.969,2.781,1.012,5.679.063,8.124-.9,3.926-1.552,3.814-6.919-.036-8.762-3.307-1.583-6.683-2.757-10.7-1.566-3.644,1.081-7.486,1.641-11.241,2.43v-9.717c5.446-.279,8.227-6.094,2.916-9.864-3.666-2.6-2.916,2.824-2.916-14.8,6.489.678,9.776,6.888,12.67,12.253,8.789,16.292,17.459,9.075,24.4,22.774,4.616,9.1,14.262,10.469,29.267,14.9,9.3,2.748,17.57,9.248,23.208,12.85,5,3.195,9.443,4.65,12.927,6.045h18.172c-.813-2.088-2.31-3.783-5.419-5.456-40.511-21.8-8.331-10.428-52.29-26.138-10.515-3.758-9.317-2.034-15.225-10.391-9.3-13.158-18.881-5.914-30.4-27.89-5.712-10.895,12.827-22.081,11.446-31.751-1.9-13.338-7.9-20.023-18.749-25.227-3.085-1.48-5.973-3.879-10.007-3.267V73.625c2.49.65,7.385.608,23.739,10.362,10.1,6.025,11.889,9.689,13.472,19.651,2.477,15.6,10.073,11.356,16.96,28.593,5.357,13.408,16.709,7.941,25.006,17.621,4.821,5.625,8.447,10.61,16.292,12.64,4.884,1.263,11.168-3.393,5.76-8.47-2.3-2.157-5.741-4.42-9.316-7.513-6.467-5.594-2.762-7.193-5.91-29.981-.921-6.672-4.728-11.175-12.966-19.239-4.1-4.014-8.711-8.955-13.769-5.948-4.866,2.893-.482,9.862,3.712,13.534,7.552,6.612,14.572,18.035,14.071,24.814-.471,6.366-9.773,4.908-12.183-2.075-5.065-14.682-18.587-19.189-18.085-34.467.23-6.986-4.222-11.3-10.747-14.621-11.535-5.876-18.72-10.051-24.2-12.56H292.858V214.211h.255Zm0-103.158V94.557c13.545,3.58,20.7,15.77,13.084,26.786-2.657,3.842-4.342,8.274-8.5,11.2a37.478,37.478,0,0,1-4.586,2.378c0-18.732-.778-11.448,3.457-16.058C300.319,114.784,298.522,108.179,293.113,105.769Z" transform="translate(-292.858 -65.963)" fill="none"/>
    <path id="Path_2739" data-name="Path 2739" d="M1381.321,94.305a67.913,67.913,0,0,0,18.516,11.95c6.46,2.845,12.5,6.416,18.781,9.588,7.054,3.564,13.078,13.75,14.686,22.664,1.974,10.944,13.376,21.089,23.547,27.685,5.208,3.378,8.87,7.844,8.6,14.115-.075,1.741.894,3.547,1.55,5.275,3.069,8.092,10.559,4.614,21.549,8.983,9.247,3.675,12.661.7,12.116-3.683-.036-.29-3.608-16.293-3.672-16.555-3.215-13.382-14.6-10.32-23.875-11.957-6.5-1.148-12.047-6.14-20.469-13.118-7.876-6.525-5.769-12.347,1.658-15.142,4.839-1.82,9.77-3.962,14.879-4.6,21.614-2.706,26.016,3.684,33.266,6.91,4.056,1.8,8.1.141,8.893-3.77,1.164-5.718-4.236-13.7-11.743-12.793-1.25.151-2.552-.063-3.815.036-7.938.626-9.6-6.238-11.611-9.866-8.229-14.846-9.3-10.24-16.9-25.287-3.422-6.778-7.62-12.658-14.541-16.776-1.1-.655-2.11-1.322-3.052-2H1431.1c7.486,7.757,18.8,12.748,25.593,22.912,2.768,4.142,4.118,7.042.694,10.017-1.389,1.208-2.864,1.291-4.853.9-3.966-.774-5.7-3.614-7.559-6.059-7.548-9.933-18.926-12.953-28.75-25.155a15.147,15.147,0,0,1-1.715-2.617h-37.181c6.772,4.866,12.592,8.686,22.059,10.076,10.753,1.581,7.621,6.281,30.876,20.418,13.418,8.158,27.485,27.5,17.292,30.53-2.231.663-4.474.851-6.113-1.069a16.516,16.516,0,0,1-2.927-3.968,33.024,33.024,0,0,0-14.79-16.437c-8.747-5.011-16.939-10.768-25.49-16.053-3.293-2.035-7-3.542-10.366-5.5-6.734-3.911-13.312-8.031-20.046-11.943q-5.262-3.057-10.567-6.058h-22.784c5.336,3.527,10.314,6.749,11.556,7.491C1358.469,80.89,1367.6,81.858,1381.321,94.305Zm99.7,78.243c2.866.132,7.076,3.965,7.114,6.475.093,6.311-12.4,5.953-12.349-1.518C1475.8,175.3,1478.819,172.447,1481.022,172.549Zm-13.613-65.816c9.732,4.32,8.164,13.893.609,13.887C1454.663,119.906,1456.905,102.072,1467.409,106.733Z" transform="translate(-292.858 -65.963)" fill="none"/>
    <path id="Path_2740" data-name="Path 2740" d="M1217.82,90.161c5.172,1.885,11.212-.2,8.667-6.887-1.433-3.762-6.547-3.548-13.509-17.312H1198.95C1208.529,83.17,1211.121,87.717,1217.82,90.161Z" transform="translate(-292.858 -65.963)" fill="none"/>
    <path id="Path_2741" data-name="Path 2741" d="M1141.821,81.166c19.264,12.741,21.634,21.223,26,28.412,12.675,20.864,24.917,9.762,39.782,26.227,14.567,16.136,22.74,7.716,30.994,18.714,1.912,2.547,4.865,4.494,7.386,6.677,12.019,10.406,1.929,15.156,18.139,25.308,6.332,3.967,9.86,10.931,6.02,18.5-2.079,4.095-3.11,6.925-3.405,9.211h14.4a5.638,5.638,0,0,1,5.884,0h15.505c-1.474-3.168-3.74-5.269-8.265-7.562-5.74-2.91-9.425-3.268-11.266-6.417-4.031-6.895,6.251-10.206,13.037-5.362,10.743,7.67,12.718,12.838,27.271,15.661a47.685,47.685,0,0,1,11.323,3.68h21.5c.035-6.371,5.807-9.8,11.126-14.722,3.827-3.541,3.324-7.839-1.78-9.525-7.148-2.361-13.551-6.345-21.175-7.577-5.353-.867-19.843-1.008-25.164-7.233-1.952-2.284-.9-7.143,7.846-5.352,5.853,1.2,11.072,3.2,13.769,2.475,11.914-3.2,18.847,5.746,40.584,14.05,6.723,2.568,8.3,7.862,2.743,12.247-11.028,8.7-10.278,5.777-14.876,15.636h12.788c4.31-4.543,9.7-6.93,13.837-10.009,8.42-6.268,1.742-12.863,4.438-19.733,2.8-7.144,11.487-4.6,12.467,1.442,1.245,7.67-7.392,15.122,2.47,19.685,8.749,4.048,14.459,6.773,18.61,8.615h33.6c.474-1.826,2.062-3.38,4.788-3.666,4.123-.432,7.045.977,14.346,3.666h45.762a17.132,17.132,0,0,0-5.474-2.324c-33.084-8.121-14.969-1.067-47.569-10.5-19.629-5.677-14.807,7.716-31.519,6.724-4-.238-16.114-7.1-19.471-9.014-8.434-4.8-2.281-10.619,1.942-15.4,3.145-3.561,11.758-3.649,12.117,1.776a13.784,13.784,0,0,1-.594,4.356c-.74,2.795,1.343,7.035,4.4,8.008,4.894,1.56,10.741-1.8,10.936-6.607.52-12.812-11.642-19.03-14.7-21.971-2.565-2.463-10.763-11.877-16.471-18.122-6.07-6.64-8.2-.855-25.1-10.141-1.278-.7-2.809-1.052-4.061-1.781-2.657-1.548-4.624.1-6.495,1.159-3.848,2.182,1.4,9.158,8.526,11.627,8.006,2.773,23.3,9.688,28.53,15.71,4.587,5.279-1.331,9.382-5.093,8.516-8.475-1.95-9.862-7.774-31.177-18.242-10.259-5.039-11.959-8.5-12.856-14.7-1.386-9.566-6.7-10.1-15.229-15.19-8.061-4.807-.343-15.756,8.576-10.234,4.693,2.906,8.59,10.339,19.412,11.12,15.544,1.122,16.152,6.414,22.389,8.133,2.1.58,4.314.884,6.137-.781,1.09-1,1.776-4.186.852-5.6-8.348-12.787-34.647-10.727-48.8-29.273-4.913-6.439-11.153-11.05-23.593-15.016-9.038-2.882-9.547-5.731-25.894-15.978-2.2-1.376-4.387-2.961-6.5-4.505h-17.153a7.11,7.11,0,0,0,2.567,5.221c7.684,6.715,15.151,7.309,27.378,17.434,10.722,8.88,16.713,6.726,28.814,13.591a5.2,5.2,0,0,1,1.823,6.326c-1.03,1.7-5.049,2.888-7.558,2.167-.294-.085-16.388-6.211-19.089-7.408-13.795-6.114-13.315-10.735-29.068-17.149-10.335-4.208-13.427-8.9-14-14.788a32.833,32.833,0,0,0-.965-5.395H1276.1a38.606,38.606,0,0,1,2.577,11.845c.509,9.139,8.821,14.661,18.429,18.251,18.017,6.733,15.331,13.106,39.869,19.549a48.705,48.705,0,0,1,7.395,2.416c2.559,1.137,4.184,3.877,3.55,5.373-1.911,4.509-6.9,3.443-11.955,1.786-12.581-4.125-20.248-5.84-30.288-12.785-15.176-10.5-23.571-6.657-32.583-19.048-6.616-9.1-13.983-6.5-22.958-13.5-3.507-2.734-6.507-7.447-10.275-13.882H1226.3c1.159,1.856,2.541,3.876,4.218,6.1,7.453,9.884,7.477,15.085,19.038,19.835,17.515,7.2,14.964,16.671,26.205,19.421,29.119,7.121,22.9,16.485,63.611,23.847,9.553,1.726,20.541-1.813,25.681,10.822,3.76,9.242,3.911,11.7,16.091,18.111,4.13,2.175,7.079,2.562,11,5.29,6.934,4.822.087,10.871-5.864,8.2-7.872-3.534-13.405-6.953-23.012-11.953a13.155,13.155,0,0,1-7.17-9.055c-4.6-20.037-22.5-6-55.945-24.837-6.3-3.547-19.189-9.956-27.737-10.284-12.946-.5-14.572-10.449-20.022-15.8-4.6-4.515-9.748-8.619-17.411-8.18a17.608,17.608,0,0,0-5.635,1.17c-13.142,5.476-27.01-2.263-32.12-11.715-5.92-10.951-9.678-17.109-12.867-20.972h-23.684a16.009,16.009,0,0,0,3.847,2.729c26.34,13.668,15.51,31.4,35.812,37.238,12.177,3.5,15.615,6.137,19.46,11.262,9.082,12.1,10.907,13.266,10,15.992-1.084,3.252-4.486,4.23-7.6,2.075a36.339,36.339,0,0,1-5.4-5.149c-9.7-10.205-8.778-11.725-20.524-14.717-27.63-7.037-12.459-22.857-42.7-40.165-5.214-2.985-7.01-6.038-7.954-9.266h-13.187C1131.965,72.829,1136.059,77.354,1141.821,81.166Zm133.627,49.876c8.351,3.57,8.584,4.2,16.862,8.089,2.919,1.37-.8-.833,20.439,9.037,11.179,5.2,17.969,3.458,25.022,4.905,1.525.313,2.867,1.413,4.224,2.245,1.825,1.119,2.654,2.792,1.689,4.529-2.311,4.156-6.208,1.982-6.37,2.807-14.038-2.143-15.417-2.416-16.853-2.391a18.667,18.667,0,0,1-12.018-3.528c-13.369-10.325-33.618-13.048-39.264-18.071C1263.133,133.285,1270.488,128.921,1275.448,131.041Zm-40.388-22.92c6.423-.5,12.368,9.556,15.425,13.865,6.748,9.511.007,20.347,15.4,27.141,8.106,3.577,24.287,5.151,33.147,13.866,7.254,7.135,3.308,14.916,20.505,23.719a57.679,57.679,0,0,0,20.376,6c2.768.3,5.78.417,8.233,2.293,2.913,2.228,3.956,4.322,2.666,6.881-4.448,8.82-11.361,1.813-29.635-3.43-8.026-2.3-13.7-9.541-20.158-13.61-9.6-6.044-15.212.5-23.684-2.125-4.242-1.315-7.831-3.118-10.233-6.466-1.064-1.483-1.76-3.2-.306-4.826,4.965-5.554,20.063,8.625,23.633-.791.558-1.472-.813-3.857-2.685-5.327-7.211-5.662-20.195-1.517-31.7-9.925-7.167-5.24-14.481-12.957-14.482-21.155,0-11.324-7.661-13.726-11.171-19.912C1228.573,111.1,1230.878,108.127,1235.06,108.122Z" transform="translate(-292.858 -65.963)" fill="none"/>
    <path id="Path_2742" data-name="Path 2742" d="M1759.388,75.266c6.31,2.566,12.717,5.028,18.688,8.125,7.576,3.93,11.808,14.153,22.484,15.979,8.941,1.53,20.53,9.823,27.746,14.592,16,10.578,14.9,18.76,19.865,30.481,4.21,9.928,13.722,5.063,29.528,9,7.2,1.795,15.449-1.649,12.821-9.512-5.6-16.759-10.147-18.131-11.36-23.208-1.882-7.871-8.4-12.49-16.207-18.241-4.233-3.118-9.687-2.418-11.654.2-1.174,1.562-.7,4.7,1.263,6.494a22.145,22.145,0,0,0,4.576,3.215c10.8,5.688,7.667,11.941,15.57,20.728,3.614,4.018,3.883,9.588-2.038,9.9-8.828.472-11.722-5.023-13.7-11.875-2.625-9.091-4.672-9.323-15.293-19.818-9.15-9.041.432-23.622,12.781-20.692,6.985,1.657,15.583,1.637,25.816,11.7a8.073,8.073,0,0,1,2.248,3.493c2.726,10.932,16.063,13.663,18.142,34.753,1.026,10.4,13.824,8.594,15.506,21.757,1.464,11.444,8.858,7.169,21.456,29.887,4.811,8.675,10.831,16.435,20.729,16.784,5.641.2,12.991-1.263,13.73,5.192h13.7a49.462,49.462,0,0,0,1.845-5.783c.574-3.26-1.774-6.678-5.731-7.655-13.687-3.382-22.156,1.067-30.716-10.644-5.673-7.761-7.165-12.326-18.414-21.767-9.315-7.818-5.416-14.485.245-13.78,5.6.7,7.55,4.462,9.594,7.757,4.921,7.934,10.666,9.185,16.086,18.05,3.4,5.567,8.37,7.978,15.358,8.593,5.912.521,10.183,2.594,16.809,3.483v-12.7c-11.747-.921-15.614-.089-22.277-7.715-5.386-6.163-9.007-7.407-14.992-12.3-4.771-3.9,4.294-11.535,14.163-4.232,5.33,3.945,8.384,10.322,18.308,13.073a36.079,36.079,0,0,0,4.8.7V155.84a37.715,37.715,0,0,1-5.6-.932c-4.309-1.362-8.077-6.105-4.543-9.775,2.9-3.016,5.228-2.62,10.145-2.734v-9.748c-36.956-10.434-16.1-27.33-41.248-38.914-9.836-4.531-17.582-12.426-19.136-15.577-2.784-5.642,3.968-10.06,8.877-5.99,7.184,5.955,6,9.98,18.654,14.187,9.494,3.157,15.2,8.082,16.72,17.535,1.325,8.257,6.825,17.5,16.133,17.57V110.19c-4.13-2.461-4.481-8.765-3.987-12.877a8.949,8.949,0,0,0-2.676-7.53c-17.946-18.752-20.312-7.076-30.418-18.638a50.478,50.478,0,0,0-5.642-5.182H1846.752a13.466,13.466,0,0,0,2.823,1.617c18.73,7.995,25.379,3.063,36.056,12.408,9.928,8.691,12.723,7.641,17.877,16.362,5.626,9.519,6.925,12.211,15.753,17.171,4.37,2.456,9.116,3.577,8.676,7.6-.224,2.053-1.91,3.095-3.926,3.939-3.226,1.35-6.4.448-9.312-.4-9.634-2.8-14.444-13.357-24.321-27.247-7.984-11.227-23.125-15.563-37.968-17.259-5.234-.6-10.775-4.25-13.417-7.08-7.025-7.524-13.014-5.375-18.522-7.109h-16.088c2.541,6,4.853,14.634,2.954,19.057-2.024,4.713-8.164,4.237-10.3,1.035-6.006-8.985-.52-11.55-4-20.092h-11.306a6.945,6.945,0,0,1,.263,2.964c-.239,1.929-1.275,2.8-3.4,3.1-3.616.519-6.267-1.227-8.676-3.047a37.243,37.243,0,0,1-3.539-3.02h-21.725a11.259,11.259,0,0,0-.527,1.068C1740.494,75.6,1755.534,73.7,1759.388,75.266Zm154.383,15.406c-1.038-2-2.539-3.814-3.608-5.8-5.249-9.775-21.22-7.9-19.174-14.906.771-2.644,2.853-2.79,5.547-3.223,8.059.209,19.911,3.077,22.929,11.678,7.15,20.375,23.056,18.28,35.314,37.431,2.495,3.9,1.4,5.786-2.789,8.412-2.752,1.724-7.939.336-9.929-2.463a24.94,24.94,0,0,1-2.653-4.6C1934.343,105.3,1921.785,106.133,1913.771,90.671Zm.453,44.607c1.894-.9,4.377-1.88,6.275-1.517,6.617,1.264,9.005-.372,21.76,1.143,8.072.958,14.457-3.475,23.037-2.894,8.564.581,9.121,10.293,2.017,10.988a27.283,27.283,0,0,1-4.234.025c-10.425-.622-10.664,3.015-31.714,1.329-6.435.954-12.869,2.181-17.9-2.691C1911.441,139.7,1911.645,136.5,1914.224,135.278Zm-95.243-54.491c1.445-5.223,9.567-4.5,11.423-.984.915,1.732,1.648,3.539,2.462,5.312-1.127,6.617-3.1,13.965-10.639,12.977C1815.436,97.2,1817.35,86.679,1818.981,80.788Z" transform="translate(-292.858 -65.963)" fill="none"/>
    <path id="Path_2743" data-name="Path 2743" d="M1681.028,85.674c13.877,9.148,19.321,12.617,27.677,17.1,13.942,7.488,14.81,15.556,31.034,13.541,6.111-.76,10.482,1.968,13.627,5.947,10.246,12.959,20.635,13.57,26.327,22.383,2.4,3.714,4.424,11.161,4.87,12.427,2.667,7.554,10.365,10.105,19.755,13.553,16.607,6.1,14.352,16.218,31,25.747,4.963,2.841,7.178,5.126,16.083,17.836h12.386c-4.365-6.009-8.275-12.274-12.58-18.319-8.626-12.114-21.82-15.529-30.606-30.73-2.667-4.612-4.471-7.077-9.943-7.168-3.941-.064-7.8.411-11.177-1.021-4.677-1.982-5.167-6.683.32-9.87.307-.178,11.156-2.281,19.856.389,10.524,3.231,6.023,12.438,21.676,23.114,4.841,3.3,13.655,13.62,17.029,17.306,3.889,4.247,10.865,15.259,16.553,26.3h11.93c-2.346-4.611-5.957-11.286-13.388-26.353a16.033,16.033,0,0,0-6.746-6.876,26.555,26.555,0,0,1-4.013-3.306c-3.581-3.111-2.063-7.93,3.654-7.756a16.293,16.293,0,0,1,3.932,1.028c3.4,1.905,6.76,3.892,9.923,6.085,6.911,4.79,3.969,11.995,10.023,22.2,3.858,6.5,6.808,11.328,9.047,14.979h12.317c-2.314-4.008-5.286-9.153-9.353-15.973a44.677,44.677,0,0,1-6.029-16.321c-.555-3.767,1.868-7.019,4.749-9.875,6.957-6.891,4.746-13.467-.568-14.7-8.044-1.864-7.725,13.749-17.916,8.872-1.463-.7-2.791-1.618-4.181-2.437-15.379-9.062-27.838,5.545-36.413-8.333-15.481-25.051-7.281-15.578-12.084-27.886-.682-1.747-2.448-2.332-4.326-2.414-7.062-.313-3.718,12.309-11.309,11.12-7.148-1.119-4.569-7.155-2.275-13.246,3.188-8.469-5.367-10.842-15.688-13.579-9.918-2.63-14.1-7.015-17.012-10.649-15.472-19.346-30.183-9.445-42.728-19-9.76-7.432-19.777-8.638-21.871-13.833H1703.13c-.769,5.7,2.88,9.277,9.024,13.058,20.035,12.327,23.945,15.141,33.77,15.75,28.829,1.788,20.373,18.171,40.247,23.392,1.063.28,2.056.827,3.133,1,7,1.124,9.447,5.654,10.43,11.051,1.125,6.169-5.45,11.969-10.263,7.61-4.258-3.856-3.721-7.972-11.839-11.4-9.13-3.852-11.846-7.191-15.421-11.95-11.914-15.857-20.71-4.105-37.079-14.592-21.973-14.079-21.474-13.673-23.1-15.172-12.29-11.317-15.933-5.283-27.229-18.587-.046-.054-.1-.106-.144-.161h-15.178a3.452,3.452,0,0,0,.756.967C1675.016,79.607,1669.239,77.9,1681.028,85.674Z" transform="translate(-292.858 -65.963)" fill="none"/>
    <path id="Path_2744" data-name="Path 2744" d="M1550.983,68.488a26.719,26.719,0,0,0-1.056-2.525h-15.858a59.255,59.255,0,0,0,6.154,7.329C1544.688,77.182,1553.26,74.917,1550.983,68.488Z" transform="translate(-292.858 -65.963)" fill="none"/>
    <path id="Path_2745" data-name="Path 2745" d="M1581.007,95.778c16.2,19.33,7.886,8.412,16.361,21.3,6.274,9.54,14.792,7.889,21.191,16.314a16.881,16.881,0,0,0,3.6,3.159c1.668,1.21,3.424,1.949,5.765,1.006,5.971-2.4,1.554-8.477,1.571-16.046.008-3.762,4.887-6.519,8.832-5.147,5.354,1.863,3.245,6.46,2.834,13.406-1.332,22.552,9.277,15.944,11.167,33.609,1.567,14.659,17.644,9.574,23.767,20.925,7.683,14.242,15.392,17.17,20.922,29.908h13.144c-4.279-12.978-14.343-17.482-24.515-37.093-3.247-6.26-7.324-6.557-17.277-12.859-2.978-1.885-4.379-4.8-5.713-7.642-11-23.411-12.167-28.075-10.283-31.907,2.6-5.286,9.972-1.548,11.666,4.113,3.948,13.195,5.6,22.086,13.217,28.5,5.555,4.68,10.583,6.968,18.592,1.841a54.918,54.918,0,0,0,8.385-6.087c5.52-5.262,5.328-10.817-.228-16.415-1.671-1.685-3.573-3.194-5.4-4.757-1.9-1.625-5.944-2.418-8.013-.6-1.448,1.273-1.513,4.2-.35,6.2,1.248,2.147,3.32,3.9,3.6,6.531.9,8.383-11.538,7.243-13.419-.518-.724-2.986-1.725-6.037-1.623-9.034a16.633,16.633,0,0,0-5.176-12.533c-18.5-18.885-30.48-11.684-39.087-17.011-1.905-1.178-3.592-2.235-3.446-4.652.547-9.037,13.1-2.829,22.746-2.581,16.257.418,20.157,18.657,39.75,22.393,16.644,3.173,19.456,19.18,33.793,18.591,5.591-.231,10.731.734,14.9,3.9,23.9,18.157,11.142,21.764,30.863,38.037,2.115,1.746,3.972,3.747,6.188,5.378,8.643,6.361,18.513-3.67,12.061-8.987-6.951-5.728-15.1-5.056-18.62-17.623-2.587-9.222-7.325-12.463-26.444-28.085-5.164-4.22-10.166-3.877-18.045-4.554-12-1.03-13.764-11.565-32.026-17.974-12.567-4.411-14.538-11.327-27.069-17.8-10.149-5.242-10.422-15.724-12.023-19.387-2.827-6.471-13.512-3.518-10.344,3.864,1.025,2.39,2.286,4.8,2.633,7.292.5,3.576-2.412,5.382-6.185,3.883-5.413-2.149-7-8.55-8.175-12.909a10.592,10.592,0,0,1,.936-7.777h-12.449a2.594,2.594,0,0,1-.463.566c-4.49,3.946-9.7,6.445-16.289,6.253-4.354-.126-6.49-3.824-4.881-6.819h-15.137c4.923,5.476,4.375,7.186,7.519,11.1,26.053,32.467,23.522,23.422,28.063,31.159,3.885,6.62-5.847,12.323-11.458,6.18-.869-.951-30.089-37.587-30.3-37.856-3.994-5.015-6.575-8.333-8.331-10.587h-14.069c.005.011.006.02.011.031C1561.148,72.217,1560.913,71.806,1581.007,95.778Zm41-5.076c-3.483-.044-7.548-3.459-7.716-6.482-.147-2.639,3.5-5.84,6.78-5.95,3.389-.114,7.2,3.256,7.266,6.426A6.03,6.03,0,0,1,1622.008,90.7Z" transform="translate(-292.858 -65.963)" fill="none"/>
    <path id="Path_2746" data-name="Path 2746" d="M1768.38,202.98c-3.623-2.321-7.838-9.07-14.4-13.309-9.947-6.425-4.014-14.9-11.033-20.773-2.51-2.1-4.741-4.481-7.41-6.4-6.3-4.535-14.315-3.541-18.887,2.5-2.585,3.414-5.267,8.2-13.825,12.551-4.272,2.172-8.418,6.371-5.722,10.027,7.935,10.758,9.9,12.114,13.927,19.143,8.35,14.583,22.654-4.485,10.72-10.207-7.305-3.5-12.376-8-7.119-13.349,2.833-2.881,5.611-5.8,8.4-8.721,4.132-4.33,13.529-2.162,10.667,5.258-.742,1.922-4.049,7.254-2.993,9.654,3.205,7.285,11.62,5.391,18.4,11.005,10.8,8.942,14.679,18.333,17.536,25.248h13.974c-1.115-2.916-2.393-6.179-2.475-8.363C1777.889,210.754,1773.928,206.535,1768.38,202.98Z" transform="translate(-292.858 -77.359)" fill="none"/>
    <path id="Path_2747" data-name="Path 2747" d="M895.969,121.215c-.019-3.235-1.981-4.9-5.744-4.883-4.13.021-5.52,1.25-5.536,4.891C884.661,127.714,896.011,128.337,895.969,121.215Z" transform="translate(-292.858 -72.142)" fill="none"/>
    <path id="Path_2748" data-name="Path 2748" d="M1099.93,234.832h6.414A6.03,6.03,0,0,0,1099.93,234.832Z" transform="translate(-292.858 -86.584)" fill="none"/>
    <path id="Path_2749" data-name="Path 2749" d="M583.994,194.073c-4.7-4.62-7.8-14.138-16.077-16.926-10.4-3.5-14.613.318-29.438-4.671-7.472-2.514-9.537-6.284-16.867-12.915C504.528,144.107,505.17,147.139,501.1,143.7c-11.18-9.464,10.963-12.784,3.636-23.079-1.512-2.125-3.779-3.055-7.208-2.573-2.79.391-4.353,2.428-5.619,4.2-1.442,2.013-4.441,5.822-4.92,9.232-2.848,20.334,2.818,20.607,18.578,29.4,2.257,1.258,5.478,5.438,9.251,8.593,15.851,13.253,1.436,19.311,14.273,34.608,5.075,6.048,11.166,8.262,15.315,16.344h36.165c-.489-.477-.985-.974-1.495-1.51-10.692-11.222-17.768-1.683-29.429-9.825a13.877,13.877,0,0,1-2.579-1.865c-4.321-4.951-9.008-9.687-11.961-15.46-4.336-8.475,7.013-11.912,10.762-5.736,5.151,8.486,3.649,16.382,18.741,17.294,11.234.68,12.963.275,19.973,5.891,11.963,9.586,10,8.806,19.944,10.5.958.164,1.995,0,2.939.193a18.3,18.3,0,0,1,1.97.516h17.9a20.142,20.142,0,0,0-4.432-6.058C612.086,204.377,602.063,211.845,583.994,194.073Zm-19.494.065c-3.416.038-5.461-1.495-5.547-4.156-.094-2.939.987-3.841,4.594-3.832,3.336.008,5.333,1.632,5.338,4.34S567.793,194.1,564.5,194.138Z" transform="translate(-292.858 -72.171)" fill="none"/>
    <path id="Path_2750" data-name="Path 2750" d="M756.809,81.274c7.184,2.994,8.076,5.231,26.45,19.311,16.778,12.859,6.543,23.1,22.449,24.784,7.144.755,11.612,5.088,5.693,9.541-8.481,6.381-23.881-1.218-27.546-11.2-3.524-9.6-5.014-13.739-15.812-20.988-10.3-6.912-11.5-9.765-18.824-12.08-7.631-2.413-7.793-2.96-11.922-9.816-1.315-2.182-1.847-8.8-7.855-8.8-3.873,0-6.77,3.136-5.835,6.475a32.9,32.9,0,0,0,2.467,6.967c3.422,6.281-8.357,11.121-7.793,24.877.125,3.074-.16,6.12,1.345,9.1,2.933,5.8,6.873,4.886,16.641,5.818,13.617,1.3,12.871,12.436,20.278,25.973,6.622,12.1,16.685,14.3,31.657,15.88,11.684,1.232,22.873,16.878,24.527,26.6,1.484,8.723-.407,9.144-.977,14.935a24.168,24.168,0,0,0,.07,5.564h11.059c-.078-.2-.166-.38-.239-.583-.66-1.847.336-2.92,1.58-3.772,1.208-.828,2.539-2.2,4.452-1.193a44.941,44.941,0,0,1,8.134,5.548h18.1c-5.326-2.65-7.508-5.23-14.357-9.611-6.607-4.226-16.03-5.769-17.407-15.51-1.449-10.246-10.7-18.711-13.995-23.46-6.441-9.289-15.13-7.425-28.671-11.489-14.765-4.433-17.047-18.825-20.479-25.429-7.744-14.906-18.561-13.059-24.1-14.545-10.977-2.941-4.036-19.524,7.351-13.67.494.254,16.339,10.311,18.515,11.94,9.807,7.34,8.7,16.1,15.587,24.906,5.373,6.871,19.227,11.451,26.675,11.231,8.811-.26,11.673-5.318,17.645-9.026,7.828-4.861,11.042,3.347,15.568,9.9,10.7,15.5,23.483,6.488,17.733,1.354-4.535-4.047-14.266-8.411-9.8-12.572a4.711,4.711,0,0,1,5.957-.82,20.508,20.508,0,0,1,4.326,2.883c9.326,8.2,14.216,3,28.641,11.1,3.668,2.058,13.224,5.388,16.94,4.467,17.279-4.279,16.486,13.6,32.911,10.306a25.341,25.341,0,0,1,5.4-.438c3.462.068,5.625,3.757,3.772,6.09a46.347,46.347,0,0,1-3.9,4.333c-2.176,2.125-2.854,6.127-1,8.493,9.942,12.7,21.988,17.759,27.34,29.565h31.263a35.259,35.259,0,0,0-4.118-2.558c-8.125-4.338-18.562-1.118-22.579-10.4-6.176-14.275-19.642-12.144-18.994-20.814.213-2.858,2.833-4.69,5.967-3.745,9.845,2.972,10.547,9.305,30.628,2.442,11.59-3.961,17.165-14.134,11.637-25.124-4.8-9.535-9.03-13.2-8.3-19.056.407-3.273,3.918-4.695,7.053-2.882,2.955,1.71,4.175,4.473,5.627,7.106,14.575,26.443,8.251,19.174,29.781,33.806,11.656,7.921-.509,19.5,19.6,25.558,4.551,1.37,9.213,5.156,6.754,8.763-3.557,5.217-10.734-.07-13.993-.668-6.156-1.126-7.785,2.317-7.5,7.571h28.939a6.668,6.668,0,0,1,4.6-2.893c1.553-.035,3.532,1.279,4.855,2.893h12.484c-.958-7.889-8.273-7.733-22.829-19.885-4.872-4.067-11.085-5.108-15.451-10.895-2.608-3.456,2.38-7.436,6.335-6.119,18.113,6.031,27.726,23.193,43.73,25.643,9.982,1.527,14.474,6.055,17.373,11.256h13.351a47.593,47.593,0,0,0-9.123-13.009c-5.845-6.191-15.716-7.795-22.044-9.92-12.164-4.086-13.511-12.069-24.56-17.457-20.439-9.969-24.644-3.111-34.961-8.788-9.749-5.364-13.595-7.653-14.289-10.864-1.416-6.546,4.351-7.141,6.974-10.868,3.309-4.7-1.56-10.011-8.164-6.978a37.094,37.094,0,0,0-5.13,2.34c-1.435.959-2.482.266-3.448-.241-6.827-3.579-.851-10.386-16.669-16.355-11.088-4.184-13.83-7.945-40.121-31.9-7.436-6.776-3.08-11.5-14.434-18.956-2.1-1.379-4.138-2.858-4.7-5.249H927.635a19.733,19.733,0,0,0,10.487,11.423c2.4,1.161,3.223,3.125,4.053,4.981,1.093,2.443-3,5.423-6.37,4.461-16.421-4.682-17.223-12.806-21.6-20.865H866.734c.149,4.971,1.821,10.772,10.368,16.752,3.481,2.437,6.912,4.979,5.551,7.913-1.576,3.4-4.128,3.811-7.712,3.811-4.816.522-10.018-3.27-12.05-7.83a45.456,45.456,0,0,1-1.754-5.267c-2.986-9.756-9.082-7.422-14.507-9.4-2.7-.984-3.857-3.922-2.331-5.978H829.761a18.221,18.221,0,0,1,1.476,8.772c2.408,12.953,11.547,5.449,16.033,8.894,3.427,2.632,2.106,4.572.128,8.216-2.664,4.909.151,7.841,4.922,8.04,1.692.07,3.4-.054,5.084.038,4.849.263,8.682,5.468,3.657,8.95-2.6,1.8-5.169,3.116-9.119,2.283-17.474-3.683-15.133-13.164-26.327-21.5a37.678,37.678,0,0,1-4.338-4.482c-4.564-4.743,1.514-16.07-4.3-19.213h-5.49c-1.91,1.175-2.893,3.428-3.381,4.272-4.4,7.582-12.072,2.947-11.253-4.272h-18.7c9.414,5.762,9.08,13.56,21.786,18.716,17.513,7.108,13.446,18.356,34.313,30.846a25.014,25.014,0,0,1,5.8,4.584,5.385,5.385,0,0,1-.82,8.048c-5.091,3.945-10.076-.505-14.323-4.681-8.23-8.091-13.713-7.488-17.314-14.214-2.448-4.574-4.947-9.161-9.594-12.432-2.723-1.918-5.267-4.114-8.248-5.647C775.8,84,781.035,79.629,763.918,71.142a33.507,33.507,0,0,1-7.923-5.179h-15.17A31.633,31.633,0,0,0,756.809,81.274Zm146.069,62.715c-1.553,2.8-3.933,2.78-7.2,2.78-3.078-.261-6.723-1.066-8.4-4.876-.861-1.954.519-5.056,2.768-5.254,4.067-.36,8.261-.507,11.156,2.815C902.324,140.745,904.059,141.854,902.878,143.989Zm-26.326-38.876c8.033-4.79,15.145-8.393,23.219-1.5,4.038,3.447,5.8,7.779,7.747,12.087,2.554,5.646,3.637,6.373,24.768,26.4,11.079,10.5,27.178,1.659,7.684-11.046-8.639-5.631-18.658-10.791-21.975-21.4-4.123-13.179-16.273-13.593-22.777-25.486-3.631-6.64-10.51-7.406-13.54-11.169-3.207-3.981,2.276-7.731,5.978-6.681,23.111,6.559,14.738,13.5,27.847,23.693,8.422,6.547,13.717,5.341,26.577,5.4,10.139.049,14.7,6.47,24.018,14.4,6.71,5.709,15.811,10.97,14.54,19.923-2.334,16.43,6.616,19.907,7.713,30.95.965,9.729-16.108,15.565-29.932,4.836-7.53-5.843-8.39-9.806-17.03-9.727-29.8.275-26.827-34.337-49.781-27.813-2.213.629-4.4,1.236-6.946.457-3.069-.937-5.576-2.16-7.02-4.817C873.9,116.739,867.945,110.245,876.552,105.113Zm-17.421,15.113c5.93,1.543,9.749,5.683,12.612,10.212,2.538,4.012-3.879,6.448-8.151,4.315a85.014,85.014,0,0,1-8.033-4.511C850.672,127.1,851.712,118.3,859.131,120.225Z" transform="translate(-292.858 -65.963)" fill="none"/>
    <path id="Path_2751" data-name="Path 2751" d="M1249.4,223.021c-26-11.343-32.591-13.265-43.926-4.119a6.56,6.56,0,0,1-10.292-2.047c-4.215-9.71-4.96-9.754-16.181-6.759-4.743,1.266-17.685-.693-18.607-.672-20.482.475-19.563-15.736-41.158-23.951-6.6-2.508-12.582-2.794-18.287-11.847-5.912-9.382-13.519-6.91-21.985-9.1-20.188-5.224-25.955-8.044-31.935-8.057-4.68-.011-8.371,4.986-3.966,9.048,5.924,5.461,11.15,1.759,29.671,7.6,10.435,3.291,16.566,3.875,23.035,12.833s16.919,6.476,28.351,14.684c4.233,3.04,13.184,12.122,16.17,15.5,2.659,3.007,3.331,6,4.516,9.076h13.077c-.787-1.213-1.337-2.611-1.164-3.254.555-2.07,2.687-3.576,5.789-3.333,10.418.814,17.194,3.018,23.678,6.587h28.25c2.6-1.328,6.567-.9,10.349,0h28.172A13.458,13.458,0,0,0,1249.4,223.021Z" transform="translate(-292.858 -76.961)" fill="none"/>
    <path id="Path_2752" data-name="Path 2752" d="M714.929,210.864c-2.536-2.862-5.616-4.5-8.942-2.4-4.71,2.972-.854,7.448,1.968,11.369,4.377,6.081,4.554,7.694,2.176,11.721h14.1C728.436,224.883,725.854,223.2,714.929,210.864Z" transform="translate(-292.858 -83.304)" fill="none"/>
    <path id="Path_2753" data-name="Path 2753" d="M797.516,223.751c-5.1-1.5-11.624.159-16.448-5.12a33.622,33.622,0,0,1-7.118-11.973c-2.641-7.808,7.728-9.99,11.26-4.751,2.149,3.189,6.075,16.23,14.592,11.533,8.257-4.555-5.518-23.282-15.574-24.295a41.423,41.423,0,0,0-6.644-.516c-11.191.709-11.539-5.907-24.382-7.546-3.865-.494-6.81-2.942-7.151-6.166-.243-2.307,1.078-4.58.508-4.655,0-3.244.428-3.974-3.649-6.4-2.267-1.348-4.343-.314-5.816.609-12.166,7.608-4.6,21.611,9.627,26.533,8.348,2.887,14.707,2.5,15.57,12.74.727,8.623,2.166,16.343,8.342,22.3h30.25A6.245,6.245,0,0,0,797.516,223.751Z" transform="translate(-292.858 -77.799)" fill="none"/>
    <path id="Path_2754" data-name="Path 2754" d="M1741.889,214.974c-9.076-3.568-5.774,8.52-14.867,12.064-3.344,1.3-4.924,3.333-5.265,5.36h29.886c-.36-.447-.724-.9-1.107-1.356C1744.915,224.3,1748.351,217.512,1741.889,214.974Z" transform="translate(-292.858 -84.15)" fill="none"/>
    <path id="Path_2755" data-name="Path 2755" d="M928.207,199.193c-3.408-9.587-8.361-11.751-11.257-14.173-9.521-7.963-17.043-7.359-34.47-12.9-8.2-2.61-10.353-5.41-15.227-2.736-4.134,2.268-2.694,7.879,5.93,10.406,18.612,5.453,26.927,6.758,35.484,14.667,6.462,5.972,9.079,7.206,9.878,10.257,1.813,6.922-9.532,11.045-20.817-3.779-8.329-10.939-18.372-5.839-38.435-18.85-11.234-7.285-21.363-.264-27.032-10.606a35.969,35.969,0,0,0-4.215-5.9c-5.481-6.442-17.842-.335-7.347,10.47,4.754,4.9,9.468,6.427,11.488,17,1.142,5.973,4.874,10.584,10.724,13.9,21.014,11.922,31.212,20.856,42.746,13.633,8.4-5.261,16.965-4.852,23.353,2.132q1.533,1.677,2.943,3.3h12.173c-.641-.834-1.238-1.716-1.866-2.527-1.71-2.211-.714-4.21.927-6.1,5.223-1.139,8.6.924,11.778,4.4,1.293,1.413,2.6,2.81,3.869,4.228h14.019a51.73,51.73,0,0,0-8.141-9.079C940.872,213.508,931.453,208.327,928.207,199.193Zm-46.173,12.451c-6.442,1.61-9.685-.055-27.277-9.7-11.184-6.13-10.3-7.418-11.416-9.018.02-4.119,3.556-6.046,7.29-4.559a34.247,34.247,0,0,1,7.337,4.151c13.14,9.548,19.915,7.319,25.72,10.747C887.951,205.786,886.984,210.407,882.034,211.645Z" transform="translate(-292.858 -77.765)" fill="none"/>
    <path id="Path_2756" data-name="Path 2756" d="M1026.764,225.1c1.819-5.764,5.875-9.561,5.128-13.8a17.6,17.6,0,0,0-.356-3.687,40.088,40.088,0,0,0-10.9-17.138c-6.763-6.478-16.318-3.33-14.782,3.112.98,4.114,5.069,6.136,10.321,10.336,5.023,4.017,5.772,14.985-3.02,13.095-2.812-.6-5.126-3.755-6.928-6.524-5.318-8.173-16.636-9.374-24.16-6.431-7.6,2.973-2.412,10.089,4.265,10.022,6.969-.069,11.235,3.707,19.795,10.115a56.589,56.589,0,0,1,5.735,4.791h14.474A10.177,10.177,0,0,1,1026.764,225.1Z" transform="translate(-292.858 -80.744)" fill="none"/>
    <path id="Path_2757" data-name="Path 2757" d="M957.768,139.232c4,9.309-2.26,18.211,9.115,25.77,5.448,3.62,10.823-.627,8.941-5.459-1.981-5.088-6.144-8.964-6.079-19.975.056-9.287-5.44-13.489-13.744-19.462-16.417-11.808-12.9-8.969-20.4-11.421-6.823-.1-10.361,5.809-1.529,11.342C946.771,127.985,953.345,128.932,957.768,139.232Z" transform="translate(-292.858 -71.169)" fill="none"/>
    <path id="Path_2758" data-name="Path 2758" d="M1400.466,234.881h9.888A21.464,21.464,0,0,0,1400.466,234.881Z" transform="translate(-292.858 -86.633)" fill="none"/>
    <path id="Path_2759" data-name="Path 2759" d="M703.241,84.466c2.293,3.415,7.929,3.746,10.218.6,2.718-3.739,1.354-7-1.241-15.889a13.936,13.936,0,0,0-1.314-3.211H697.917a5.562,5.562,0,0,1,.942,1.131C702.807,73.342,697.711,76.232,703.241,84.466Z" transform="translate(-292.858 -65.963)" fill="none"/>
    <path id="Path_2760" data-name="Path 2760" d="M686.027,77.173c4.3-1.37,3.357-4.4,4.563-9.189a4.244,4.244,0,0,1,1.172-2.021H677.949c-.03.108-.064.214-.092.322C676.313,72.245,682.067,78.434,686.027,77.173Z" transform="translate(-292.858 -65.963)" fill="none"/>
    <path id="Path_2761" data-name="Path 2761" d="M477.435,73c-4.51,3.259-3.346,8.85,1.8,11.324,3.522,1.693,11.482,6.416,14.2,10.072,5.434,7.321,19.678,11.576,23.416,17.447,3.435,5.395,1.85,7.45-.663,12.045-5.113,9.346,3.062,12.822,9.927,18.672,12.148,10.354,16.953,18.053,30.43,15.174,12.122-2.589,26.679,11.057,34.118,19.745,13.364,15.608,24.135,9.6,35.775,19.537,7.147,6.1,11.241,12.051,21.084,13.645a22.422,22.422,0,0,1,9.128,3.547h17.538c-7.1-12.364-20.588-9.505-34.889-21.64-12.441-10.556-14.7-11.8-23.968-14.363-10.333-2.856-14.581-8.941-22.99-15.74-3.93-3.176-13.639-9.567-18.443-13.348-8.053-6.34-12.41-3.159-19.075-2.363-7.217.861-12.831-3.894-23.166-13.963-7.642-7.446-3.325-14.2,4.475-11.414,3.493,1.249,2.16,2.261,12.133,12.943,2.06,2.207,7.488,3.3,9.752,1.049,1.207-1.2,1.361-4.972.22-6.665-2.147-3.186-11.813-11.917-14.026-13.8-6.818-5.792-17.664-7.548-29.8-18.839-5.89-5.479-11.992-10.753-19.276-14.877a6.632,6.632,0,0,1-3.344-7.59c1.42-4.734,9.9-4.7,13.567-.94,16.3,16.728,20.325,21.789,27.833,23.49a30.831,30.831,0,0,1,17.616,11.164c2.7,3.288,6.126,6.12,9.322,9.078,9.591,8.875,8.586,15.417,18.746,23.586,7.238,5.82,20.741,10.759,27.928,19.307,9.871,11.741,18.758,6.822,29.893,14.992,8.178,6,2.459,6.872,21.158,17,14.991,8.119,22.346,2.769,26.406,17.353a14.534,14.534,0,0,0,3.133,5.578h10.842c1.854-2.966.042-7.127-2.709-11.062-3.315-4.741-5.432-7.338-.541-15.449,4.8-7.97.7-11.765,1.583-18.062.733-5.252,9.2-6.549,11.188-1.647a9.554,9.554,0,0,1,1.127,3.516c-.317,11.211,10.845,13.606,27.959,28.4,6.629,5.731,2.243,11.507,1.217,14.3h17.088c-4.778-7.148,2.228-17.772-12.782-25.576-10.062-5.23-23.275-11.545-23.492-25.359,2.189-9,2.281-15.743,12.8-17.792,10.883-2.122,7.879-10.223,2.42-10.6a21.426,21.426,0,0,0-6.733.184c-10.555,2.794-14.971-5.49-19.854-12.955-6.812-10.414,7.345-21.406-2.98-26.736-5.377-2.776-10.379-6.175-16.407-7.947-10-2.939-17.307,6.5-12.342,11.919,3.577,3.905,7.414,2.116,12.217,1.363,4.192-.657,7.286,2.068,6.552,5.824-.231,1.188-.416,2.61-1.246,3.442-9.671,9.713,4.212,18.645,15.63,31.43,10.018,11.217-4.247,19.031-9.45,8.35-5.824-11.955-14.751-13.906-18.525-22.183-3.469-7.605-1.9-10.832-7.708-16.414-12.1-11.626-6.453-13.607-19.726-23.194-6.342-4.581-16.714-7.1-16.464-12.424.137-2.89,1.924-4.494,5.2-4.8,5.368-.5,9.454,1.769,13.02,4.859,3.116,2.7,4.787,7.814,10.339,7.876,10.346.115,6.584-11.42-2.588-17.518H626.212a10.092,10.092,0,0,1-1.828,0H600.825c3.371,1.849,7.174,4.043,11.511,6.74,6.106,3.8,5.145,1.021,16.122,11.558,12.455,11.955,16.883,7.94,27.654,24.058,6.526,9.767,7.743,8.422,11.114,21.544,3.08,11.991,31.383,24.272,21.634,32.675-4.3,3.708-11.918-.323-14.759-4.593-7.893-11.863-19.262-14.935-19.119-23.683.107-6.553-2.3-12.315-6.226-17.636-13.46-18.259-17.746-14.441-29.738-25.009-22.794-20.088-34.227-20.7-42.288-25.655H561.367c3.349,3.907,5.516,7.248,5.127,10.688-1.542,10-3.442,14.077,5.012,22.091,7.166,6.793,13.275,10.5,19.445,19.435,8.818,12.774,21.475,4.515,28.089,18.361,10.956,22.934,22.834-3.34,44.076,30.267,3.847,6.089,12.56,5.385,16.448,6.517,11.236,3.27,3.635,16.563-3.679,13.362-2.478-1.085-5.059-2.023-7.4-3.3-16.138-8.782-14.479-8.231-19.529-14.929-2.749-3.646-5.729-7.067-10.529-8.7a27.708,27.708,0,0,0-7.193-1.689c-8.831-.5-14.865-4.67-18.688-11.233-3.3-5.662-8.517-8.447-15.18-9.769-9.195-1.826-10.2-6.6-27-26.043-1.953-2.258-4.642-4.011-6.8-6.147-2.311-2.29-4.37-4.777-6.579-7.149-6.375-6.842-1.871-12.648-2.4-17.061-.576-4.833-.566-7.253-6.437-14.7H531.092c1.334,2.8,5.181,5.219,8.613,8.613,9.112,9.014-.465,14.813-5.829,10.1a64.058,64.058,0,0,1-8.408-8.276c-2.213-2.834-5.442-4.848-7.1-8.2a9.614,9.614,0,0,1-.764-2.244H485.27C483.992,68.566,480.564,70.742,477.435,73Zm163.619,64.4c-1.762,1.12-6.372.292-8.04-1.54-5.722-6.286-6.419-15.961-21.037-20.183-7.505-2.168-12.537-6.579-17.248-11.757-5.153-5.663-15.9-12.345-17.889-16.986-1.692-3.954.368-6.5,5.207-6.472,2.839-.446,3.411-.515,25.1,18.353,15.653,13.617,17.694,2.379,35.71,31.28A5.32,5.32,0,0,1,641.054,137.4Z" transform="translate(-292.858 -65.963)" fill="none"/>
    <path id="Path_2762" data-name="Path 2762" d="M1541.087,192.767c.187-6.864-1.366-11.268-4.207-17.054-2.329-4.741-16.936-6.248-6.621,13.359,1.846,3.508,2.3,9.737-1.868,10.913-2.033.574-4.255.446-5.656-1.424a13.181,13.181,0,0,1-2.015-3.1c-11.159-30.47,10.887-34.441-48.848-47.128-.159.589.144.227-1.787.342-6.975.415-8.37,6.642-3.965,9.3,6.565,3.959,11.721,3.231,23.362,5.895,15.271,3.5,15.467,10.432,18.316,24.071,2.706,12.951,1.908,20.266,11.79,22.149,5.8,1.1,14.541.034,20.4,5.217,4.245,3.759,5.949,6.34,7.24,8.894h13.639c-1.854-3.478-3.662-6.977-5.711-10.364C1552.8,209.941,1540.746,205.252,1541.087,192.767Z" transform="translate(-292.858 -75.95)" fill="none"/>
    <path id="Path_2763" data-name="Path 2763" d="M407.649,86.7c2.2,2.056,5.023,3.6,7.16,5.7,10.109,9.915,17.571,21.685,34.534,26.5,10.243,2.907,14.76-10.927.92-13.253-13.8-2.321-14.42-10.26-30.9-24.526-1.981-1.715-9.012-4.7-12.346-14.417-.088-.258-.179-.495-.27-.737H375.055c3.783,1.29,8.47,2.8,14.113,4.879C396.251,73.448,398.751,78.38,407.649,86.7Z" transform="translate(-292.858 -65.963)" fill="none"/>
    <path id="Path_2764" data-name="Path 2764" d="M1347.919,86.446c12.44,3.966,18.68,8.577,23.593,15.016,14.153,18.546,40.452,16.486,48.8,29.273.924,1.416.238,4.606-.852,5.6-1.823,1.665-4.033,1.361-6.137.781-6.237-1.719-6.845-7.012-22.389-8.133-10.822-.782-14.719-8.214-19.412-11.12-8.919-5.522-16.637,5.426-8.576,10.234,8.529,5.087,13.843,5.624,15.229,15.19.9,6.2,2.6,9.66,12.856,14.7,21.315,10.469,22.7,16.292,31.177,18.242,3.762.866,9.68-3.237,5.093-8.516-5.232-6.022-20.524-12.937-28.53-15.71-7.129-2.468-12.374-9.444-8.526-11.627,1.871-1.061,3.838-2.707,6.495-1.159,1.252.729,2.783,1.078,4.061,1.781,16.9,9.286,19.032,3.5,25.1,10.141,5.708,6.245,13.906,15.659,16.471,18.122,3.063,2.941,15.225,9.16,14.7,21.971-.195,4.8-6.042,8.167-10.936,6.607-3.053-.973-5.136-5.213-4.4-8.008a13.784,13.784,0,0,0,.594-4.356c-.359-5.426-8.972-5.338-12.117-1.776-4.223,4.781-10.376,10.6-1.942,15.4,3.357,1.91,15.473,8.776,19.471,9.014,16.712.992,11.89-12.4,31.519-6.724,32.6,9.432,14.485,2.377,47.569,10.5a17.132,17.132,0,0,1,5.474,2.324h14.908c-1.291-2.558-2.995-5.144-7.24-8.909-5.854-5.191-14.6-4.119-20.4-5.226-9.882-1.886-9.084-9.213-11.79-22.186-2.849-13.662-3.045-20.61-18.316-24.111-11.641-2.668-16.8-1.939-23.362-5.9-4.405-2.66-3.01-8.9,3.965-9.313,1.931-.115,1.628.248,1.787-.342,59.735,12.708,37.689,16.686,48.848,47.207a13.205,13.205,0,0,0,2.015,3.1c1.4,1.873,3.623,2,5.656,1.426,4.168-1.178,3.714-7.418,1.868-10.932-10.315-19.64,4.292-18.13,6.621-13.381,2.841,5.8,4.394,10.207,4.207,17.083-.341,12.505,11.709,17.2,14.064,21.1,2.049,3.393,3.857,6.9,5.711,10.382h8.557a4.016,4.016,0,0,1,.01-2.478c1.247-4.085,3.642-4.053,11.621-3.22,3.52.368,9.583-3.613,1.86-8.516-5.222-3.315-11.032-1.577-14.207-2.381-30.7-7.769-6.3-40.2-35.827-44.668-16.695-2.525-11.235-13.955-11.524-17.454-1.868-22.615-.657-26.607-10.942-26.626-7-.013-10.723.527-13.9-1.539-6.3-4.1-5.762-11.9-13.472-20.508-2.6-2.9-5.544-5.59-7.811-8.673a11.414,11.414,0,0,1-1.069-12.186h-24.473c.942.676,1.951,1.343,3.052,2,6.921,4.118,11.119,10,14.541,16.772,7.6,15.043,8.667,10.439,16.9,25.281,2.01,3.626,3.673,10.49,11.611,9.863,1.263-.1,2.565.115,3.815-.036,7.507-.911,12.907,7.073,11.743,12.79-.8,3.911-4.837,5.573-8.893,3.769-7.25-3.225-11.652-9.613-33.266-6.908-5.109.639-10.04,2.782-14.879,4.6-7.427,2.794-9.534,8.614-1.658,15.138,8.422,6.976,13.966,11.968,20.469,13.115,9.273,1.637,20.66-1.425,23.875,11.955.064.262,3.636,16.262,3.672,16.551.545,4.385-2.869,7.356-12.116,3.683-10.99-4.368-18.48-.891-21.549-8.981-.656-1.727-1.625-3.533-1.55-5.274.27-6.269-3.392-10.734-8.6-14.112-10.171-6.595-21.573-16.737-23.547-27.679-1.608-8.912-7.632-19.1-14.686-22.658-6.278-3.172-12.321-6.742-18.781-9.586A67.914,67.914,0,0,1,1381.321,94.3c-13.723-12.444-22.852-13.412-35.3-20.846-1.242-.742-6.22-3.963-11.556-7.49h-18.948c2.117,1.544,4.307,3.129,6.5,4.505C1338.372,80.715,1338.881,83.564,1347.919,86.446Z" transform="translate(-292.858 -65.963)" fill="#e1dedd"/>
    <path id="Path_2765" data-name="Path 2765" d="M1549.092,85.141c5.412-.725,11.046,1.035,14.195,5.026,13.055,16.543,17.213,19.292,19.921,26.253,2.392,6.147,6.987,10.432,12.717,14.128,10,6.45,15.425,12.734,26.208,15.484,9.334,2.381,20.024,9.677,19.2,17.569-.551,5.3-8.8,6.361-12.87-.125-5.931-9.453-14.526-7.393-22.52-12.068-14.319-8.373-19.1-14.057-22.761-16.924-5.913-4.636-12.931-.095-9.967,5.888,4.532,9.143,13.466,8.931,22.74,16.876,5.3,4.536,2.614,8.662,3.908,15.514,1.232,6.523,10.956,11.92,22.574,7.768,3.724-1.331,14.131-4.5,18.358-4.568,5.74-.091,7.968,3.139,5.575,7.81a23.26,23.26,0,0,0-1.671,4.121c-1.582,5.469,5.1,7.85,8.762,4.428a36.737,36.737,0,0,0,3.1-3.471c2.995-3.6,6.885-3.559,9.558.3,1.8,2.6,2.933,5.589,4.932,8.046,2.759,3.393,6.248,6.322,9.077,9.677a56.261,56.261,0,0,1,5.336,7.34h11.54c-5.53-12.737-13.239-15.665-20.922-29.908-6.123-11.351-22.2-6.266-23.767-20.925-1.89-17.665-12.5-11.057-11.167-33.609.411-6.946,2.52-11.542-2.834-13.406-3.945-1.373-8.824,1.384-8.832,5.147-.017,7.569,4.4,13.643-1.571,16.046-2.341.943-4.1.2-5.765-1.006a16.881,16.881,0,0,1-3.6-3.159c-6.4-8.426-14.917-6.775-21.191-16.314-8.475-12.887-.159-1.968-16.361-21.3-20.094-23.972-19.859-23.562-22.763-29.785-.005-.011-.006-.02-.011-.031h-8.306a26.785,26.785,0,0,1,1.056,2.529c2.277,6.44-6.3,8.709-10.76,4.812a59.33,59.33,0,0,1-6.154-7.341h-14.146a88.48,88.48,0,0,0,4.956,7.911C1529.8,80.876,1539.283,86.453,1549.092,85.141Zm66.176,88.012c-3.725,0-5.62-1.706-5.6-5.027.018-3.275,1.048-4.161,4.83-4.157,3.72,0,5.619,1.709,5.6,5.026C1620.08,172.271,1619.049,173.158,1615.268,173.153Z" transform="translate(-292.858 -65.963)" fill="#e1dedd"/>
    <path id="Path_2766" data-name="Path 2766" d="M1303.235,86.112c15.753,6.4,15.273,11.016,29.068,17.12,2.7,1.2,18.8,7.311,19.089,7.4,2.509.72,6.528-.464,7.558-2.163a5.188,5.188,0,0,0-1.823-6.316c-12.1-6.854-18.092-4.7-28.814-13.569-12.227-10.108-19.694-10.7-27.378-17.4a7.093,7.093,0,0,1-2.567-5.212h-10.1a32.729,32.729,0,0,1,.965,5.386C1289.808,77.23,1292.9,81.911,1303.235,86.112Z" transform="translate(-292.858 -65.963)" fill="#e1dedd"/>
    <path id="Path_2767" data-name="Path 2767" d="M1387.866,83.93c3.365,1.95,7.073,3.455,10.366,5.486,8.551,5.275,16.743,11.021,25.49,16.023a32.982,32.982,0,0,1,14.79,16.406,16.486,16.486,0,0,0,2.927,3.96c1.639,1.916,3.882,1.729,6.113,1.067,10.193-3.022-3.874-22.329-17.292-30.471-23.255-14.111-20.123-18.8-30.876-20.379-9.467-1.388-15.287-5.2-22.059-10.057h-20.072q5.3,3.007,10.567,6.046C1374.554,75.914,1381.132,80.026,1387.866,83.93Z" transform="translate(-292.858 -65.963)" fill="#e1dedd"/>
    <path id="Path_2768" data-name="Path 2768" d="M1702.029,84.679c1.629,1.5,1.13,1.091,23.1,15.147,16.369,10.469,25.165-1.263,37.079,14.568,3.575,4.751,6.291,8.085,15.421,11.93,8.118,3.421,7.581,7.53,11.839,11.379,4.813,4.352,11.388-1.439,10.263-7.6-.983-5.388-3.427-9.911-10.43-11.033-1.077-.173-2.07-.719-3.133-1-19.874-5.212-11.418-21.568-40.247-23.352-9.825-.609-13.735-3.417-33.77-15.724-6.144-3.774-9.793-7.345-9.024-13.036h-28.474c.047.054.1.106.144.16C1686.1,79.4,1689.739,73.381,1702.029,84.679Z" transform="translate(-292.858 -65.963)" fill="#e1dedd"/>
    <path id="Path_2769" data-name="Path 2769" d="M1610.936,114.325c5.611,6.133,15.343.44,11.458-6.17-4.541-7.725-2.01,1.306-28.063-31.107-3.144-3.911-2.6-5.619-7.519-11.085H1572.3c1.756,2.251,4.337,5.563,8.331,10.569C1580.847,76.8,1610.067,113.376,1610.936,114.325Z" transform="translate(-292.858 -65.963)" fill="#e1dedd"/>
    <path id="Path_2770" data-name="Path 2770" d="M1635.095,73.74c1.171,4.359,2.762,10.76,8.175,12.909,3.773,1.5,6.684-.307,6.185-3.883-.347-2.49-1.608-4.9-2.633-7.292-3.168-7.383,7.517-10.335,10.344-3.864,1.6,3.663,1.874,14.145,12.023,19.387,12.531,6.472,14.5,13.388,27.069,17.8,18.262,6.409,20.026,16.944,32.026,17.974,7.879.676,12.881.333,18.045,4.554,19.119,15.622,23.857,18.863,26.444,28.085,3.524,12.567,11.669,11.895,18.62,17.623,6.452,5.317-3.418,15.348-12.061,8.987-2.216-1.631-4.073-3.633-6.188-5.378-19.721-16.272-6.96-19.879-30.863-38.037-4.17-3.168-9.31-4.133-14.9-3.9-14.337.589-17.149-15.418-33.793-18.591-19.593-3.735-23.493-21.974-39.75-22.393-9.649-.248-22.2-6.456-22.746,2.581-.146,2.417,1.541,3.474,3.446,4.652,8.607,5.327,20.585-1.874,39.087,17.011a16.633,16.633,0,0,1,5.176,12.533c-.1,3,.9,6.047,1.623,9.034,1.881,7.761,14.322,8.9,13.419.518-.283-2.633-2.355-4.383-3.6-6.531-1.163-2-1.1-4.932.35-6.2,2.069-1.818,6.117-1.025,8.013.6,1.825,1.563,3.727,3.072,5.4,4.757,5.556,5.6,5.748,11.153.228,16.415a54.918,54.918,0,0,1-8.385,6.087c-8.009,5.126-13.037,2.839-18.592-1.841-7.614-6.417-9.269-15.307-13.217-28.5-1.694-5.662-9.069-9.4-11.666-4.113-1.884,3.832-.717,8.5,10.283,31.907,1.334,2.839,2.735,5.757,5.713,7.642,9.953,6.3,14.03,6.6,17.277,12.859,10.172,19.611,20.236,24.115,24.515,37.093h11.6c.341-2.031,1.921-4.064,5.265-5.369,9.093-3.55,5.791-15.658,14.867-12.084,6.462,2.543,3.026,9.341,8.647,16.1.383.461.747.911,1.107,1.358h14.992c-2.857-6.927-6.738-16.334-17.536-25.291-6.779-5.624-15.194-3.726-18.4-11.024-1.056-2.4,2.251-7.745,2.993-9.67,2.862-7.433-6.535-9.6-10.667-5.267-2.784,2.923-5.562,5.849-8.4,8.735-5.257,5.354-.186,9.862,7.119,13.371,11.934,5.732-2.37,24.831-10.72,10.224-4.025-7.04-5.992-8.4-13.927-19.175-2.7-3.662,1.45-7.869,5.722-10.044,8.558-4.36,11.24-9.153,13.825-12.572,4.572-6.049,12.582-7.046,18.887-2.5,2.669,1.923,4.9,4.31,7.41,6.412,7.019,5.879,1.086,14.371,11.033,20.807,6.562,4.246,10.777,11.006,14.4,13.331,5.548,3.561,9.509,7.787,9.754,14.288.082,2.188,1.36,5.456,2.475,8.377H1791.2c-1.409-8.065-3.327-12.108,1.2-16.513,3.263-3.172,5.972-6.783,8.98-10.162,5.638-6.335,13.506-.364,12.019,5.555-1.177,4.685-9.752,7.09-11.2,16.025-.11.68-.1-.692.246,5.1h11.218a19.6,19.6,0,0,1,1.587-6.034c2.788-5.941,9.941-7.659,17.19-1.014,2.9,2.655,5.22,4.98,7.121,7.048H1851.4c-8.905-12.711-11.12-15-16.083-17.836-16.647-9.529-14.392-19.651-31-25.747-9.39-3.447-17.088-6-19.755-13.553-.446-1.267-2.472-8.713-4.87-12.427-5.692-8.813-16.081-9.424-26.327-22.383-3.145-3.978-7.516-6.706-13.627-5.947-16.224,2.016-17.092-6.053-31.034-13.541-8.356-4.487-13.8-7.956-27.677-17.1-11.789-7.772-6.012-6.067-20.794-18.744a3.452,3.452,0,0,1-.756-.967h-23.447A10.592,10.592,0,0,0,1635.095,73.74Z" transform="translate(-292.858 -65.963)" fill="#e1dedd"/>
    <path id="Path_2771" data-name="Path 2771" d="M455.506,72.425c-2.763-.814-6.518.512-7.506,2.233-1.033,1.8-.164,5.036,2.191,6.6,4.907,3.253,9.444,3.282,12.056,4.754,19.132,10.781,22.369,12.441,21.984,18.073-1.07,15.661-13.515,22.5-9.271,34.309,4.765,13.256,4.49,12.123,5.637,13.8,5.984,8.738,13.814,6.508,22.159,15.684,4.706,5.176,7.31,11.3,10.67,17.079a5.775,5.775,0,0,1-.749,6.689c-2.139,2.694-7.231,2.1-10.053-.206-10.078-8.22-4.947-27.93-39.054-22.782-4.969.745-5.754,7.957.388,8.731,5.962.751,11.994.219,15.422,2.318,7.811,4.781,3.57,9.576,14.529,18.664,3.516,2.916,7.394,4.757,12.4,4.5,3.1-.157,6.233.107,9.333-.07,5.257-.3,9.517,3.926,12.711,7.608a26.131,26.131,0,0,1,2.713,3.807h13.345c-4.149-8.1-10.24-10.313-15.315-16.371-12.837-15.323,1.578-21.392-14.273-34.666-3.773-3.16-6.994-7.347-9.251-8.607-15.76-8.808-21.426-9.082-18.578-29.45.479-3.416,3.478-7.231,4.92-9.248,1.266-1.771,2.829-3.811,5.619-4.2,3.429-.482,5.7.449,7.208,2.577,7.327,10.312-14.816,13.638-3.636,23.118,4.067,3.447,3.425.41,20.509,15.889,7.33,6.641,9.4,10.418,16.867,12.936,14.825,5,19.037,1.17,29.438,4.679,8.281,2.793,11.38,12.327,16.077,16.955,18.069,17.8,28.092,10.321,38.918,20.322a20.174,20.174,0,0,1,4.432,6.069h29.307a22.422,22.422,0,0,0-9.128-3.547c-9.843-1.594-13.937-7.545-21.084-13.645-11.64-9.933-22.411-3.929-35.775-19.537-7.439-8.688-22-22.334-34.118-19.745-13.477,2.879-18.282-4.82-30.43-15.174-6.865-5.85-15.04-9.326-9.927-18.672,2.513-4.595,4.1-6.65.663-12.045-3.738-5.871-17.982-10.126-23.416-17.447-2.714-3.656-10.674-8.379-14.2-10.072-5.151-2.474-6.315-8.065-1.8-11.324,3.129-2.261,6.557-4.438,7.835-7.04H470.391C467.259,70.492,463.535,74.791,455.506,72.425Z" transform="translate(-292.858 -65.963)" fill="#e1dedd"/>
    <path id="Path_2772" data-name="Path 2772" d="M339.9,93.144c-.5,15.278,13.02,19.785,18.085,34.467,2.41,6.983,11.712,8.441,12.183,2.075.5-6.779-6.519-18.2-14.071-24.814-4.194-3.672-8.578-10.641-3.712-13.534,5.058-3.007,9.668,1.934,13.769,5.948,8.238,8.064,12.045,12.567,12.966,19.239,3.148,22.788-.557,24.387,5.91,29.981,3.575,3.093,7.018,5.356,9.316,7.513,5.408,5.077-.876,9.733-5.76,8.47-7.845-2.03-11.471-7.015-16.292-12.64-8.3-9.679-19.649-4.212-25.006-17.621C340.4,115,332.8,119.24,330.324,103.639c-1.583-9.962-3.37-13.627-13.472-19.651C300.5,74.233,295.6,74.275,293.113,73.625V84.091c4.034-.612,6.922,1.787,10.007,3.267,10.845,5.2,16.844,11.889,18.749,25.227,1.381,9.67-17.158,20.857-11.446,31.751,11.523,21.976,21.1,14.732,30.4,27.89,5.908,8.357,4.71,6.633,15.225,10.391,43.959,15.71,11.779,4.34,52.29,26.138,3.109,1.673,4.606,3.368,5.419,5.456h31.633c-.041-.082-.082-.161-.123-.245-2.692-5.521-7.833-7.7-13.99-7.81-12.4-.214-27.862-10.612-33.489-18.2a16.456,16.456,0,0,0-11.134-6.467c-9.914-1.582-26.211-7.394-33.45-14.612-10.835-10.8-9.009-6.906-22.432-15.3-10.553-6.6-10.116-18.253-4.943-23.446,2.956-2.967,8.43-1.84,9.751,3.2,1.248,4.766.1,8.287,3.811,11.763,4.91,4.6,14.591,6.987,23.831,14.882,9.742,8.323,20.107,16.234,33.552,12.387,6.535-1.87,9.837,1,10.921,6.182,2.849,13.612,15.495,17.941,30.32,21.1,10.934,2.331,16.585-1.96,27.807-1.582,9.78.33,12.583-14.326-14.2-9.006-16.914,3.359-31.613-2.19-33.744-17.113-2.38-16.666-22.718-18.907-26.872-40.438-3.284-17.023.15-14.185,1.758-20.091.827-3.036.971-5.928-2.433-7.95a36.8,36.8,0,0,0-4.928-2.739C375.177,94.614,375,83.655,358.6,81.866c-15.725-1.714-13.1-9.057-26.641-13.541a49.742,49.742,0,0,1-5.774-2.361H304.944c5.485,2.509,12.67,6.684,24.2,12.56C335.674,81.847,340.126,86.158,339.9,93.144Z" transform="translate(-292.858 -65.963)" fill="#e1dedd"/>
    <path id="Path_2773" data-name="Path 2773" d="M604.53,228.927c-9.941-1.7-7.981-.917-19.944-10.5-7.01-5.616-8.739-5.212-19.973-5.891-15.092-.912-13.59-8.808-18.741-17.294-3.749-6.176-15.1-2.739-10.762,5.736,2.953,5.774,7.64,10.51,11.961,15.46a13.877,13.877,0,0,0,2.579,1.865c11.661,8.142,18.737-1.4,29.429,9.825.51.536,1.006,1.033,1.495,1.51h28.865a18.3,18.3,0,0,0-1.97-.516C606.525,228.924,605.488,229.091,604.53,228.927Z" transform="translate(-292.858 -81.387)" fill="#e1dedd"/>
    <path id="Path_2774" data-name="Path 2774" d="M736.843,213.7c-17.114-14.769-28.276-17.161-27.959-28.353a9.526,9.526,0,0,0-1.127-3.51c-1.986-4.895-10.455-3.6-11.188,1.644-.879,6.286,3.221,10.075-1.583,18.031-4.891,8.1-2.774,10.69.541,15.424,2.751,3.928,4.563,8.082,2.709,11.043h11.895c2.378-4.027,2.2-5.64-2.176-11.721-2.822-3.921-6.678-8.4-1.968-11.369,3.326-2.1,6.406-.461,8.942,2.4,10.925,12.333,13.507,14.02,9.3,20.688H738.06C739.086,225.191,743.472,219.424,736.843,213.7Z" transform="translate(-292.858 -79.733)" fill="#e1dedd"/>
    <path id="Path_2775" data-name="Path 2775" d="M657.855,191.842c-18.7-10.129-12.98-11-21.158-17-11.135-8.17-20.022-3.25-29.893-14.992-7.187-8.549-20.69-13.488-27.928-19.308-10.16-8.169-9.155-14.711-18.746-23.587-3.2-2.958-6.625-5.791-9.322-9.079a30.831,30.831,0,0,0-17.616-11.165c-7.508-1.7-11.534-6.762-27.833-23.491-3.663-3.76-12.147-3.794-13.567.94a6.633,6.633,0,0,0,3.344,7.59c7.284,4.125,13.386,9.4,19.276,14.878,12.136,11.292,22.982,13.047,29.8,18.84,2.213,1.881,11.879,10.612,14.026,13.8,1.141,1.693.987,5.467-.22,6.665-2.264,2.249-7.692,1.158-9.752-1.049-9.973-10.683-8.64-11.695-12.133-12.944-7.8-2.789-12.117,3.969-4.475,11.415,10.335,10.07,15.949,14.826,23.166,13.964,6.665-.8,11.022-3.977,19.075,2.363,4.8,3.782,14.513,10.173,18.443,13.349,8.409,6.8,12.657,12.884,22.99,15.74,9.267,2.562,11.527,3.806,23.968,14.363,14.3,12.135,27.793,9.276,34.889,21.641h13.2a14.535,14.535,0,0,1-3.133-5.578C680.2,194.612,672.846,199.962,657.855,191.842Z" transform="translate(-292.858 -66.526)" fill="#e1dedd"/>
    <path id="Path_2776" data-name="Path 2776" d="M314.96,227.746c-7.927,4.738-10.781,3.16-21.847.751v5.275h52.731c-1.989-.873-4.1-1.8-6.37-2.8C331.161,227.312,323.92,222.392,314.96,227.746Z" transform="translate(-292.858 -85.524)" fill="#e1dedd"/>
    <path id="Path_2777" data-name="Path 2777" d="M509.511,234.762h7.919C514.592,232.692,511.38,233.055,509.511,234.762Z" transform="translate(-292.858 -86.513)" fill="#e1dedd"/>
    <path id="Path_2778" data-name="Path 2778" d="M1101.052,218.462c-16-2.445-25.617-19.579-43.73-25.6-3.955-1.314-8.943,2.659-6.335,6.109,4.366,5.777,10.579,6.817,15.451,10.877,14.556,12.132,21.871,11.976,22.829,19.851h10.663a6.03,6.03,0,0,1,6.414,0h12.081C1115.526,224.506,1111.034,219.987,1101.052,218.462Z" transform="translate(-292.858 -81.451)" fill="#e1dedd"/>
    <path id="Path_2779" data-name="Path 2779" d="M945.807,71.212c11.354,7.456,7,12.179,14.434,18.956,26.291,23.958,29.033,27.719,40.121,31.9,15.818,5.969,9.842,12.776,16.669,16.355.966.507,2.013,1.2,3.448.241a37.094,37.094,0,0,1,5.13-2.34c6.6-3.033,11.473,2.277,8.164,6.978-2.623,3.726-8.39,4.322-6.974,10.868.694,3.211,4.54,5.5,14.289,10.864,10.317,5.677,14.522-1.182,34.961,8.788,11.049,5.389,12.4,13.371,24.56,17.457,6.328,2.125,16.2,3.729,22.044,9.92a47.593,47.593,0,0,1,9.123,13.009H1144.8c-1.185-3.076-1.857-6.079-4.516-9.091-2.986-3.383-11.937-12.48-16.17-15.525-11.432-8.222-21.89-5.747-28.351-14.709s-12.6-9.558-23.035-12.855c-18.521-5.851-23.747-2.143-29.671-7.613-4.405-4.068-.714-9.074,3.966-9.063,5.98.013,11.747,2.838,31.935,8.07,8.466,2.195,16.073-.282,21.985,9.116,5.705,9.069,11.691,9.355,18.287,11.867,21.6,8.228,20.676,24.466,41.158,23.991.922-.021,13.864,1.941,18.607.673,11.221-3,11.966-2.956,16.181,6.77a6.555,6.555,0,0,0,10.292,2.051c11.335-9.161,17.928-7.236,43.926,4.126a13.454,13.454,0,0,1,3.557,2.192h13.787c.3-2.286,1.326-5.116,3.405-9.211,3.84-7.565.312-14.529-6.02-18.5-16.21-10.152-6.12-14.9-18.139-25.308-2.521-2.183-5.474-4.131-7.386-6.677-8.254-11-16.427-2.578-30.994-18.714-14.865-16.465-27.107-5.362-39.782-26.227-4.368-7.189-6.738-15.671-26-28.412-5.762-3.811-9.856-8.337-9.38-15.2h-10.653l.006.013c2.565,6.132-4.328,9.534-9.114,5.408a24.929,24.929,0,0,1-4.533-5.421h-13.829c1.706,2.034,3.723,4.478,6.216,7.625,8.733,11.019,15.532,8.512,22.37,9.853,16.434,3.225,30.153,21.607,36.009,32.983,5.028,9.767,17.479,16.578,27.54,19.317,8.38,2.281,13.83,7.574,21.616,14.225,7.474,6.385,13.46,7.352,22.091,12.511,17.4,10.4,7.58,20.639,20.377,27.074a42.137,42.137,0,0,1,7.86,4.812c2.164,1.939,2.425,5.758.874,7.5-5.368,6.032-11.884-2.84-19.747-4.895a25.8,25.8,0,0,1-4.876-2.123c-2.881-1.439-4.624-3.494-4.468-6.588.1-1.989-.08-3.99.041-5.977.614-10.053-14.107-10.479-25.314-19.9-9.438-7.932-13.645-13.507-22.7-15.4-16.379-3.419-18.853-14.216-31.67-16.346-7.367-1.225-12.806,6.367-4.315,10.126,5.772,2.556,8.861,2.024,16.867,9.271,9.7,8.778,14.51,5.068,21.77,10.317,6.808,4.921,15.649,14.165,20.731,17.241,2.234,1.353,5.041,1.945,7.489,3.055,14.052,6.372,1.546,17.549-8.906,13.217-14.452-5.99-11.249-21.427-33.69-26.44-12.7-2.836-13.424-8.723-17.613-11.118-11.711-6.7-30.368-14.3-26.389-26.109,2.572-7.628,11.132-3.236,16.789-6.564,1.425-.838,3.176-2,3.576-3.3,1.421-4.627-2.913-8.019-8.144-6.579-5.839,1.607-8.726,4.489-16.029,3.046-6.306-1.247-10.743,2.324-9.215,7.779,3.382,12.081-1.741,18.486,10.126,27.043,5.456,3.935,18.127,7.493,26.936,17.722,10.243,11.893,19.543,6.035,26.674,11.5,5.425,4.156,4.028,8.891-2.919,9.536-3.76.349-7.138-.965-10.687-1.54-22.673-3.682-18.389-17.421-41.88-24.874-16.306-5.175-10.755-16.731-21.933-18.676-4.085-.711-8.493,1.834-21.735-1.81-27.587-7.593-29.106-7.712-35.866-12.3-11.572-7.851-17.291-5.4-24.779-10.819-9.338-6.759-21.621-12.362-32.583-21.847-4.588-3.969-8.483-8.553-12.932-12.656a27.364,27.364,0,0,1-7.419-10.568,22.118,22.118,0,0,0-6.782-9.331H941.1C941.669,68.354,943.708,69.833,945.807,71.212Z" transform="translate(-292.858 -65.963)" fill="#e1dedd"/>
    <path id="Path_2780" data-name="Path 2780" d="M1214.431,234.843h10.349C1221,233.942,1217.032,233.515,1214.431,234.843Z" transform="translate(-292.858 -86.595)" fill="#e1dedd"/>
    <path id="Path_2781" data-name="Path 2781" d="M938.224,189.164c-1.852-2.362-1.174-6.358,1-8.479a46.293,46.293,0,0,0,3.9-4.326c1.853-2.329-.31-6.013-3.772-6.08a25.381,25.381,0,0,0-5.4.437c-16.425,3.288-15.632-14.561-32.911-10.289-3.716.92-13.272-2.4-16.94-4.459-14.425-8.08-19.315-2.89-28.641-11.079a20.51,20.51,0,0,0-4.326-2.878,4.717,4.717,0,0,0-5.957.819c-4.47,4.155,5.261,8.511,9.8,12.551,5.75,5.125-7.035,14.118-17.733-1.352-4.526-6.544-7.74-14.739-15.568-9.886-5.972,3.7-8.834,8.751-17.645,9.01-7.448.22-21.3-4.352-26.675-11.212-6.883-8.789-5.78-17.536-15.587-24.864-2.176-1.626-18.021-11.666-18.515-11.92-11.387-5.845-18.328,10.71-7.351,13.647,5.544,1.484,16.361-.36,24.1,14.521,3.432,6.593,5.714,20.961,20.479,25.386,13.541,4.057,22.23,2.2,28.671,11.47,3.293,4.741,12.546,13.192,13.995,23.421,1.377,9.725,10.8,11.265,17.407,15.484,6.849,4.373,9.031,6.949,14.357,9.595h57.046q-1.414-1.622-2.943-3.3c-6.388-6.984-14.95-7.393-23.353-2.132-11.534,7.223-21.732-1.71-42.746-13.633-5.85-3.319-9.582-7.931-10.724-13.9-2.02-10.575-6.734-12.107-11.488-17-10.495-10.8,1.866-16.912,7.347-10.47a35.969,35.969,0,0,1,4.215,5.9c5.669,10.342,15.8,3.321,27.032,10.606,20.063,13.011,30.106,7.911,38.435,18.85,11.285,14.824,22.63,10.7,20.817,3.779-.8-3.051-3.416-4.285-9.878-10.257-8.557-7.909-16.872-9.214-35.484-14.667-8.624-2.527-10.064-8.138-5.93-10.406,4.874-2.675,7.024.126,15.227,2.736,17.427,5.543,24.949,4.938,34.47,12.9,2.9,2.422,7.849,4.586,11.257,14.173,3.246,9.134,12.665,14.315,16.505,17.742a51.73,51.73,0,0,1,8.141,9.079h12.711C960.212,206.893,948.166,201.846,938.224,189.164Z" transform="translate(-292.858 -70.431)" fill="#e1dedd"/>
    <path id="Path_2782" data-name="Path 2782" d="M923.187,225.068c-1.641,1.889-2.637,3.887-.927,6.1.628.812,1.225,1.694,1.866,2.527h14.708c-1.27-1.418-2.576-2.815-3.869-4.228C931.785,225.992,928.41,223.929,923.187,225.068Z" transform="translate(-292.858 -85.446)" fill="#e1dedd"/>
    <path id="Path_2783" data-name="Path 2783" d="M1736.46,79.8c12.545,9.553,27.256-.348,42.728,19,2.907,3.634,7.094,8.019,17.012,10.649,10.321,2.737,18.876,5.11,15.688,13.579-2.294,6.091-4.873,12.127,2.275,13.246,7.591,1.189,4.247-11.434,11.309-11.12,1.878.082,3.644.667,4.326,2.414,4.8,12.307-3.4,2.834,12.084,27.886,8.575,13.877,21.034-.729,36.413,8.333,1.39.819,2.718,1.736,4.181,2.437,10.191,4.877,9.872-10.736,17.916-8.872,5.314,1.231,7.525,7.806.568,14.7-2.881,2.855-5.3,6.108-4.749,9.875a44.677,44.677,0,0,0,6.029,16.321c4.067,6.82,7.039,11.965,9.353,15.973h12.521c-1.248-1.82-2.368-3.633-3.349-5.313-13.091-22.446-13.466-22.9-13.114-26.1.672-6.133,8.074-5.626,10.34-2.468,6.834,9.528,12.281,25.663,21.938,33.881h32.156c-.739-6.455-8.089-4.993-13.73-5.192-9.9-.348-15.918-8.109-20.729-16.784-12.6-22.717-19.992-18.442-21.456-29.887-1.682-13.163-14.48-11.353-15.506-21.757-2.079-21.09-15.416-23.821-18.142-34.753a8.073,8.073,0,0,0-2.248-3.493c-10.233-10.061-18.831-10.041-25.816-11.7-12.349-2.93-21.931,11.651-12.781,20.692,10.621,10.495,12.668,10.727,15.293,19.818,1.978,6.852,4.872,12.347,13.7,11.875,5.921-.316,5.652-5.885,2.038-9.9-7.9-8.788-4.77-15.041-15.57-20.728a22.145,22.145,0,0,1-4.576-3.215c-1.966-1.8-2.437-4.932-1.263-6.494,1.967-2.621,7.421-3.321,11.654-.2,7.807,5.751,14.325,10.369,16.207,18.241,1.213,5.077,5.759,6.449,11.36,23.208,2.628,7.862-5.625,11.306-12.821,9.512-15.806-3.941-25.318.924-29.528-9-4.97-11.721-3.861-19.9-19.865-30.481-7.216-4.769-18.805-13.063-27.746-14.592-10.676-1.826-14.908-12.049-22.484-15.979-5.971-3.1-12.378-5.559-18.688-8.125-3.854-1.567-18.894.332-15.264-8.235a11.259,11.259,0,0,1,.527-1.068h-30.062C1716.683,71.158,1726.7,72.364,1736.46,79.8Z" transform="translate(-292.858 -65.963)" fill="#e1dedd"/>
    <path id="Path_2784" data-name="Path 2784" d="M1841.332,181.789c-15.653-10.658-11.152-19.85-21.676-23.075-8.7-2.666-19.549-.567-19.856-.389-5.487,3.182-5,7.876-.32,9.854,3.379,1.43,7.236.955,11.177,1.019,5.472.09,7.276,2.551,9.943,7.156,8.786,15.176,21.98,18.585,30.606,30.679,4.3,6.035,8.215,12.289,12.58,18.288h11.128c-5.688-11.022-12.664-22.015-16.553-26.256C1854.987,195.386,1846.173,185.086,1841.332,181.789Z" transform="translate(-292.858 -77.073)" fill="#e1dedd"/>
    <path id="Path_2785" data-name="Path 2785" d="M648.756,116.542c3.922,5.312,6.333,11.065,6.226,17.607-.143,8.734,11.226,11.8,19.119,23.643,2.841,4.263,10.457,8.287,14.759,4.585,9.749-8.389-18.554-20.65-21.634-32.62-3.371-13.1-4.588-11.758-11.114-21.508-10.771-16.091-15.2-12.083-27.654-24.018-10.977-10.519-10.016-7.748-16.122-11.539C608,70,604.2,67.809,600.825,65.963h-24.1c8.061,4.943,19.494,5.557,42.288,25.612C631.01,102.126,635.3,98.314,648.756,116.542Z" transform="translate(-292.858 -65.963)" fill="#e1dedd"/>
    <path id="Path_2786" data-name="Path 2786" d="M357.367,70.315c6.078,2.5,19.537,4.1,29.668,13.623,2.441,2.293,13.08,10.18,17.089,13.72,3.568,3.151,6.907,6.5,10.415,9.707.953.87,2.443,1.353,3.2,2.312,7.572,9.609,7.915,15.022,19.7,16.15,11.135,1.066,14.112,5.56,14.541,12.29.731,11.482.367,15.318,2.732,18.49,6.693,8.978,17.359,2.133,13.162-5.224-15.308-26.841,4.943-31.957,3.164-42.155-1.4-8-6.87-10.285-14.1-12.407-19.763-5.8-15.563-14-28.274-21.515a26.715,26.715,0,0,1-9.207-9.344H406.744c.091.243.182.479.27.737,3.334,9.72,10.365,12.7,12.346,14.417,16.483,14.266,17.1,22.205,30.9,24.526,13.84,2.327,9.323,16.16-.92,13.253-16.963-4.814-24.425-16.584-34.534-26.5-2.137-2.1-4.962-3.643-7.16-5.7-8.9-8.319-11.4-13.251-18.481-15.857-5.643-2.076-10.33-3.589-14.113-4.879H351.6C352.505,67.665,354.3,69.051,357.367,70.315Z" transform="translate(-292.858 -65.963)" fill="#e1dedd"/>
    <path id="Path_2787" data-name="Path 2787" d="M1953.777,71.136c10.106,11.543,12.472-.114,30.418,18.607a8.925,8.925,0,0,1,2.676,7.517c-.494,4.105-.143,10.4,3.987,12.856V79.565a10.966,10.966,0,0,1-9.126-7.742c-.56-1.568,1.372-5.034,3.348-5.752.114-.041.234-.07.35-.109h-13.957a7.832,7.832,0,0,1-8.536,1.044,5.075,5.075,0,0,1-1.377-1.044h-13.425A50.448,50.448,0,0,1,1953.777,71.136Z" transform="translate(-292.858 -65.963)" fill="#e1dedd"/>
    <path id="Path_2788" data-name="Path 2788" d="M438.935,67.149a2.549,2.549,0,0,0,1.378-1.186h-7.971A6.214,6.214,0,0,0,438.935,67.149Z" transform="translate(-292.858 -65.963)" fill="#e1dedd"/>
    <path id="Path_2789" data-name="Path 2789" d="M359.454,206.35c-15.005-4.426-24.651-5.79-29.267-14.877-6.945-13.676-15.615-6.472-24.4-22.736-2.894-5.356-6.181-11.555-12.67-12.232,0,17.6-.75,12.182,2.916,14.78,5.311,3.764,2.53,9.569-2.916,9.848v9.7c3.755-.787,7.6-1.347,11.241-2.426,4.014-1.189,7.39-.018,10.7,1.563,3.85,1.84,3.962,7.2.036,8.747-2.445.965-5.343,1.913-8.124.9-3.123-1.134-5.676.335-8.433.968-2.016.463-2.373,2.084-2.667,3.453-1.6,7.459,9.276,8.846,18.141,4.351,12.618-6.4,22.472,1.779,28.852,3.753a170.462,170.462,0,0,1,29.792,13.07h22.941c-3.484-1.392-7.927-2.845-12.927-6.035C377.024,215.583,368.754,209.094,359.454,206.35Z" transform="translate(-292.858 -76.965)" fill="#e1dedd"/>
    <path id="Path_2790" data-name="Path 2790" d="M1958.691,192.743c-5.42-8.85-11.165-10.1-16.086-18.02-2.044-3.289-3.993-7.048-9.594-7.744-5.661-.7-9.56,5.952-.245,13.757,11.249,9.426,12.741,13.983,18.414,21.731,8.56,11.691,17.029,7.25,30.716,10.626,3.957.976,6.305,4.388,5.731,7.643a49.318,49.318,0,0,1-1.845,5.774h5.076V204.8c-6.626-.888-10.9-2.957-16.809-3.478C1967.061,200.708,1962.094,198.3,1958.691,192.743Z" transform="translate(-292.858 -78.26)" fill="#e1dedd"/>
    <path id="Path_2791" data-name="Path 2791" d="M1974.725,104.485c-1.516-9.438-7.226-14.354-16.72-17.506-12.65-4.2-11.47-8.218-18.654-14.163-4.909-4.063-11.661.347-8.877,5.98,1.554,3.147,9.3,11.028,19.136,15.551,25.148,11.564,4.292,28.433,41.248,38.849V122.026C1981.55,121.96,1976.05,112.728,1974.725,104.485Z" transform="translate(-292.858 -66.618)" fill="#e1dedd"/>
    <path id="Path_2792" data-name="Path 2792" d="M1967.752,167.628c-9.869-7.291-18.934.334-14.163,4.225,5.985,4.881,9.606,6.123,14.992,12.276,6.663,7.613,10.53,6.783,22.277,7.7V181.38a36.139,36.139,0,0,1-4.8-.7C1976.136,177.933,1973.082,171.566,1967.752,167.628Z" transform="translate(-292.858 -78.041)" fill="#e1dedd"/>
    <path id="Path_2793" data-name="Path 2793" d="M293.113,138.857a37.5,37.5,0,0,0,4.586-2.374c4.156-2.922,5.841-7.347,8.5-11.182,7.62-11,.461-23.168-13.084-26.742v11.194c5.409,2.406,7.206,9,3.457,13.073C292.335,127.428,293.113,120.156,293.113,138.857Z" transform="translate(-292.858 -69.948)" fill="#e1dedd"/>
    <path id="Path_2794" data-name="Path 2794" d="M1980.713,155.829c-3.534,3.663.234,8.4,4.543,9.758a37.771,37.771,0,0,0,5.6.93V153.1C1985.941,153.213,1983.617,152.818,1980.713,155.829Z" transform="translate(-292.858 -76.65)" fill="#e1dedd"/>
    <path id="Path_2795" data-name="Path 2795" d="M935.8,86.793c3.371.96,7.463-2.015,6.37-4.454-.83-1.852-1.657-3.814-4.053-4.972a19.713,19.713,0,0,1-10.487-11.4H914.209C918.582,74.008,919.384,82.12,935.8,86.793Z" transform="translate(-292.858 -65.963)" fill="#e1dedd"/>
    <path id="Path_2796" data-name="Path 2796" d="M1031.537,87.808c13.327,10.342,21.385,6.767,28.951,13.268,15.42,13.251,10.668,8.2,26.551,14.692,2.451,1,4.6,4.516,4.121,6.3-.573,2.13-5,4.951-9.845,3.287-24.887-8.55-23.758-13.954-40.816-19.825-10.19-3.508-21.764-12.078-31.452-16.521a34.786,34.786,0,0,1-12.752-9.968c-2.955-3.713-6.685-6.943-9.957-10.469-1.815-1.956-7.864-3.83-10.337-.478-1.082,1.467-1.808,3.192-.505,4.857,7.446,9.509,9.5,8.739,14.043,14a50.215,50.215,0,0,0,12.582,10.191c26.354,15.706,16.624,11.181,26.454,15.215,7.8,3.2,15.911,5.849,22.744,10.7a36.6,36.6,0,0,0,8.212,4.329c15.962,6,45.636,14.585,43.34-.5a60.019,60.019,0,0,1-.827-6.952c-.584-17.418-22.33-9.976-31.857-27.343-5.33-9.718-17.569-.062-36.18-16.443a11.843,11.843,0,0,1-4.161-7.036,3.927,3.927,0,0,1,.731-3.153h-7.168a5.176,5.176,0,0,1-.255.46,5.807,5.807,0,0,1-8.829,1.288,15.116,15.116,0,0,1-1.784-1.748h-12.7C1010.341,82.944,1016.361,76.032,1031.537,87.808Z" transform="translate(-292.858 -65.963)" fill="#e1dedd"/>
    <path id="Path_2797" data-name="Path 2797" d="M1063.71,75.746c18.908,1.482,13.323,12.489,27.027,19.342,15.555,7.78,23.67,12.544,37.564,11.973,5.983-.245,9.98-7.7-2.383-10.893-7.449-1.921-26.476-2.1-37.2-18.771-2.342-3.64-7.4-6.586-11.209-11.434h-15.533a5.984,5.984,0,0,1-4.49.021l-.054-.021h-16.1c1.068,1.026,2.143,2.215,3.273,3.386C1050.789,75.749,1052.415,74.86,1063.71,75.746Z" transform="translate(-292.858 -65.963)" fill="#e1dedd"/>
    <path id="Path_2798" data-name="Path 2798" d="M824.222,229.779c-1.244.85-2.24,1.922-1.58,3.766.073.2.161.386.239.582h13.927a44.944,44.944,0,0,0-8.134-5.539C826.761,227.581,825.43,228.952,824.222,229.779Z" transform="translate(-292.858 -85.878)" fill="#e1dedd"/>
    <path id="Path_2799" data-name="Path 2799" d="M626.212,65.963h-1.828A10.109,10.109,0,0,0,626.212,65.963Z" transform="translate(-292.858 -65.963)" fill="#e1dedd"/>
    <path id="Path_2800" data-name="Path 2800" d="M665.612,83.481c-5.552-.062-7.223-5.176-10.339-7.876-3.566-3.09-7.652-5.356-13.02-4.859-3.273.3-5.06,1.908-5.2,4.8-.25,5.325,10.122,7.843,16.464,12.424,13.273,9.587,7.626,11.569,19.726,23.194,5.811,5.583,4.239,8.809,7.708,16.414,3.774,8.276,12.7,10.228,18.525,22.183,5.2,10.681,19.468,2.867,9.45-8.35-11.418-12.785-25.3-21.717-15.63-31.43.83-.832,1.015-2.254,1.246-3.442.734-3.756-2.36-6.481-6.552-5.824-4.8.753-8.64,2.542-12.217-1.363-4.965-5.419,2.343-14.857,12.342-11.919,6.028,1.772,11.03,5.17,16.407,7.947,10.325,5.33-3.832,16.321,2.98,26.736,4.883,7.465,9.3,15.749,19.854,12.955a21.426,21.426,0,0,1,6.733-.184c5.459.377,8.463,8.478-2.42,10.6-10.517,2.049-10.609,8.795-12.8,17.792.217,13.814,13.43,20.129,23.492,25.359,15.01,7.8,8,18.428,12.782,25.576h15.485c-6.176-5.969-7.615-13.7-8.342-22.34-.863-10.258-7.222-9.869-15.57-12.762-14.23-4.931-21.793-18.956-9.627-26.578,1.473-.924,3.549-1.96,5.816-.61,4.077,2.428,3.649,3.16,3.649,6.409.57.075-.751,2.353-.508,4.663.341,3.229,3.286,5.682,7.151,6.176,12.843,1.642,13.191,8.269,24.382,7.559a41.353,41.353,0,0,1,6.644.517c10.056,1.014,23.831,19.773,15.574,24.336-8.517,4.7-12.443-8.358-14.592-11.553-3.532-5.248-13.9-3.062-11.26,4.759a33.69,33.69,0,0,0,7.118,11.993c4.824,5.289,11.344,3.627,16.448,5.129a6.245,6.245,0,0,1,3.367,2.3h10.939a24.168,24.168,0,0,1-.07-5.564c.57-5.791,2.461-6.212.977-14.935-1.654-9.722-12.843-25.369-24.527-26.6-14.972-1.579-25.035-3.778-31.657-15.88-7.407-13.537-6.661-24.674-20.278-25.973-9.768-.932-13.708-.019-16.641-5.818-1.505-2.976-1.22-6.023-1.345-9.1-.564-13.756,11.215-18.6,7.793-24.877a32.9,32.9,0,0,1-2.467-6.967c-.935-3.339,1.962-6.47,5.835-6.475,6.008-.006,6.54,6.613,7.855,8.8,4.129,6.856,4.291,7.4,11.922,9.816,7.32,2.315,8.529,5.169,18.824,12.08,10.8,7.249,12.288,11.386,15.812,20.988,3.665,9.986,19.065,17.585,27.546,11.2,5.919-4.454,1.451-8.786-5.693-9.541-15.906-1.683-5.671-11.925-22.449-24.784-18.374-14.08-19.266-16.317-26.45-19.311a31.633,31.633,0,0,1-15.984-15.311H710.9a13.972,13.972,0,0,1,1.314,3.217c2.595,8.9,3.959,12.17,1.241,15.915-2.289,3.154-7.925,2.822-10.218-.6-5.53-8.248-.434-11.142-4.382-17.4a5.569,5.569,0,0,0-.942-1.133h-6.155a4.252,4.252,0,0,0-1.172,2.025c-1.206,4.795-.261,7.833-4.563,9.2-3.96,1.263-9.714-4.937-8.17-10.906.028-.109.062-.215.092-.323H663.024C672.2,72.061,675.958,83.6,665.612,83.481Z" transform="translate(-292.858 -65.963)" fill="#e1dedd"/>
    <path id="Path_2801" data-name="Path 2801" d="M1472.207,230.773c-2.726.285-4.314,1.836-4.788,3.66h19.134C1479.252,231.749,1476.33,230.342,1472.207,230.773Z" transform="translate(-292.858 -86.184)" fill="#e1dedd"/>
    <path id="Path_2802" data-name="Path 2802" d="M1281.139,234.846h5.884A5.646,5.646,0,0,0,1281.139,234.846Z" transform="translate(-292.858 -86.598)" fill="#e1dedd"/>
    <path id="Path_2803" data-name="Path 2803" d="M1296.034,212.59c-6.786-4.837-17.068-1.531-13.037,5.353,1.841,3.143,5.526,3.5,11.266,6.406,4.525,2.289,6.791,4.387,8.265,7.55h32.1a47.743,47.743,0,0,0-11.323-3.674C1308.752,225.406,1306.777,220.247,1296.034,212.59Z" transform="translate(-292.858 -83.65)" fill="#e1dedd"/>
    <path id="Path_2804" data-name="Path 2804" d="M1412.734,201.884c-.98-6.033-9.663-8.572-12.467-1.44-2.7,6.859,3.982,13.443-4.438,19.7-4.136,3.074-9.527,5.457-13.837,9.992h18.474a21.464,21.464,0,0,1,9.888,0h23.46c-4.151-1.839-9.861-4.559-18.61-8.6C1405.342,216.981,1413.979,209.541,1412.734,201.884Z" transform="translate(-292.858 -81.888)" fill="#e1dedd"/>
    <path id="Path_2805" data-name="Path 2805" d="M1838.993,73.06c2.642,2.825,8.183,6.472,13.417,7.068,14.843,1.693,29.984,6.022,37.968,17.23,9.877,13.866,14.687,24.4,24.321,27.2,2.916.847,6.086,1.747,9.312.4,2.016-.842,3.7-1.883,3.926-3.932.44-4.014-4.306-5.134-8.676-7.586-8.828-4.952-10.127-7.639-15.753-17.143-5.154-8.706-7.949-7.658-17.877-16.334-10.677-9.329-17.326-4.406-36.056-12.387a13.471,13.471,0,0,1-2.823-1.614h-26.281C1825.979,67.694,1831.968,65.549,1838.993,73.06Z" transform="translate(-292.858 -65.963)" fill="#e1dedd"/>
    <path id="Path_2806" data-name="Path 2806" d="M1797.033,86.022c2.14,3.2,8.28,3.672,10.3-1.033,1.9-4.415-.413-13.035-2.954-19.025h-11.346C1796.513,74.491,1791.027,77.052,1797.033,86.022Z" transform="translate(-292.858 -65.963)" fill="#e1dedd"/>
    <path id="Path_2807" data-name="Path 2807" d="M1769.915,68.978c2.409,1.817,5.06,3.561,8.676,3.042,2.128-.3,3.164-1.173,3.4-3.1a6.922,6.922,0,0,0-.263-2.959h-15.355A37.228,37.228,0,0,0,1769.915,68.978Z" transform="translate(-292.858 -65.963)" fill="#e1dedd"/>
    <path id="Path_2808" data-name="Path 2808" d="M1153.582,75.213c30.238,17.279,15.067,33.072,42.7,40.1,11.746,2.987,10.825,4.5,20.524,14.692a36.312,36.312,0,0,0,5.4,5.141c3.114,2.151,6.516,1.174,7.6-2.072.909-2.722-.916-3.881-10-15.966-3.845-5.117-7.283-7.745-19.46-11.244-20.3-5.832-9.472-23.53-35.812-37.175a16.008,16.008,0,0,1-3.847-2.724h-15.054C1146.572,69.186,1148.368,72.233,1153.582,75.213Z" transform="translate(-292.858 -65.963)" fill="#e1dedd"/>
    <path id="Path_2809" data-name="Path 2809" d="M1229.353,98.6a17.634,17.634,0,0,1,5.635-1.168c7.663-.439,12.811,3.659,17.411,8.166,5.45,5.34,7.076,15.277,20.022,15.772,8.548.328,21.438,6.727,27.737,10.267,33.444,18.8,51.343,4.792,55.945,24.8a13.137,13.137,0,0,0,7.17,9.04c9.607,4.992,15.14,8.4,23.012,11.933,5.951,2.668,12.8-3.371,5.864-8.185-3.923-2.724-6.872-3.111-11-5.282-12.18-6.4-12.331-8.854-16.091-18.081-5.14-12.614-16.128-9.081-25.681-10.8-40.716-7.349-34.492-16.7-63.611-23.807-11.241-2.745-8.69-12.2-26.205-19.388-11.561-4.742-11.585-9.934-19.038-19.8-1.677-2.222-3.059-4.239-4.218-6.092h-13.325c6.962,13.763,12.076,13.549,13.509,17.312,2.545,6.687-3.5,8.772-8.667,6.887-6.7-2.444-9.291-6.992-18.87-24.2h-14.584c3.189,3.857,6.947,10,12.867,20.937C1202.343,96.336,1216.211,104.062,1229.353,98.6Z" transform="translate(-292.858 -65.963)" fill="#e1dedd"/>
    <path id="Path_2810" data-name="Path 2810" d="M1250.133,79.822c8.975,6.988,16.342,4.4,22.958,13.482,9.012,12.37,17.407,8.537,32.583,19.016,10.04,6.934,17.707,8.646,30.288,12.764,5.056,1.654,10.044,2.718,11.955-1.783.634-1.493-.991-4.229-3.55-5.364a48.763,48.763,0,0,0-7.395-2.412c-24.538-6.431-21.852-12.795-39.869-19.516-9.608-3.584-17.92-9.1-18.429-18.221a38.486,38.486,0,0,0-2.577-11.825h-10.454c2.555,3.868,3.7,8.147-.739,10.41-1.95.995-3.937.085-5.294-1.213a36.142,36.142,0,0,1-7.542-9.2h-12.21C1243.626,72.387,1246.626,77.092,1250.133,79.822Z" transform="translate(-292.858 -65.963)" fill="#e1dedd"/>
    <path id="Path_2811" data-name="Path 2811" d="M884.662,128.366c2.549.778,4.733.172,6.946-.456,22.954-6.514,19.978,28.04,49.781,27.766,8.64-.079,9.5,3.878,17.03,9.711,13.824,10.711,30.9,4.885,29.932-4.828-1.1-11.024-10.047-14.5-7.713-30.9,1.271-8.939-7.83-14.19-14.54-19.89-9.323-7.919-13.879-14.33-24.018-14.379-12.86-.063-18.155,1.14-26.577-5.4-13.109-10.174-4.736-17.1-27.847-23.653-3.7-1.048-9.185,2.7-5.978,6.67,3.03,3.756,9.909,4.521,13.54,11.15,6.5,11.872,18.654,12.286,22.777,25.443,3.317,10.589,13.336,15.741,21.975,21.362,19.494,12.683,3.4,21.507-7.684,11.027-21.131-19.99-22.214-20.716-24.768-26.352-1.949-4.3-3.709-8.625-7.747-12.067-8.074-6.884-15.186-3.287-23.219,1.495-8.607,5.123-2.654,11.607,1.09,18.485C879.086,126.21,881.593,127.431,884.662,128.366Zm49.408-13.622c-8.832-5.533-5.294-11.438,1.529-11.342,7.505,2.451,3.985-.388,20.4,11.421,8.3,5.973,13.8,10.174,13.744,19.462-.065,11.011,4.1,14.887,6.079,19.975,1.882,4.832-3.493,9.08-8.941,5.459-11.375-7.559-5.118-16.461-9.115-25.77C953.345,123.649,946.771,122.7,934.07,114.744ZM890.225,110.1c3.763-.019,5.725,1.648,5.744,4.883.042,7.122-11.308,6.5-11.28.008C884.705,111.348,886.095,110.119,890.225,110.1Z" transform="translate(-292.858 -65.988)" fill="#e1dedd"/>
    <path id="Path_2812" data-name="Path 2812" d="M1045.893,215.657c3.259.6,10.436,5.874,13.993.666,2.459-3.6-2.2-7.381-6.754-8.749-20.113-6.049-7.948-17.608-19.6-25.516-21.53-14.607-15.206-7.35-29.781-33.749-1.452-2.629-2.672-5.388-5.627-7.094-3.135-1.81-6.646-.391-7.053,2.877-.729,5.85,3.5,9.505,8.3,19.025,5.528,10.972-.047,21.128-11.637,25.082-20.081,6.852-20.783.529-30.628-2.438-3.134-.944-5.754.885-5.967,3.739-.648,8.655,12.818,6.528,18.994,20.779,4.017,9.268,14.454,6.053,22.579,10.384a35.269,35.269,0,0,1,4.118,2.554h15.038a56.589,56.589,0,0,0-5.735-4.791c-8.56-6.408-12.826-10.184-19.795-10.115-6.677.067-11.865-7.049-4.265-10.022,7.524-2.943,18.842-1.743,24.16,6.431,1.8,2.769,4.116,5.92,6.928,6.524,8.792,1.89,8.043-9.078,3.02-13.095-5.252-4.2-9.341-6.222-10.321-10.336-1.536-6.442,8.019-9.59,14.782-3.112a40.088,40.088,0,0,1,10.9,17.138,17.6,17.6,0,0,1,.356,3.687c.747,4.238-3.309,8.035-5.128,13.8a10.177,10.177,0,0,0-.425,3.893h12.054C1038.108,217.969,1039.737,214.532,1045.893,215.657Z" transform="translate(-292.858 -74.967)" fill="#e1dedd"/>
    <path id="Path_2813" data-name="Path 2813" d="M525.468,76.385a64,64,0,0,0,8.408,8.263c5.364,4.7,14.941-1.087,5.829-10.086-3.432-3.389-7.279-5.8-8.613-8.6H517.606a9.587,9.587,0,0,0,.764,2.24C520.026,71.545,523.255,73.556,525.468,76.385Z" transform="translate(-292.858 -65.963)" fill="#e1dedd"/>
    <path id="Path_2814" data-name="Path 2814" d="M556.981,97.673c2.209,2.368,4.268,4.851,6.579,7.137,2.157,2.133,4.846,3.883,6.8,6.137,16.807,19.41,17.809,24.177,27,26,6.663,1.321,11.881,4.1,15.18,9.753,3.823,6.551,9.857,10.718,18.688,11.214a27.748,27.748,0,0,1,7.193,1.686c4.8,1.63,7.78,5.045,10.529,8.685,5.05,6.687,3.391,6.137,19.529,14.9,2.344,1.273,4.925,2.209,7.4,3.293,7.314,3.2,14.915-10.074,3.679-13.339-3.888-1.13-12.6-.427-16.448-6.506-21.242-33.551-33.12-7.321-44.076-30.217-6.614-13.823-19.271-5.578-28.089-18.33-6.17-8.922-12.279-12.621-19.445-19.4-8.454-8-6.554-12.071-5.012-22.054.389-3.434-1.778-6.769-5.127-10.67H548.148c5.871,7.437,5.861,9.852,6.437,14.677C555.11,85.045,550.606,90.842,556.981,97.673Z" transform="translate(-292.858 -65.963)" fill="#e1dedd"/>
    <path id="Path_2815" data-name="Path 2815" d="M1444.971,93.683c1.858,2.44,3.593,5.275,7.559,6.047,1.989.388,3.464.306,4.853-.9,3.424-2.97,2.074-5.864-.694-10-6.794-10.145-18.107-15.126-25.593-22.868h-16.59a15.116,15.116,0,0,0,1.715,2.612C1426.045,80.754,1437.423,83.769,1444.971,93.683Z" transform="translate(-292.858 -65.963)" fill="#e1dedd"/>
    <path id="Path_2816" data-name="Path 2816" d="M1643.041,220.652c-7.755-3.161-6.327-8.612-12.805-13.314-5.449-3.956-13.464,1.184-10,6.9,3.94,6.493,13.727,11.587,18.511,14.7a21.132,21.132,0,0,1,3.09,2.417h30.71c-1.328-1.6-2.753-3.144-4.185-4.681C1659.872,217.564,1652.328,224.439,1643.041,220.652Z" transform="translate(-292.858 -83.109)" fill="#e1dedd"/>
    <path id="Path_2817" data-name="Path 2817" d="M1241.568,140.082c0,8.184,7.315,15.889,14.482,21.119,11.5,8.394,24.486,4.255,31.7,9.908,1.872,1.468,3.243,3.849,2.685,5.318-3.57,9.4-18.668-4.754-23.633.79-1.454,1.623-.758,3.337.306,4.818,2.4,3.343,5.991,5.142,10.233,6.455,8.472,2.622,14.08-3.912,23.684,2.122,6.463,4.062,12.132,11.288,20.158,13.587,18.274,5.234,25.187,12.23,29.635,3.424,1.29-2.555.247-4.645-2.666-6.869-2.453-1.873-5.465-1.988-8.233-2.289a57.752,57.752,0,0,1-20.376-5.986c-17.2-8.788-13.251-16.556-20.505-23.679-8.86-8.7-25.041-10.272-33.147-13.843-15.4-6.783-8.655-17.6-15.4-27.1-3.057-4.3-9-14.338-15.425-13.842-4.182.005-6.487,2.971-4.663,6.183C1233.907,126.379,1241.566,128.777,1241.568,140.082Z" transform="translate(-292.858 -71.684)" fill="#e1dedd"/>
    <path id="Path_2818" data-name="Path 2818" d="M1608.953,206.868c-5.195-12.576-15.817-19.156-26.122-20.238-7.343-.772-15.368-5.1-10.924-9.88,2.113-2.275,6.364-1.524,9.857-.69,6.862,1.636,10.26-7.394-3.784-10.251-17.632-3.585-9.214-18.278-26.71-23.663-4.241-1.306-7.344-4.4-7.044-9.135.909-14.354-13.413-13.105-13.249-4.369a4.376,4.376,0,0,0,.013,1.116c4.029,15.048-2.319,16.7,14.172,21.656,10.116,3.041,15.784,15.814,15.609,25.364-.053,2.879.823,5.8,1.517,8.653,3.4,14,30.317,4.208,35.844,25.087a21.2,21.2,0,0,0,6.576,10.425h17.571C1617.1,217.7,1611.861,213.905,1608.953,206.868Z" transform="translate(-292.858 -72.693)" fill="#e1dedd"/>
    <path id="Path_2819" data-name="Path 2819" d="M763.918,71.133c17.117,8.473,11.88,12.837,25.835,20.008,2.981,1.531,5.525,3.724,8.248,5.638,4.647,3.266,7.146,7.845,9.594,12.411,3.6,6.715,9.084,6.114,17.314,14.19,4.247,4.169,9.232,8.611,14.323,4.673a5.37,5.37,0,0,0,.82-8.035,25.008,25.008,0,0,0-5.8-4.577c-20.867-12.47-16.8-23.7-34.313-30.795-12.706-5.148-12.372-12.932-21.786-18.685H755.995A33.512,33.512,0,0,0,763.918,71.133Z" transform="translate(-292.858 -65.963)" fill="#e1dedd"/>
    <path id="Path_2820" data-name="Path 2820" d="M1500.519,84.67c.21,2.435.587,4.863.708,7.3.161,3.268,2.431,5.517,6.144,5.751,5.714.361,9.907-1.506,16.307,3.214,12.451,9.184,25.191.767,30.4,13.049.619,1.46,1.936,7.367,4.288,11.024,4.275,6.648,16.851,2.956,13-5.516-1.438-3.165-6.532-9.217-8.873-11.958-6.683-7.829-8.262-10.443-16.551-11.012-11.649-.8-14.369-3.88-19.964-5.93-18.435-6.75-9.927-19.509-30.8-21.73-6.692-.024-8.851,1.765-8.374,5.848C1487.436,80.118,1500.069,79.43,1500.519,84.67Z" transform="translate(-292.858 -66.323)" fill="#e1dedd"/>
    <path id="Path_2821" data-name="Path 2821" d="M821.277,85.143a37.642,37.642,0,0,0,4.338,4.474c11.194,8.32,8.853,17.786,26.327,21.463,3.95.831,6.517-.479,9.119-2.28,5.025-3.477,1.192-8.672-3.657-8.935-1.689-.092-3.392.032-5.084-.038-4.771-.2-7.586-3.126-4.922-8.026,1.978-3.638,3.3-5.574-.128-8.2-4.486-3.439-13.625,4.052-16.033-8.879a18.162,18.162,0,0,0-1.476-8.757H816.974C822.791,69.1,816.713,80.408,821.277,85.143Z" transform="translate(-292.858 -65.963)" fill="#e1dedd"/>
    <path id="Path_2822" data-name="Path 2822" d="M808.1,70.228c.488-.842,1.471-3.091,3.381-4.265H796.85C796.031,73.17,803.707,77.8,808.1,70.228Z" transform="translate(-292.858 -65.963)" fill="#e1dedd"/>
    <path id="Path_2823" data-name="Path 2823" d="M1384.08,213.007c5.558-4.378,3.98-9.662-2.743-12.226-21.737-8.291-28.67-17.225-40.584-14.027-2.7.723-7.916-1.274-13.769-2.471-8.747-1.788-9.8,3.062-7.846,5.343,5.321,6.214,19.811,6.355,25.164,7.22,7.624,1.23,14.027,5.207,21.175,7.565,5.1,1.683,5.607,5.973,1.78,9.509-5.319,4.91-11.091,8.337-11.126,14.7H1369.2C1373.8,218.775,1373.052,221.695,1384.08,213.007Z" transform="translate(-292.858 -80.369)" fill="#e1dedd"/>
    <path id="Path_2824" data-name="Path 2824" d="M406.012,142.293c8.01,14.7,21.179,7.242,22.3,16.8.965,8.208.7,14.363,4.792,21.026,3.991,6.5,15.262,6.649,15.235-1.125-.008-2.625-.048-2.6-2.93-5.85-8.639-9.745-1.781-16.318-6.47-26.073-2.343-4.873-7.519-3.364-14.57-4.551-7.9-1.33-9.495-7.334-10.849-12.055-1.27-4.427-4.887-10.193-9.661-8.517-2.426.851-4.256,4.27-3.471,6.587A85.431,85.431,0,0,0,406.012,142.293Z" transform="translate(-292.858 -72.739)" fill="#e1dedd"/>
    <path id="Path_2825" data-name="Path 2825" d="M607.148,100.8c-21.69-18.836-22.262-18.767-25.1-18.322-4.839-.031-6.9,2.513-5.207,6.461,1.986,4.634,12.736,11.3,17.889,16.958,4.711,5.169,9.743,9.573,17.248,11.738,14.618,4.215,15.315,13.873,21.037,20.149,1.668,1.829,6.278,2.656,8.04,1.538a5.307,5.307,0,0,0,1.8-7.293C624.842,103.175,622.8,114.394,607.148,100.8Z" transform="translate(-292.858 -68.001)" fill="#e1dedd"/>
    <path id="Path_2826" data-name="Path 2826" d="M1939.408,117.222a24.888,24.888,0,0,0,2.653,4.591c1.99,2.794,7.177,4.18,9.929,2.459,4.192-2.622,5.284-4.507,2.789-8.4-12.258-19.118-28.164-17.027-35.314-37.368-3.018-8.587-14.87-11.45-22.929-11.659-2.694.433-4.776.578-5.547,3.217-2.046,7,13.925,5.122,19.174,14.881,1.069,1.987,2.57,3.8,3.608,5.795C1921.785,106.176,1934.343,105.344,1939.408,117.222Z" transform="translate(-292.858 -66.073)" fill="#e1dedd"/>
    <path id="Path_2827" data-name="Path 2827" d="M1156.714,230.77c-.173.643.377,2.041,1.164,3.254h28.3c-6.484-3.57-13.26-5.773-23.678-6.587C1159.4,227.195,1157.269,228.7,1156.714,230.77Z" transform="translate(-292.858 -85.776)" fill="#e1dedd"/>
    <path id="Path_2828" data-name="Path 2828" d="M1880.206,191.573c-3.163-2.189-6.524-4.173-9.923-6.075a16.316,16.316,0,0,0-3.932-1.026c-5.717-.173-7.235,4.638-3.654,7.743a26.546,26.546,0,0,0,4.013,3.3,16.019,16.019,0,0,1,6.746,6.864c7.431,15.042,11.042,21.706,13.388,26.309h12.432c-2.239-3.645-5.189-8.464-9.047-14.954C1884.175,203.548,1887.117,196.355,1880.206,191.573Z" transform="translate(-292.858 -80.44)" fill="#e1dedd"/>
    <path id="Path_2829" data-name="Path 2829" d="M1308.443,165.723a18.689,18.689,0,0,0,12.018,3.522c1.436-.025,2.815.248,16.853,2.387.162-.823,4.059,1.347,6.37-2.8.965-1.734.136-3.4-1.689-4.521-1.357-.83-2.7-1.928-4.224-2.241-7.053-1.445-13.843.291-25.022-4.9-21.235-9.854-17.52-7.654-20.439-9.022-8.278-3.879-8.511-4.511-16.862-8.075-4.96-2.117-12.315,2.24-6.269,7.609C1274.825,152.7,1295.074,155.416,1308.443,165.723Z" transform="translate(-292.858 -74.966)" fill="#e1dedd"/>
    <path id="Path_2830" data-name="Path 2830" d="M846.63,71.931c5.425,1.976,11.521-.355,14.507,9.385a45.326,45.326,0,0,0,1.754,5.258c2.032,4.552,7.234,8.338,12.05,7.817,3.584,0,6.136-.409,7.712-3.8,1.361-2.929-2.07-5.467-5.551-7.9-8.547-5.97-10.219-11.761-10.368-16.724H844.3C842.773,68.016,843.931,70.949,846.63,71.931Z" transform="translate(-292.858 -65.963)" fill="#e1dedd"/>
    <path id="Path_2831" data-name="Path 2831" d="M1931.365,153.569c21.05,1.683,21.289-1.948,31.714-1.327a27.331,27.331,0,0,0,4.234-.025c7.1-.694,6.547-10.39-2.017-10.97-8.58-.581-14.965,3.845-23.037,2.889-12.755-1.512-15.143.121-21.76-1.141-1.9-.363-4.381.62-6.275,1.514-2.579,1.217-2.783,4.415-.758,6.372C1918.5,155.746,1924.93,154.522,1931.365,153.569Z" transform="translate(-292.858 -75.19)" fill="#e1dedd"/>
    <path id="Path_2832" data-name="Path 2832" d="M478.41,222.965c-7.19.552-16.89,1.835-18.067,2.458-4.591,2.43-5.535,5.233-2.548,8.045h37.338C491.63,227.275,485.6,222.459,478.41,222.965Z" transform="translate(-292.858 -85.219)" fill="#e1dedd"/>
    <path id="Path_2833" data-name="Path 2833" d="M883.688,206.805c-5.8-3.429-12.58-1.2-25.72-10.747a34.246,34.246,0,0,0-7.337-4.151c-3.734-1.487-7.27.44-7.29,4.559,1.112,1.6.232,2.888,11.416,9.018,17.592,9.642,20.835,11.308,27.277,9.7C886.984,213.944,887.951,209.323,883.688,206.805Z" transform="translate(-292.858 -81.302)" fill="#e1dedd"/>
    <path id="Path_2834" data-name="Path 2834" d="M1822.227,99.6c7.539.987,9.512-6.349,10.639-12.955-.814-1.771-1.547-3.575-2.462-5.3-1.856-3.51-9.978-4.232-11.423.983C1817.35,88.21,1815.436,98.716,1822.227,99.6Z" transform="translate(-292.858 -67.529)" fill="#e1dedd"/>
    <path id="Path_2835" data-name="Path 2835" d="M1606.83,72.77c6.587.192,11.8-2.3,16.289-6.242a2.591,2.591,0,0,0,.463-.565h-21.633C1600.34,68.953,1602.476,72.644,1606.83,72.77Z" transform="translate(-292.858 -65.963)" fill="#e1dedd"/>
    <path id="Path_2836" data-name="Path 2836" d="M855.559,137.782a85.059,85.059,0,0,0,8.033,4.5c4.272,2.129,10.689-.3,8.151-4.308-2.863-4.521-6.682-8.655-12.612-10.2C851.712,125.856,850.672,134.643,855.559,137.782Z" transform="translate(-292.858 -73.51)" fill="#e1dedd"/>
    <path id="Path_2837" data-name="Path 2837" d="M1468.018,126.179c7.555.006,9.123-9.549-.609-13.86C1456.905,107.667,1454.663,125.467,1468.018,126.179Z" transform="translate(-292.858 -71.553)" fill="#e1dedd"/>
    <path id="Path_2838" data-name="Path 2838" d="M890.042,146.505c-2.249.2-3.629,3.295-2.768,5.246,1.68,3.8,5.325,4.608,8.4,4.868,3.268,0,5.648.025,7.2-2.775,1.181-2.132-.554-3.238-1.68-4.528C898.3,146,894.109,146.146,890.042,146.505Z" transform="translate(-292.858 -75.822)" fill="#e1dedd"/>
    <path id="Path_2839" data-name="Path 2839" d="M1628.338,86.408c-.068-3.165-3.877-6.53-7.266-6.416-3.278.109-6.927,3.306-6.78,5.94.168,3.018,4.233,6.427,7.716,6.471A6.025,6.025,0,0,0,1628.338,86.408Z" transform="translate(-292.858 -67.706)" fill="#e1dedd"/>
    <path id="Path_2840" data-name="Path 2840" d="M1488.136,193.9c-.038-2.505-4.248-6.331-7.114-6.463-2.2-.1-5.22,2.75-5.235,4.948C1475.737,199.844,1488.229,200.2,1488.136,193.9Z" transform="translate(-292.858 -80.865)" fill="#e1dedd"/>
    <path id="Path_2841" data-name="Path 2841" d="M1071.928,231.665a6.669,6.669,0,0,0-4.6,2.888h9.451C1075.46,232.942,1073.481,231.63,1071.928,231.665Z" transform="translate(-292.858 -86.305)" fill="#e1dedd"/>
    <path id="Path_2842" data-name="Path 2842" d="M563.547,195.83c-3.607-.009-4.688.893-4.594,3.832.086,2.661,2.131,4.194,5.547,4.156,3.293-.037,4.39-.949,4.385-3.648S566.883,195.838,563.547,195.83Z" transform="translate(-292.858 -81.899)" fill="#e1dedd"/>
  </g>
</svg>
