<svg xmlns="http://www.w3.org/2000/svg" width="888.284" height="2978.556" viewBox="0 0 888.284 2978.556">
  <g id="Group_3990" data-name="Group 3990" transform="translate(0.013 -1910.325)" opacity="0.5">
    <g id="Group_3986" data-name="Group 3986" transform="translate(-0.014 1910.325)">
      <g id="Group_2109" data-name="Group 2109" transform="translate(0.271 887.581)">
        <path id="Path_10" data-name="Path 10" d="M126.746,126.746A126.745,126.745,0,0,0,0,0V126.746Z" transform="translate(126.746 633.73) rotate(90)" fill="#f0f4f8"/>
        <path id="Path_11" data-name="Path 11" d="M213.373,163.373A63.373,63.373,0,0,0,150,100V226.746A63.373,63.373,0,0,0,213.373,163.373Z" transform="translate(483.729 406.984)" fill="#f0f4f8"/>
        <path id="Path_12" data-name="Path 12" d="M163.373,163.373A63.373,63.373,0,0,0,100,100V226.746A63.373,63.373,0,0,0,163.373,163.373Z" transform="translate(597.102 406.984)" fill="#f0f4f8"/>
        <path id="Path_13" data-name="Path 13" d="M200,163.373a63.373,63.373,0,1,1,126.746,0v63.373H263.373A63.373,63.373,0,0,1,200,163.373Z" transform="translate(306.983 406.984)" fill="#f0f4f8"/>
        <path id="Path_14" data-name="Path 14" d="M463.373,100A63.373,63.373,0,0,0,400,163.373H526.746A63.373,63.373,0,0,0,463.373,100Z" transform="translate(-146.508 470.357)" fill="#f0f4f8"/>
        <path id="Path_3222" data-name="Path 3222" d="M63.373,63.373A63.373,63.373,0,0,0,126.746,0H0A63.373,63.373,0,0,0,63.373,63.373Z" transform="translate(761.268 379.873)" fill="#f0f4f8"/>
        <path id="Path_15" data-name="Path 15" d="M463.373,150A63.373,63.373,0,0,0,400,213.373H526.746A63.373,63.373,0,0,0,463.373,150Z" transform="translate(-146.508 356.984)" fill="#f0f4f8"/>
        <path id="Path_3223" data-name="Path 3223" d="M63.373,63.373A63.373,63.373,0,0,0,126.746,0H0A63.373,63.373,0,0,0,63.373,63.373Z" transform="translate(761.268 443.246)" fill="#f0f4f8"/>
        <rect id="Rectangle_41" data-name="Rectangle 41" width="126" height="127" rx="63" transform="translate(127 507)" fill="#f0f4f8"/>
        <path id="Path_16" data-name="Path 16" d="M726.746,163.373a63.373,63.373,0,1,1-126.746,0V100h63.373A63.373,63.373,0,0,1,726.746,163.373Z" transform="translate(-600 406.984)" fill="#f0f4f8"/>
        <path id="Path_18" data-name="Path 18" d="M226.746,263.373a63.373,63.373,0,0,0-126.746,0v63.373h63.373A63.373,63.373,0,0,0,226.746,263.373Z" transform="translate(533.729 180.238)" fill="#f0f4f8"/>
        <rect id="Rectangle_48" data-name="Rectangle 48" width="127" height="127" transform="translate(507 380)" fill="#f0f4f8"/>
        <path id="Path_19" data-name="Path 19" d="M463.373,313.373A63.373,63.373,0,0,0,526.746,250H400A63.373,63.373,0,0,0,463.373,313.373Z" transform="translate(-146.508 130.238)" fill="#f0f4f8"/>
        <path id="Path_3225" data-name="Path 3225" d="M63.373,0A63.373,63.373,0,0,0,0,63.373H126.746A63.373,63.373,0,0,0,63.373,0Z" transform="translate(761.268 569.991)" fill="#f0f4f8"/>
        <path id="Path_20" data-name="Path 20" d="M463.373,263.373A63.373,63.373,0,0,0,526.746,200H400A63.373,63.373,0,0,0,463.373,263.373Z" transform="translate(-146.508 243.611)" fill="#f0f4f8"/>
        <path id="Path_3224" data-name="Path 3224" d="M63.373,0A63.373,63.373,0,0,0,0,63.373H126.746A63.373,63.373,0,0,0,63.373,0Z" transform="translate(761.268 506.619)" fill="#f0f4f8"/>
        <path id="Path_21" data-name="Path 21" d="M563.373,200A63.373,63.373,0,0,0,500,263.373H626.746A63.373,63.373,0,0,0,563.373,200Z" transform="translate(-373.254 243.611)" fill="#f0f4f8"/>
        <path id="Path_22" data-name="Path 22" d="M713.373,263.373A63.373,63.373,0,0,0,650,200V326.746A63.373,63.373,0,0,0,713.373,263.373Z" transform="translate(-650 180.238)" fill="#f0f4f8"/>
        <path id="Path_23" data-name="Path 23" d="M663.373,263.373A63.373,63.373,0,0,0,600,200V326.746A63.373,63.373,0,0,0,663.373,263.373Z" transform="translate(-536.627 180.238)" fill="#f0f4f8"/>
        <path id="Path_24" data-name="Path 24" d="M226.746,363.373a63.373,63.373,0,1,1-126.746,0V300h63.373A63.373,63.373,0,0,1,226.746,363.373Z" transform="translate(533.729 -46.508)" fill="#f0f4f8"/>
        <rect id="Rectangle_60" data-name="Rectangle 60" width="127" height="127" transform="translate(507 253)" fill="#f0f4f8"/>
        <path id="Path_25" data-name="Path 25" d="M426.746,426.746A126.745,126.745,0,0,0,300,300V426.746Z" transform="translate(80.238 -46.508)" fill="#f0f4f8"/>
        <path id="Path_26" data-name="Path 26" d="M526.746,363.373a63.373,63.373,0,1,0-126.746,0v63.373h63.373A63.373,63.373,0,0,0,526.746,363.373Z" transform="translate(-146.508 -46.508)" fill="#f0f4f8"/>
        <path id="Path_3226" data-name="Path 3226" d="M0,63.373a63.373,63.373,0,1,0,126.746,0V0H63.373A63.373,63.373,0,0,0,0,63.373Z" transform="translate(761.268 633.365)" fill="#f0f4f8"/>
        <rect id="Rectangle_64" data-name="Rectangle 64" width="126" height="127" rx="63" transform="translate(127 253)" fill="#f0f4f8"/>
        <path id="Path_27" data-name="Path 27" d="M726.746,426.746A126.745,126.745,0,0,0,600,300V426.746Z" transform="translate(-600 -46.508)" fill="#f0f4f8"/>
        <path id="Path_28" data-name="Path 28" d="M226.746,463.373a63.373,63.373,0,1,0-126.746,0v63.373h63.373A63.373,63.373,0,0,0,226.746,463.373Z" transform="translate(533.729 -273.254)" fill="#f0f4f8"/>
        <path id="Path_29" data-name="Path 29" d="M200,463.373a63.373,63.373,0,1,1,126.746,0v63.373H263.373A63.373,63.373,0,0,1,200,463.373Z" transform="translate(306.983 -273.254)" fill="#f0f4f8"/>
        <path id="Path_30" data-name="Path 30" d="M300,463.373a63.373,63.373,0,1,1,126.746,0v63.373H363.373A63.373,63.373,0,0,1,300,463.373Z" transform="translate(80.238 -273.254)" fill="#f0f4f8"/>
        <path id="Path_31" data-name="Path 31" d="M526.746,463.373a63.373,63.373,0,1,0-126.746,0v63.373h63.373A63.373,63.373,0,0,0,526.746,463.373Z" transform="translate(-146.508 -273.254)" fill="#f0f4f8"/>
        <path id="Path_3227" data-name="Path 3227" d="M0,63.373a63.373,63.373,0,1,0,126.746,0V0H63.373A63.373,63.373,0,0,0,0,63.373Z" transform="translate(761.268 760.11)" fill="#f0f4f8"/>
        <ellipse id="Ellipse_2" data-name="Ellipse 2" cx="63" cy="63" rx="63" ry="63" transform="translate(127 127)" fill="#f0f4f8"/>
        <path id="Path_32" data-name="Path 32" d="M726.746,463.373a63.373,63.373,0,1,1-126.746,0V400h63.373A63.373,63.373,0,0,1,726.746,463.373Z" transform="translate(-600 -273.254)" fill="#f0f4f8"/>
        <path id="Path_33" data-name="Path 33" d="M100,626.746A126.745,126.745,0,0,0,226.746,500H100Z" transform="translate(533.729 -500)" fill="#f0f4f8"/>
        <rect id="Rectangle_82" data-name="Rectangle 82" width="127" height="127" rx="63" transform="translate(507 0)" fill="#f0f4f8"/>
        <path id="Path_34" data-name="Path 34" d="M300,500A126.745,126.745,0,0,0,426.746,626.746V500Z" transform="translate(80.238 -500)" fill="#f0f4f8"/>
        <path id="Path_35" data-name="Path 35" d="M400,563.373a63.373,63.373,0,0,0,63.373,63.373V500A63.373,63.373,0,0,0,400,563.373Z" transform="translate(-83.135 -500)" fill="#f0f4f8"/>
        <path id="Path_3228" data-name="Path 3228" d="M63.373,63.373A63.373,63.373,0,0,0,0,0V126.746A63.373,63.373,0,0,0,63.373,63.373Z" transform="translate(761.268 126.6)" fill="#f0f4f8"/>
        <path id="Path_36" data-name="Path 36" d="M563.373,500A63.373,63.373,0,0,0,500,563.373H626.746A63.373,63.373,0,0,0,563.373,500Z" transform="translate(-373.254 -436.627)" fill="#f0f4f8"/>
        <path id="Path_37" data-name="Path 37" d="M726.746,563.373a63.373,63.373,0,1,1-126.746,0V500h63.373A63.373,63.373,0,0,1,726.746,563.373Z" transform="translate(-600 -500)" fill="#f0f4f8"/>
        <path id="Path_10-2" data-name="Path 10" d="M126.746,126.746A126.745,126.745,0,0,0,0,0V126.746Z" transform="translate(633.729 886.93)" fill="#f0f4f8"/>
        <path id="Path_14-2" data-name="Path 14" d="M63.373,63.373A63.373,63.373,0,0,0,126.746,0H0A63.373,63.373,0,0,0,63.373,63.373Z" transform="translate(633.729 633.438) rotate(90)" fill="#f0f4f8"/>
        <path id="Path_15-2" data-name="Path 15" d="M63.373,63.373A63.373,63.373,0,0,0,126.746,0H0A63.373,63.373,0,0,0,63.373,63.373Z" transform="translate(570.357 633.438) rotate(90)" fill="#f0f4f8"/>
        <rect id="Rectangle_41-2" data-name="Rectangle 41" width="126.122" height="127.077" rx="63" transform="translate(633.477 760.476) rotate(90)" fill="#f0f4f8"/>
        <path id="Path_16-2" data-name="Path 16" d="M0,63.373a63.373,63.373,0,1,1,126.746,0v63.373H63.373A63.373,63.373,0,0,1,0,63.373Z" transform="translate(633.729 886.929) rotate(90)" fill="#f0f4f8"/>
        <path id="Path_19-2" data-name="Path 19" d="M63.373,0A63.373,63.373,0,0,0,0,63.373H126.746A63.373,63.373,0,0,0,63.373,0Z" transform="translate(443.611 633.438) rotate(90)" fill="#f0f4f8"/>
        <path id="Path_20-2" data-name="Path 20" d="M63.373,0A63.373,63.373,0,0,0,0,63.373H126.746A63.373,63.373,0,0,0,63.373,0Z" transform="translate(506.984 633.438) rotate(90)" fill="#f0f4f8"/>
        <path id="Path_21-2" data-name="Path 21" d="M63.373,63.373A63.373,63.373,0,0,0,126.746,0H0A63.373,63.373,0,0,0,63.373,63.373Z" transform="translate(506.984 760.183) rotate(90)" fill="#f0f4f8"/>
        <path id="Path_22-2" data-name="Path 22" d="M0,63.373a63.373,63.373,0,0,0,63.373,63.373V0A63.373,63.373,0,0,0,0,63.373Z" transform="translate(506.984 950.302) rotate(90)" fill="#f0f4f8"/>
        <path id="Path_23-2" data-name="Path 23" d="M0,63.373a63.373,63.373,0,0,0,63.373,63.373V0A63.373,63.373,0,0,0,0,63.373Z" transform="translate(506.984 886.929) rotate(90)" fill="#f0f4f8"/>
        <path id="Path_26-2" data-name="Path 26" d="M0,63.373a63.373,63.373,0,1,0,126.746,0V0H63.373A63.373,63.373,0,0,0,0,63.373Z" transform="translate(380.238 633.438) rotate(90)" fill="#f0f4f8"/>
        <path id="Path_3221" data-name="Path 3221" d="M0,63.373a63.373,63.373,0,1,0,126.746,0V0H63.373A63.373,63.373,0,0,0,0,63.373Z" transform="translate(761.268 380.165) rotate(-90)" fill="#f0f4f8"/>
        <rect id="Rectangle_64-2" data-name="Rectangle 64" width="126.122" height="127.077" rx="63" transform="translate(380.277 760.476) rotate(90)" fill="#f0f4f8"/>
        <path id="Path_27-2" data-name="Path 27" d="M0,0A126.745,126.745,0,0,0,126.746,126.746V0Z" transform="translate(380.238 886.929) rotate(90)" fill="#f0f4f8"/>
        <path id="Path_31-2" data-name="Path 31" d="M0,63.373a63.373,63.373,0,0,0,126.746,0V0H63.373A63.373,63.373,0,0,0,0,63.373Z" transform="translate(253.492 633.438) rotate(90)" fill="#f0f4f8"/>
        <ellipse id="Ellipse_2-2" data-name="Ellipse 2" cx="63.061" cy="63.061" rx="63.061" ry="63.061" transform="translate(253.2 760.476) rotate(90)" fill="#f0f4f8"/>
        <path id="Path_32-2" data-name="Path 32" d="M0,63.373a63.373,63.373,0,1,1,126.746,0v63.373H63.373A63.373,63.373,0,0,1,0,63.373Z" transform="translate(253.492 886.929) rotate(90)" fill="#f0f4f8"/>
        <path id="Path_36-2" data-name="Path 36" d="M63.373,63.373A63.373,63.373,0,0,0,126.746,0H0A63.373,63.373,0,0,0,63.373,63.373Z" transform="translate(126.746 760.183) rotate(90)" fill="#f0f4f8"/>
        <path id="Path_37-2" data-name="Path 37" d="M0,63.373a63.373,63.373,0,1,1,126.746,0v63.373H63.373A63.373,63.373,0,0,1,0,63.373Z" transform="translate(126.746 886.929) rotate(90)" fill="#f0f4f8"/>
      </g>
      <path id="Path_12777" data-name="Path 12777" d="M63.373,0a63.373,63.373,0,0,1,63.373,63.373H0A63.373,63.373,0,0,1,63.373,0Z" transform="translate(253.762 570.7)" fill="#f0f4f8"/>
      <path id="Path_12778" data-name="Path 12778" d="M63.373,0a63.373,63.373,0,0,1,63.373,63.373H0A63.373,63.373,0,0,1,63.373,0Z" transform="translate(253.762 507.327)" fill="#f0f4f8"/>
      <path id="Path_12779" data-name="Path 12779" d="M63.373,63.373A63.373,63.373,0,0,1,0,0H126.746A63.373,63.373,0,0,1,63.373,63.373Z" transform="translate(127.016 507.327)" fill="#f0f4f8"/>
      <path id="Path_12780" data-name="Path 12780" d="M63.373,63.373A63.373,63.373,0,0,1,0,126.746V0A63.373,63.373,0,0,1,63.373,63.373Z" transform="translate(0.271 507.328)" fill="#f0f4f8"/>
      <path id="Path_12781" data-name="Path 12781" d="M63.373,63.373A63.373,63.373,0,0,1,0,126.746V0A63.373,63.373,0,0,1,63.373,63.373Z" transform="translate(63.644 507.328)" fill="#f0f4f8"/>
      <path id="Path_12782" data-name="Path 12782" d="M126.746,0A126.745,126.745,0,0,1,0,126.746V0Z" transform="translate(380.508 634.074)" fill="#f0f4f8"/>
      <path id="Path_12783" data-name="Path 12783" d="M126.746,63.373A63.373,63.373,0,0,1,0,63.373V0H63.373A63.373,63.373,0,0,1,126.746,63.373Z" transform="translate(253.762 634.074)" fill="#f0f4f8"/>
      <path id="Path_12784" data-name="Path 12784" d="M126.746,0A126.745,126.745,0,0,1,0,126.746V0Z" transform="translate(0.271 634.074)" fill="#f0f4f8"/>
      <path id="Path_12785" data-name="Path 12785" d="M0,63.373a63.373,63.373,0,0,0,126.746,0V0H63.373A63.373,63.373,0,0,0,0,63.373Z" transform="translate(507.254 760.819)" fill="#f0f4f8"/>
      <path id="Path_12786" data-name="Path 12786" d="M0,63.373a63.373,63.373,0,0,0,126.746,0V0H63.373A63.373,63.373,0,0,0,0,63.373Z" transform="translate(380.508 760.819)" fill="#f0f4f8"/>
      <path id="Path_12787" data-name="Path 12787" d="M126.746,63.373A63.373,63.373,0,0,1,0,63.373V0H63.373A63.373,63.373,0,0,1,126.746,63.373Z" transform="translate(253.762 760.819)" fill="#f0f4f8"/>
      <ellipse id="Ellipse_503" data-name="Ellipse 503" cx="63" cy="63" rx="63" ry="63" transform="translate(127.271 761.311)" fill="#f0f4f8"/>
      <path id="Path_12788" data-name="Path 12788" d="M126.746,63.373A63.373,63.373,0,0,0,0,63.373v63.373H63.373A63.373,63.373,0,0,0,126.746,63.373Z" transform="translate(0.271 760.819)" fill="#f0f4f8"/>
      <path id="Path_12789" data-name="Path 12789" d="M213.373,163.373A63.373,63.373,0,0,1,150,226.746V100A63.373,63.373,0,0,1,213.373,163.373Z" transform="translate(-149.999 27)" fill="#f0f4f8"/>
      <path id="Path_12790" data-name="Path 12790" d="M163.373,163.373A63.373,63.373,0,0,1,100,226.746V100A63.373,63.373,0,0,1,163.373,163.373Z" transform="translate(-36.626 27)" fill="#f0f4f8"/>
      <path id="Path_12796" data-name="Path 12796" d="M163.373,163.373A63.373,63.373,0,0,1,100,226.746V100A63.373,63.373,0,0,1,163.373,163.373Z" transform="translate(-99.626 -100)" fill="#f0f4f8"/>
      <path id="Path_12791" data-name="Path 12791" d="M63.373,0a63.373,63.373,0,0,1,63.373,63.373H0A63.373,63.373,0,0,1,63.373,0Z" transform="translate(127.539 317.484)" fill="#f0f4f8"/>
      <path id="Path_12792" data-name="Path 12792" d="M63.373,0a63.373,63.373,0,0,1,63.373,63.373H0A63.373,63.373,0,0,1,63.373,0Z" transform="translate(127.539 254.111)" fill="#f0f4f8"/>
      <path id="Path_12793" data-name="Path 12793" d="M226.746,263.373a63.373,63.373,0,0,1-126.746,0V200h63.373A63.373,63.373,0,0,1,226.746,263.373Z" transform="translate(-99.999 53.746)" fill="#f0f4f8"/>
      <path id="Path_12794" data-name="Path 12794" d="M226.746,363.373a63.373,63.373,0,0,0-126.746,0v63.373h63.373A63.373,63.373,0,0,0,226.746,363.373Z" transform="translate(-99.999 80.492)" fill="#f0f4f8"/>
      <path id="Path_12795" data-name="Path 12795" d="M0,63.373a63.373,63.373,0,1,1,126.746,0v63.373H63.373A63.373,63.373,0,0,1,0,63.373Z" transform="translate(254.285 380.565) rotate(90)" fill="#f0f4f8"/>
    </g>
    <g id="Group_3987" data-name="Group 3987" transform="translate(-84)">
      <path id="Path_11-2" data-name="Path 11" d="M213.373,163.373A63.373,63.373,0,0,1,150,226.746V100A63.373,63.373,0,0,1,213.373,163.373Z" transform="translate(440.987 3838.271)" fill="#f0f4f8"/>
      <path id="Path_12-2" data-name="Path 12" d="M163.373,163.373A63.373,63.373,0,0,1,100,226.746V100A63.373,63.373,0,0,1,163.373,163.373Z" transform="translate(554.36 3838.271)" fill="#f0f4f8"/>
      <path id="Path_13-2" data-name="Path 13" d="M200,163.373a63.373,63.373,0,1,0,126.746,0V100H263.373A63.373,63.373,0,0,0,200,163.373Z" transform="translate(264.241 3838.271)" fill="#f0f4f8"/>
      <path id="Path_14-3" data-name="Path 14" d="M463.373,163.373A63.373,63.373,0,0,1,400,100H526.746A63.373,63.373,0,0,1,463.373,163.373Z" transform="translate(-189.25 3838.271)" fill="#f0f4f8"/>
      <path id="Path_3222-2" data-name="Path 3222" d="M63.373,0a63.373,63.373,0,0,1,63.373,63.373H0A63.373,63.373,0,0,1,63.373,0Z" transform="translate(718.525 4128.754)" fill="#f0f4f8"/>
      <path id="Path_15-3" data-name="Path 15" d="M463.373,213.373A63.373,63.373,0,0,1,400,150H526.746A63.373,63.373,0,0,1,463.373,213.373Z" transform="translate(-189.25 3851.644)" fill="#f0f4f8"/>
      <path id="Path_3223-2" data-name="Path 3223" d="M63.373,0a63.373,63.373,0,0,1,63.373,63.373H0A63.373,63.373,0,0,1,63.373,0Z" transform="translate(718.525 4065.381)" fill="#f0f4f8"/>
      <rect id="Rectangle_41-3" data-name="Rectangle 41" width="126" height="127" rx="63" transform="translate(84.258 3938)" fill="#f0f4f8"/>
      <path id="Path_18-2" data-name="Path 18" d="M226.746,263.373a63.373,63.373,0,0,1-126.746,0V200h63.373A63.373,63.373,0,0,1,226.746,263.373Z" transform="translate(490.987 3865.017)" fill="#f0f4f8"/>
      <rect id="Rectangle_48-2" data-name="Rectangle 48" width="127" height="127" rx="63" transform="translate(464.258 4065)" fill="#f0f4f8"/>
      <path id="Path_19-3" data-name="Path 19" d="M463.373,250a63.373,63.373,0,0,1,63.373,63.373H400A63.373,63.373,0,0,1,463.373,250Z" transform="translate(-189.25 3878.389)" fill="#f0f4f8"/>
      <path id="Path_3225-2" data-name="Path 3225" d="M63.373,63.373A63.373,63.373,0,0,1,0,0H126.746A63.373,63.373,0,0,1,63.373,63.373Z" transform="translate(718.525 3938.636)" fill="#f0f4f8"/>
      <path id="Path_20-3" data-name="Path 20" d="M463.373,200a63.373,63.373,0,0,1,63.373,63.373H400A63.373,63.373,0,0,1,463.373,200Z" transform="translate(-189.25 3865.017)" fill="#f0f4f8"/>
      <path id="Path_3224-2" data-name="Path 3224" d="M63.373,63.373A63.373,63.373,0,0,1,0,0H126.746A63.373,63.373,0,0,1,63.373,63.373Z" transform="translate(718.525 4002.009)" fill="#f0f4f8"/>
      <path id="Path_21-3" data-name="Path 21" d="M563.373,263.373A63.373,63.373,0,0,1,500,200H626.746A63.373,63.373,0,0,1,563.373,263.373Z" transform="translate(-415.996 3865.017)" fill="#f0f4f8"/>
      <path id="Path_24-2" data-name="Path 24" d="M226.746,363.373a63.373,63.373,0,1,0-126.746,0v63.373h63.373A63.373,63.373,0,0,0,226.746,363.373Z" transform="translate(490.987 3891.762)" fill="#f0f4f8"/>
      <rect id="Rectangle_60-2" data-name="Rectangle 60" width="127" height="127" rx="63" transform="translate(464.258 4192)" fill="#f0f4f8"/>
      <path id="Path_25-2" data-name="Path 25" d="M426.746,300A126.745,126.745,0,0,1,300,426.746V300Z" transform="translate(37.495 3891.762)" fill="#f0f4f8"/>
      <path id="Path_26-3" data-name="Path 26" d="M526.746,363.373a63.373,63.373,0,1,1-126.746,0V300h63.373A63.373,63.373,0,0,1,526.746,363.373Z" transform="translate(-189.25 3891.762)" fill="#f0f4f8"/>
      <path id="Path_3226-2" data-name="Path 3226" d="M0,63.373a63.373,63.373,0,1,1,126.746,0v63.373H63.373A63.373,63.373,0,0,1,0,63.373Z" transform="translate(718.525 3811.89)" fill="#f0f4f8"/>
      <rect id="Rectangle_64-3" data-name="Rectangle 64" width="126" height="127" rx="63" transform="translate(84.258 4192)" fill="#f0f4f8"/>
      <path id="Path_28-2" data-name="Path 28" d="M226.746,463.373a63.373,63.373,0,1,1-126.746,0V400h63.373A63.373,63.373,0,0,1,226.746,463.373Z" transform="translate(490.987 3918.508)" fill="#f0f4f8"/>
      <path id="Path_29-2" data-name="Path 29" d="M200,463.373a63.373,63.373,0,1,0,126.746,0V400H263.373A63.373,63.373,0,0,0,200,463.373Z" transform="translate(264.241 3918.508)" fill="#f0f4f8"/>
      <path id="Path_30-2" data-name="Path 30" d="M300,463.373a63.373,63.373,0,1,0,126.746,0V400H363.373A63.373,63.373,0,0,0,300,463.373Z" transform="translate(37.495 3918.508)" fill="#f0f4f8"/>
      <path id="Path_31-3" data-name="Path 31" d="M526.746,463.373a63.373,63.373,0,1,1-126.746,0V400h63.373A63.373,63.373,0,0,1,526.746,463.373Z" transform="translate(-189.25 3918.508)" fill="#f0f4f8"/>
      <ellipse id="Ellipse_2-3" data-name="Ellipse 2" cx="63" cy="63" rx="63" ry="63" transform="translate(84.258 4319)" fill="#f0f4f8"/>
      <path id="Path_33-2" data-name="Path 33" d="M100,500A126.745,126.745,0,0,1,226.746,626.746H100Z" transform="translate(490.987 3945.254)" fill="#f0f4f8"/>
      <rect id="Rectangle_82-2" data-name="Rectangle 82" width="127" height="127" transform="translate(464.258 4445)" fill="#f0f4f8"/>
      <path id="Path_34-2" data-name="Path 34" d="M300,626.746A126.745,126.745,0,0,1,426.746,500V626.746Z" transform="translate(37.495 3945.254)" fill="#f0f4f8"/>
      <path id="Path_35-2" data-name="Path 35" d="M400,563.373A63.373,63.373,0,0,1,463.373,500V626.746A63.373,63.373,0,0,1,400,563.373Z" transform="translate(-125.878 3945.254)" fill="#f0f4f8"/>
      <path id="Path_3228-2" data-name="Path 3228" d="M63.373,63.373A63.373,63.373,0,0,1,0,126.746V0A63.373,63.373,0,0,1,63.373,63.373Z" transform="translate(718.525 4318.654)" fill="#f0f4f8"/>
      <path id="Path_36-3" data-name="Path 36" d="M563.373,563.373A63.373,63.373,0,0,1,500,500H626.746A63.373,63.373,0,0,1,563.373,563.373Z" transform="translate(-415.996 3945.254)" fill="#f0f4f8"/>
      <path id="Path_14-4" data-name="Path 14" d="M63.373,0a63.373,63.373,0,0,1,63.373,63.373H0A63.373,63.373,0,0,1,63.373,0Z" transform="translate(527.614 3938.563) rotate(-90)" fill="#f0f4f8"/>
      <path id="Path_15-4" data-name="Path 15" d="M63.373,0a63.373,63.373,0,0,1,63.373,63.373H0A63.373,63.373,0,0,1,63.373,0Z" transform="translate(464.241 3938.563) rotate(-90)" fill="#f0f4f8"/>
      <path id="Path_19-4" data-name="Path 19" d="M63.373,63.373A63.373,63.373,0,0,1,0,0H126.746A63.373,63.373,0,0,1,63.373,63.373Z" transform="translate(337.495 3938.563) rotate(-90)" fill="#f0f4f8"/>
      <path id="Path_20-4" data-name="Path 20" d="M63.373,63.373A63.373,63.373,0,0,1,0,0H126.746A63.373,63.373,0,0,1,63.373,63.373Z" transform="translate(400.868 3938.563) rotate(-90)" fill="#f0f4f8"/>
      <path id="Path_26-4" data-name="Path 26" d="M0,63.373a63.373,63.373,0,1,1,126.746,0v63.373H63.373A63.373,63.373,0,0,1,0,63.373Z" transform="translate(210.75 3938.563) rotate(-90)" fill="#f0f4f8"/>
      <path id="Path_3221-2" data-name="Path 3221" d="M0,63.373a63.373,63.373,0,1,1,126.746,0v63.373H63.373A63.373,63.373,0,0,1,0,63.373Z" transform="translate(845.271 4191.835) rotate(90)" fill="#f0f4f8"/>
      <path id="Path_31-4" data-name="Path 31" d="M0,63.373a63.373,63.373,0,0,1,126.746,0v63.373H63.373A63.373,63.373,0,0,1,0,63.373Z" transform="translate(84.004 3938.563) rotate(-90)" fill="#f0f4f8"/>
      <path id="Path_12777-2" data-name="Path 12777" d="M63.373,63.373A63.373,63.373,0,0,0,126.746,0H0A63.373,63.373,0,0,0,63.373,63.373Z" transform="translate(210.748 4825.508)" fill="#f0f4f8"/>
      <path id="Path_12782-2" data-name="Path 12782" d="M126.746,126.746A126.745,126.745,0,0,0,0,0V126.746Z" transform="translate(337.494 4698.762)" fill="#f0f4f8"/>
      <path id="Path_12783-2" data-name="Path 12783" d="M126.746,63.373A63.373,63.373,0,0,0,0,63.373v63.373H63.373A63.373,63.373,0,0,0,126.746,63.373Z" transform="translate(210.748 4698.762)" fill="#f0f4f8"/>
      <path id="Path_12785-2" data-name="Path 12785" d="M0,63.373a63.373,63.373,0,0,1,126.746,0v63.373H63.373A63.373,63.373,0,0,1,0,63.373Z" transform="translate(464.24 4572.017)" fill="#f0f4f8"/>
      <path id="Path_12786-2" data-name="Path 12786" d="M0,63.373a63.373,63.373,0,0,1,126.746,0v63.373H63.373A63.373,63.373,0,0,1,0,63.373Z" transform="translate(337.494 4572.017)" fill="#f0f4f8"/>
      <path id="Path_12787-2" data-name="Path 12787" d="M126.746,63.373A63.373,63.373,0,0,0,0,63.373v63.373H63.373A63.373,63.373,0,0,0,126.746,63.373Z" transform="translate(210.748 4572.017)" fill="#f0f4f8"/>
      <ellipse id="Ellipse_503-2" data-name="Ellipse 503" cx="63" cy="63" rx="63" ry="63" transform="translate(84.257 4572.271)" fill="#f0f4f8"/>
    </g>
  </g>
</svg>
