<svg xmlns="http://www.w3.org/2000/svg" width="226.608" height="263.3" viewBox="0 0 226.608 263.3">
  <g id="Group_3729" data-name="Group 3729" transform="translate(-315.569 -65.232)">
    <path id="Path_12613" data-name="Path 12613" d="M660.756,387.5a11.016,11.016,0,0,1-2.13-.214h0q-.192-.038-.384-.083l-154.1-35.88c-1.674-.39-2.786-1.443-2.586-2.45a1.673,1.673,0,0,1,1.283-1.184,4.668,4.668,0,0,1,2.279-.051l155.059,32.383c3.491.729,5.915,2.872,5.518,4.878a3.291,3.291,0,0,1-2.6,2.292A8.4,8.4,0,0,1,660.756,387.5Z" transform="translate(-185.961 -235.544)" fill="#3f3d56"/>
    <path id="Path_12614" data-name="Path 12614" d="M700.822,395.7a6.328,6.328,0,0,0,9.14-3.257l22.481.469-6.228-9.887L705.821,384.1a6.362,6.362,0,0,0-5,11.6Z" transform="translate(-258.671 -248.706)" fill="#ffb8b8"/>
    <path id="Path_12615" data-name="Path 12615" d="M718.142,382.7l-.117-6.891a2.847,2.847,0,0,1,2.559-2.867l40.4-3.9L794.642,358a8.066,8.066,0,1,1,4.8,15.4l-37.256,11.03-41.145,1.045a2.824,2.824,0,0,1-2.9-2.783Z" transform="translate(-266.226 -239.293)" fill="#3f3d56"/>
    <path id="Path_12616" data-name="Path 12616" d="M620.55,454.25h-7.715l-3.67-29.756h11.386Z" transform="translate(-108.851 -133.196)" fill="#ffb8b8"/>
    <path id="Path_12617" data-name="Path 12617" d="M801.69,685.775H776.815v-.315a9.682,9.682,0,0,1,9.682-9.682H801.69Z" transform="translate(-288.023 -357.244)" fill="#2f2e41"/>
    <path id="Path_12618" data-name="Path 12618" d="M656.55,454.25h-7.715l-3.67-29.756h11.386Z" transform="translate(-122.198 -133.196)" fill="#ffb8b8"/>
    <path id="Path_12619" data-name="Path 12619" d="M837.69,685.775H812.815v-.315a9.682,9.682,0,0,1,9.682-9.682H837.69Z" transform="translate(-301.37 -357.244)" fill="#2f2e41"/>
    <path id="Path_12620" data-name="Path 12620" d="M830.011,482.371l-1.842,109.3a2.517,2.517,0,0,1-2.745,2.464l-9.027-.821A2.517,2.517,0,0,1,814.116,591l-5.285-68.176a.629.629,0,0,0-1.256.025l-2.642,69.737a2.517,2.517,0,0,1-2.515,2.422h-9.681a2.517,2.517,0,0,1-2.512-2.363l-6.777-110.9,40.272-10.068Z" transform="translate(-290.481 -281.572)" fill="#2f2e41"/>
    <circle id="Ellipse_493" data-name="Ellipse 493" cx="15.455" cy="15.455" r="15.455" transform="translate(494.864 67.26)" fill="#ffb8b8"/>
    <path id="Path_12621" data-name="Path 12621" d="M780.134,434.28a2.812,2.812,0,0,1-.859-1.992l-1.043-74.53a17.934,17.934,0,0,1,12.133-17.268c1.448-6.569,9.154-7.392,13.647-7.294a6.975,6.975,0,0,1,5.649,3.1l3.22,4.831,7.1,4.161a17.951,17.951,0,0,1,8.476,19.391l-1.093,4.971a114.234,114.234,0,0,0,1.068,53.272l2.2,8.384a2.831,2.831,0,0,1-2.956,3.541l-2.554-.2a2.828,2.828,0,0,1-2.6-2.541l-.423-4.227a.315.315,0,0,0-.626,0l-.409,4.092a2.831,2.831,0,0,1-2.774,2.55l-36.139.556h-.045a2.814,2.814,0,0,1-1.971-.8Z" transform="translate(-288.547 -230.229)" fill="#3f3d56"/>
    <path id="Path_12622" data-name="Path 12622" d="M799.547,299.624c.063,2.185,1.58,3.449,3.442,4.593a19.916,19.916,0,0,0,6.172,2.119,1.887,1.887,0,0,0,2.772-1.652l1.956-7.44a47.106,47.106,0,0,0,1.506-7.26c.471-4.725-.649-9.808-3.947-13.225s-9.018-4.63-12.97-2c-4.69-5.99-26.129,7.245-20.84,11.41.941.741,2.379-.2,3.573-.288a3.812,3.812,0,0,1,3.291,1.046c.991,1.211.559,3.014.968,4.525a4.225,4.225,0,0,0,5.338,2.736,14.529,14.529,0,0,0,2.769-1.78,3.562,3.562,0,0,1,3.1-.676c1.359.507,1.842,2.171,1.965,3.617a33.5,33.5,0,0,0,.9,4.271Z" transform="translate(-288.019 -208)" fill="#2f2e41"/>
    <path id="Path_12624" data-name="Path 12624" d="M611.981,173l-2.517,30.833L596.25,235.925l19.507-31.463Z" transform="translate(-104.062 -39.955)" opacity="0.2"/>
    <path id="Path_12625" data-name="Path 12625" d="M771.186,481.991a6.328,6.328,0,0,0,.2-9.7L779.8,451.44l-11.454,2.313L762.112,473.2a6.362,6.362,0,0,0,9.074,8.793Z" transform="translate(-282.089 -274.07)" fill="#ffb8b8"/>
    <path id="Path_12626" data-name="Path 12626" d="M771.4,433.611l-6.484-2.337a2.847,2.847,0,0,1-1.771-3.41l10.7-39.152,1.631-35.384a8.066,8.066,0,1,1,16.1.976l-2.913,38.745-13.628,38.836a2.824,2.824,0,0,1-3.632,1.725Z" transform="translate(-282.92 -234.886)" fill="#3f3d56"/>
  </g>
</svg>
