<svg xmlns="http://www.w3.org/2000/svg" width="132.767" height="237.296" viewBox="0 0 132.767 237.296">
  <g id="Group_4307" data-name="Group 4307" transform="translate(13352.484 -6373.52)">
    <path id="Path_12687" data-name="Path 12687" d="M476.12,548.72h-7.443l-3.541-28.708h10.985Z" transform="translate(-13754.163 6055.183)" fill="#a0616a"/>
    <path id="Path_12688" data-name="Path 12688" d="M456.363,563.8h14.354v9.038H447.325A9.038,9.038,0,0,1,456.363,563.8Z" transform="translate(-13747.164 6037.979)" fill="#2f2e41"/>
    <path id="Path_12689" data-name="Path 12689" d="M558,536.512l-6.77,3.092-15.149-24.641,9.992-4.564Z" transform="translate(-13782.037 6058.96)" fill="#a0616a"/>
    <path id="Path_12690" data-name="Path 12690" d="M9.038,0H23.392V9.038H0A9.038,9.038,0,0,1,9.038,0Z" transform="translate(-13244.75 6602.596) rotate(-24.548)" fill="#2f2e41"/>
    <path id="Path_12691" data-name="Path 12691" d="M719.262,549.454a6.1,6.1,0,0,0,.486-9.348l8.749-19.852-11.115,1.884-6.6,18.563a6.138,6.138,0,0,0,8.484,8.754Z" transform="translate(-13964.976 5957.653)" fill="#a0616a"/>
    <path id="Path_12692" data-name="Path 12692" d="M662.73,644.776h-7.11a2.742,2.742,0,0,1-2.725-2.534L649.018,538.7a2.732,2.732,0,0,1,2.99-2.917l41.121,4.367a2.733,2.733,0,0,1,2.466,2.667l.862,45.675a2.122,2.122,0,0,0,.142.724l16.868,43.742a2.731,2.731,0,0,1-1.6,3.546l-7.205,2.655a2.732,2.732,0,0,1-3.374-1.314l-20.722-40.292a2.716,2.716,0,0,1-.245-.694l-3.54-17.055a2.125,2.125,0,0,0-4.191.19l-7.141,62.363A2.731,2.731,0,0,1,662.73,644.776Z" transform="translate(-13941.247 5951.557)" fill="#2f2e41"/>
    <circle id="Ellipse_499" data-name="Ellipse 499" cx="14.911" cy="14.911" r="14.911" transform="translate(-13289.887 6379.472)" fill="#a0616a"/>
    <path id="Path_12693" data-name="Path 12693" d="M675.774,501.857a53.22,53.22,0,0,1-28.456-8.62l-.145-.1.015-.176,5.7-66.425A9.362,9.362,0,0,1,661.755,418c7.392-.34,17.321.089,22.636,4.047a25.92,25.92,0,0,1,10.621,24.716c-2.659,20.167.353,47.371.705,50.406l.025.219-.2.092A46.907,46.907,0,0,1,675.774,501.857Z" transform="translate(-13940.525 5997.866)" fill="#703f80"/>
    <path id="Path_12694" data-name="Path 12694" d="M720.183,507.208a3.04,3.04,0,0,1-2.234-.985l-3.262-3.558a3.051,3.051,0,0,1-.673-2.911l7.437-25.172-11.316-23.764a5.348,5.348,0,0,1,9.537-4.835L735.028,470.9a7.255,7.255,0,0,1,.437,6.8l-12.512,27.723a3.028,3.028,0,0,1-2.287,1.748A3.065,3.065,0,0,1,720.183,507.208Z" transform="translate(-13965.06 5987.939)" fill="#703f80"/>
    <path id="Path_12695" data-name="Path 12695" d="M552.277,462.272a6.1,6.1,0,0,0,9.106-2.172l21.514,2.79-4.944-10.131-19.672-1.1a6.138,6.138,0,0,0-6,10.61Z" transform="translate(-13902.254 5984.791)" fill="#a0616a"/>
    <path id="Path_12696" data-name="Path 12696" d="M607.5,454.383a8.153,8.153,0,0,1-1.12-.077l-33.846-4.694a3.364,3.364,0,0,1-2.581-1.889,3.434,3.434,0,0,1-.193-.5h0a3.378,3.378,0,0,1,.349-2.69l2.8-4.644a3.39,3.39,0,0,1,2.887-1.631h0l29.5.034,22.034-19.741a5.971,5.971,0,0,1,8.183,8.691l-21.986,24.453a8.113,8.113,0,0,1-6.036,2.692Z" transform="translate(-13910.055 5998.213)" fill="#703f80"/>
    <path id="Path_12697" data-name="Path 12697" d="M666.5,382.436c1.363-3.154,2.516-7.353-.1-9.583-1.516-1.293-3.7-1.3-5.686-1.457-5.6-.453-11.356-3.028-14.091-7.931s-1.208-12.193,3.952-14.405c3.478-1.491,7.466-.475,11.106.557l10.931,3.1c3.248.921,6.658,1.937,9,4.372,3.729,3.884,3.45,10.449.488,14.945s-7.423,9.186-12.529,10.893Z" transform="translate(-13939.786 6025.212)" fill="#2f2e41"/>
  </g>
</svg>
