<svg xmlns="http://www.w3.org/2000/svg" width="217.447" height="283.131" viewBox="0 0 217.447 283.131">
  <g id="Group_4309" data-name="Group 4309" transform="translate(-885.372 -740)">
    <g id="Group_4308" data-name="Group 4308" transform="translate(885.372 740)">
      <path id="Path_13576" data-name="Path 13576" d="M467.371,449.157A6.664,6.664,0,0,0,457.218,448l-21.045-10.862,1.308,12.237,19.784,8.439a6.7,6.7,0,0,0,10.106-8.658Z" transform="translate(-370.34 -303.794)" fill="#ffb8b8"/>
      <path id="Path_13577" data-name="Path 13577" d="M429.329,431.475a2.985,2.985,0,0,1-2.432.026l-19.99-8.671a30.734,30.734,0,0,1-15.549-15.043L380.85,385.6a9.607,9.607,0,1,1,15.177-11.784L414.5,408.093l17.057,12.885a2.992,2.992,0,0,1,1.052,3.262l-1.674,5.407a2.986,2.986,0,0,1-1.01,1.466A2.95,2.95,0,0,1,429.329,431.475Z" transform="translate(-351.001 -281.186)" fill="#619061"/>
      <circle id="Ellipse_530" data-name="Ellipse 530" cx="16.278" cy="16.278" r="16.278" transform="translate(13.109 45.775)" fill="#ffb8b8"/>
      <path id="Path_13578" data-name="Path 13578" d="M184.66,399.879h8.125l3.866-31.34H184.658Z" transform="translate(-148.68 -124.293)" fill="#ffb8b8"/>
      <path id="Path_13579" data-name="Path 13579" d="M0,0H25.536V9.866H9.866A9.866,9.866,0,0,1,0,0Z" transform="translate(59.773 283.13) rotate(179.997)" fill="#2f2e41"/>
      <path id="Path_13580" data-name="Path 13580" d="M144.66,399.879h8.125l3.866-31.34H144.658Z" transform="translate(-135.19 -124.293)" fill="#ffb8b8"/>
      <path id="Path_13581" data-name="Path 13581" d="M0,0H25.536V9.866H9.866A9.866,9.866,0,0,1,0,0Z" transform="translate(33.263 283.13) rotate(179.997)" fill="#2f2e41"/>
      <path id="Path_13582" data-name="Path 13582" d="M346.471,582.734a2.981,2.981,0,0,1-.712-2.358l14.225-106.692,35.343,6,3.772-2.263-9.754,101.23a2.991,2.991,0,0,1-2.715,2.627l-10.7.892a2.982,2.982,0,0,1-3.225-3.143l2.771-48.209a.331.331,0,0,0-.651-.106l-13.707,50.832a2.987,2.987,0,0,1-2.879,2.206h-9.522a2.982,2.982,0,0,1-2.244-1.018Z" transform="translate(-339.838 -316.119)" fill="#2f2e41"/>
      <path id="Path_13583" data-name="Path 13583" d="M371.341,443.694a2.341,2.341,0,0,0-2.993-.125l-7.066,5.5a2.98,2.98,0,0,1-4.7-1.529c-3.466-12.138-11.319-42.692-9.384-64.2,1.1-12.189,11.623-21.454,23.464-20.676,8.1.54,13.422,5.21,15.83,13.881,5.913,21.289,12.412,60.339,13.655,67.951a2.969,2.969,0,0,1-1.416,3.041,21.831,21.831,0,0,1-11.062,3.113C382.953,450.649,377.3,449.006,371.341,443.694Z" transform="translate(-340.231 -278.66)" fill="#619061"/>
      <path id="Path_13584" data-name="Path 13584" d="M375.764,481.769a6.664,6.664,0,0,0-7.276-7.175l-9.856-21.535L352.11,463.5l10.36,18.85a6.7,6.7,0,0,0,13.3-.576Z" transform="translate(-341.989 -309.163)" fill="#ffb8b8"/>
      <path id="Path_13585" data-name="Path 13585" d="M352.858,446.354a2.985,2.985,0,0,1-1.929-1.48L340.55,425.715a30.734,30.734,0,0,1-2.952-21.432l5.42-23.94a9.607,9.607,0,1,1,19.215.094L355.618,418.8l5.47,20.665a2.992,2.992,0,0,1-1.185,3.215l-4.654,3.222a2.987,2.987,0,0,1-1.7.53A2.952,2.952,0,0,1,352.858,446.354Z" transform="translate(-336.839 -281.414)" fill="#619061"/>
      <path id="Path_13586" data-name="Path 13586" d="M163.662,173.828,157.7,199.012l8.616,21.208-5.965-20.545Z" transform="translate(-139.588 -58.625)" opacity="0.2"/>
      <path id="Path_13587" data-name="Path 13587" d="M359.62,331.889a10.961,10.961,0,0,1-4.234-.766c-.593-.228-1.208-.416-1.8-.645-5.224-2.018-8.664-7.581-8.788-13.18a18.979,18.979,0,0,1,7.081-14.613,27.4,27.4,0,0,1,15.465-5.845c6.014-.458,12.787,1.067,16.148,6.076a5.276,5.276,0,0,1,.99,4.561,2.919,2.919,0,0,1-.822,1.263c-1.5,1.335-3,.331-4.527.243a5.005,5.005,0,0,0-4.671,3.575,10.772,10.772,0,0,0,.168,6.224,15.545,15.545,0,0,1,.784,3.784,3.8,3.8,0,0,1-1.576,3.35c-1.314.794-3.04.335-4.355-.458a30.247,30.247,0,0,0-3.871-2.479c-1.42-.584-3.329-.454-4.155.84a4.6,4.6,0,0,0-.525,1.517c-.741,3.377-.571,3.178-1.312,6.554Z" transform="translate(-339.522 -256.451)" fill="#2f2e41"/>
      <path id="Path_13588" data-name="Path 13588" d="M579.8,414.039a2.863,2.863,0,0,1-.535-2.456,67.818,67.818,0,0,0,0-31.5,2.864,2.864,0,0,1,.535-2.456,2.815,2.815,0,0,1,2.224-1.077h26.425a2.851,2.851,0,0,1,2.808,2.39,111,111,0,0,1,0,33.783,2.851,2.851,0,0,1-2.808,2.39H582.025A2.815,2.815,0,0,1,579.8,414.039Z" transform="translate(-418.572 -283.361)" fill="#307f8c"/>
      <path id="Path_13589" data-name="Path 13589" d="M518.12,273.421a2.862,2.862,0,0,1-.535-2.455,67.821,67.821,0,0,0,0-31.5,2.862,2.862,0,0,1,.535-2.455,2.814,2.814,0,0,1,2.224-1.078h26.425a2.852,2.852,0,0,1,2.808,2.39,111,111,0,0,1,0,33.783,2.852,2.852,0,0,1-2.808,2.39H520.343A2.814,2.814,0,0,1,518.12,273.421Z" transform="translate(-397.769 -235.936)" fill="#f0cc71"/>
      <path id="Path_13590" data-name="Path 13590" d="M615.888,321.127a111,111,0,0,1,0-33.783,2.851,2.851,0,0,1,2.808-2.39h26.425a2.814,2.814,0,0,1,2.224,1.078,2.863,2.863,0,0,1,.535,2.455,67.818,67.818,0,0,0,0,31.5,2.862,2.862,0,0,1-.535,2.455,2.815,2.815,0,0,1-2.224,1.078H618.7A2.851,2.851,0,0,1,615.888,321.127Z" transform="translate(-430.515 -252.468)" fill="#619061"/>
      <path id="Path_13591" data-name="Path 13591" d="M448.965,319.347a111.014,111.014,0,0,1,0-33.783,2.852,2.852,0,0,1,2.808-2.39H478.2a2.815,2.815,0,0,1,2.224,1.078,2.862,2.862,0,0,1,.535,2.455,67.817,67.817,0,0,0,0,31.5,2.862,2.862,0,0,1-.535,2.455,2.814,2.814,0,0,1-2.224,1.078H451.773A2.851,2.851,0,0,1,448.965,319.347Z" transform="translate(-374.218 -251.867)" fill="#dc7431"/>
      <path id="Path_13592" data-name="Path 13592" d="M459.165,436.037a2.91,2.91,0,0,1-.544-2.5,68.926,68.926,0,0,0,0-32.014,2.91,2.91,0,0,1,.544-2.5,2.861,2.861,0,0,1,2.26-1.1h26.859a2.9,2.9,0,0,1,2.854,2.429,112.822,112.822,0,0,1,0,34.338,2.9,2.9,0,0,1-2.854,2.429H461.425A2.862,2.862,0,0,1,459.165,436.037Z" transform="translate(-377.883 -290.572)" fill="#c54d39"/>
      <path id="Path_13593" data-name="Path 13593" d="M487.389,417.3H473.24a1.99,1.99,0,0,1-1.988-1.988v-.844a1.99,1.99,0,0,1,1.988-1.988h14.149a1.99,1.99,0,0,1,1.988,1.988v.844A1.99,1.99,0,0,1,487.389,417.3Z" transform="translate(-382.171 -295.479)" fill="#fff"/>
      <path id="Path_13594" data-name="Path 13594" d="M487.389,429.852H473.24a1.99,1.99,0,0,1-1.988-1.988v-.844a1.99,1.99,0,0,1,1.988-1.988h14.149a1.99,1.99,0,0,1,1.988,1.988v.844a1.99,1.99,0,0,1-1.988,1.988Z" transform="translate(-382.171 -299.71)" fill="#fff"/>
      <path id="Path_13595" data-name="Path 13595" d="M473.394,305.431H459.527a1.99,1.99,0,0,1-1.988-1.988v-.777a1.99,1.99,0,0,1,1.988-1.988h13.867a1.99,1.99,0,0,1,1.988,1.988v.777A1.99,1.99,0,0,1,473.394,305.431Z" transform="translate(-377.546 -257.771)" fill="#fff"/>
      <path id="Path_13596" data-name="Path 13596" d="M607.073,393.561H593.206a1.99,1.99,0,0,1-1.988-1.988V390.8a1.99,1.99,0,0,1,1.988-1.988h13.867a1.99,1.99,0,0,1,1.988,1.988v.777A1.99,1.99,0,0,1,607.073,393.561Z" transform="translate(-422.631 -287.493)" fill="#fff"/>
      <path id="Path_13597" data-name="Path 13597" d="M607.073,408.374H593.206a1.99,1.99,0,0,1-1.988-1.988v-.777a1.99,1.99,0,0,1,1.988-1.988h13.867a1.99,1.99,0,0,1,1.988,1.988v.777a1.99,1.99,0,0,1-1.988,1.988Z" transform="translate(-422.631 -292.489)" fill="#fff"/>
      <path id="Path_13598" data-name="Path 13598" d="M607.073,423.188H593.206a1.99,1.99,0,0,1-1.988-1.988v-.777a1.99,1.99,0,0,1,1.988-1.988h13.867a1.99,1.99,0,0,1,1.988,1.988v.777A1.99,1.99,0,0,1,607.073,423.188Z" transform="translate(-422.631 -297.485)" fill="#fff"/>
      <path id="Path_13599" data-name="Path 13599" d="M473.394,317.776H459.527a1.99,1.99,0,0,1-1.988-1.988v-.777a1.99,1.99,0,0,1,1.988-1.988h13.867a1.99,1.99,0,0,1,1.988,1.988v.777A1.99,1.99,0,0,1,473.394,317.776Z" transform="translate(-377.546 -261.934)" fill="#fff"/>
      <path id="Path_13600" data-name="Path 13600" d="M545.571,255.412H531.7a1.99,1.99,0,0,1-1.988-1.988v-.777a1.99,1.99,0,0,1,1.988-1.988h13.867a1.99,1.99,0,0,1,1.988,1.988v.777a1.99,1.99,0,0,1-1.988,1.988Z" transform="translate(-401.888 -240.901)" fill="#fff"/>
      <path id="Path_13601" data-name="Path 13601" d="M641.044,308.446H627.177a1.99,1.99,0,0,1-1.988-1.988v-.777a1.99,1.99,0,0,1,1.988-1.988h13.867a1.99,1.99,0,0,1,1.988,1.988v.777A1.99,1.99,0,0,1,641.044,308.446Z" transform="translate(-434.088 -258.788)" fill="#fff"/>
    </g>
  </g>
</svg>
