<svg xmlns="http://www.w3.org/2000/svg" width="89.35" height="243.124" viewBox="0 0 89.35 243.124">
  <g id="Group_4307" data-name="Group 4307" transform="translate(-1009.457 -3075.778)">
    <path id="Path_12630" data-name="Path 12630" d="M379.643,696.858c-.045,1.491-.144,2.958-.273,4.412l-.075.834-.928-.005c.028-.278.057-.556.082-.834.2-2.1.335-4.224.354-6.406a89.36,89.36,0,0,0-1.759-18.013,112.151,112.151,0,0,0-5.448-18.713,128.508,128.508,0,0,0-8.915-18.515.5.5,0,0,1-.082-.329c.038-.265.391-.343.654-.09a.768.768,0,0,1,.133.168q.642,1.1,1.261,2.216a128.429,128.429,0,0,1,8.532,18.58,111.622,111.622,0,0,1,5.08,18.742A88.161,88.161,0,0,1,379.643,696.858Z" transform="translate(646.861 2616.798)" fill="#fff"/>
    <path id="Path_12642" data-name="Path 12642" d="M196.283,551.854H203.9l3.622-29.369H196.282Z" transform="translate(880.227 2759.928)" fill="#a0616a"/>
    <path id="Path_12643" data-name="Path 12643" d="M0,0H23.93V9.246H9.246A9.246,9.246,0,0,1,0,0Z" transform="translate(1098.807 3318.852) rotate(179.997)" fill="#2f2e41"/>
    <path id="Path_12644" data-name="Path 12644" d="M107.329,539.586l6.926,3.164,15.5-25.209-10.222-4.669Z" transform="translate(913.934 2763.569)" fill="#a0616a"/>
    <path id="Path_12645" data-name="Path 12645" d="M0,0H23.93V9.246H9.246A9.246,9.246,0,0,1,0,0H0Z" transform="translate(1038.605 3318.853) rotate(-155.452)" fill="#2f2e41"/>
    <path id="Path_12646" data-name="Path 12646" d="M411.541,551.443a6.245,6.245,0,0,1-.5-9.564l-8.951-20.309,11.371,1.927,6.756,18.99a6.279,6.279,0,0,1-8.679,8.955Z" transform="translate(631.895 2661.313)" fill="#a0616a"/>
    <path id="Path_12647" data-name="Path 12647" d="M436.78,646.126l-7.305-63.8a2.174,2.174,0,0,0-4.288-.194l-3.621,17.448a2.782,2.782,0,0,1-.251.71l-21.2,41.22a2.8,2.8,0,0,1-3.452,1.344l-7.371-2.716a2.794,2.794,0,0,1-1.641-3.628l17.256-44.75a2.17,2.17,0,0,0,.145-.741l.882-46.726a2.8,2.8,0,0,1,2.523-2.729l45.794-4.468a2.795,2.795,0,0,1,3.059,2.984L449.618,646.01a2.805,2.805,0,0,1-2.788,2.592h-7.274a2.794,2.794,0,0,1-2.777-2.478Z" transform="translate(637.438 2655.435)" fill="#2f2e41"/>
    <circle id="Ellipse_497" data-name="Ellipse 497" cx="15.254" cy="15.254" r="15.254" transform="translate(1058.118 3082.182)" fill="#a0616a"/>
    <path id="Path_12648" data-name="Path 12648" d="M460.085,419.958q-.626-.3-1.244-.576h0a30.888,30.888,0,0,0-31.066,3.355,26.213,26.213,0,0,0-10.744,25c2.733,20.727-.4,48.843-.721,51.643,25.076,11.531,47.076-2.966,49.029-4.314Z" transform="translate(626.507 2701.066)" fill="#c54d39"/>
    <path id="Path_12649" data-name="Path 12649" d="M405.731,509.842a2.788,2.788,0,0,1-2.105-1.61l-12.8-28.361a7.112,7.112,0,0,1,.428-6.664L406.973,447.7a5.161,5.161,0,0,1,9.2,4.665l-11.628,24.418,7.642,25.866a2.809,2.809,0,0,1-.62,2.68l-3.337,3.64a2.786,2.786,0,0,1-2.057.907,2.836,2.836,0,0,1-.445-.036Z" transform="translate(636.403 2690.333)" fill="#c54d39"/>
    <path id="Path_12650" data-name="Path 12650" d="M471.139,510.945l-2.366-47.326.614-.08,10.638,50.06H473.93A2.793,2.793,0,0,1,471.139,510.945Z" transform="translate(606.628 2683.303)" opacity="0.2"/>
    <path id="Path_12651" data-name="Path 12651" d="M484.3,545.157a6.245,6.245,0,0,1,1.5-9.458l-4.539-21.725,10.723,4.246L494.65,538.2a6.279,6.279,0,0,1-10.349,6.958Z" transform="translate(601.896 2664.191)" fill="#a0616a"/>
    <path id="Path_12652" data-name="Path 12652" d="M477.234,495.026l-8.961-59.742-.008-.056L470,427.259a8.4,8.4,0,0,1,16.6,1.438l2.689,65.077a2.8,2.8,0,0,1-2.484,2.893l-6.5.722a2.917,2.917,0,0,1-.315.018A2.785,2.785,0,0,1,477.234,495.026Z" transform="translate(606.82 2699.558)" fill="#c54d39"/>
    <path id="Path_12653" data-name="Path 12653" d="M447.95,384.629a10.987,10.987,0,0,1-9.862-6.341h0a22.375,22.375,0,0,1-2.335-7.083c-.365-4.591,2.229-11.806,5.665-15.755,3.769-4.332,9.734-4.937,15.5-5.521,1.576-.16,3.206-.325,4.749-.565a8.93,8.93,0,0,1,4.371.058,3.171,3.171,0,0,1,1.821,1.722,1.1,1.1,0,0,0,.614.615.929.929,0,0,0,.746-.035,1.668,1.668,0,0,1,1.512,0,1.468,1.468,0,0,1,.789,1.074,1.538,1.538,0,0,0,.144.451,1.782,1.782,0,0,0,1.164.881,1.573,1.573,0,0,1,1.223,1.686c-.093.784-.133,1.629-.171,2.447-.144,3.077-.292,6.259-3.386,6.208a8.906,8.906,0,0,1-2.329-.411,3.455,3.455,0,0,0-3.2.185c-1.833,1.143-2.132,3.531-2.4,5.639l-.046.368c-.308,2.411-1.582,5.312-4.158,5.554a5.988,5.988,0,0,1-2.393-.415,4.288,4.288,0,0,0-2.494-.3c-1.415.4-2.1,2.093-2.037,3.554a13.844,13.844,0,0,0,.229,1.781,9.494,9.494,0,0,1,.2,2.84c-.073.579-.738.96-2.092,1.2A10.479,10.479,0,0,1,447.95,384.629Z" transform="translate(619.153 2726.661)" fill="#2f2e41"/>
  </g>
</svg>
