<svg xmlns="http://www.w3.org/2000/svg" width="58.012" height="53.178" viewBox="0 0 58.012 53.178">
	<g transform="translate(0 0)">
		<g transform="translate(0 0)">
			<path d="M56.079,44.172V29.938L42.542,25.426V44.172H40.609V22.9H17.4V44.172H15.47v-11.6H13.536V25.8H9.669V20H7.735v5.8H3.867v6.768H1.934v11.6H0V71.244H17.4v1.934h23.2V71.244h17.4V44.172ZM5.8,27.735h5.8v4.834H5.8ZM3.867,34.5h9.669v9.669H3.867ZM17.4,69.31H1.934v-23.2H17.4ZM30.94,71.244H27.072V61.575H30.94Zm7.735,0h-5.8v-11.6H25.139v11.6h-5.8V24.834H38.675Zm5.8-43.134,9.669,3.223V44.172H52.211v-11.6H50.277v11.6H48.344v-11.6H46.41v11.6H44.476Zm5.8,41.2H46.41V65.443h3.867Zm5.8,0H52.211v-5.8H44.476v5.8H40.609v-23.2h15.47Z" transform="translate(0 -20)" />
		</g>
		<g transform="translate(4.249 28.551)">
			<g transform="translate(0 0)">
				<rect width="11.23" height="0.936" />
			</g>
		</g>
		<g transform="translate(4.249 32.294)">
			<g transform="translate(0 0)">
				<rect width="11.23" height="1.872" />
			</g>
		</g>
		<g transform="translate(4.249 36.038)">
			<g transform="translate(0 0)">
				<rect width="11.23" height="1.872" />
			</g>
		</g>
		<g transform="translate(4.249 39.781)">
			<g transform="translate(0 0)">
				<rect width="11.23" height="1.872" />
			</g>
		</g>
		<g transform="translate(22.238 8.702)">
			<path d="M184,92v5.8h5.8V92Zm3.867,3.867h-1.934V93.934h1.934Z" transform="translate(-184 -92)" />
		</g>
		<g transform="translate(29.973 8.702)">
			<path d="M248,92v5.8h5.8V92Zm3.868,3.867h-1.934V93.934h1.934Z" transform="translate(-248 -92)" />
		</g>
		<g transform="translate(22.238 16.437)">
			<path d="M184,156v5.8h5.8V156Zm3.867,3.867h-1.934v-1.934h1.934Z" transform="translate(-184 -156)" />
		</g>
		<g transform="translate(29.973 16.437)">
			<path d="M248,156v5.8h5.8V156Zm3.868,3.867h-1.934v-1.934h1.934Z" transform="translate(-248 -156)" />
		</g>
		<g transform="translate(22.238 24.172)">
			<path d="M184,220v5.8h5.8V220Zm3.867,3.867h-1.934v-1.934h1.934Z" transform="translate(-184 -220)" />
		</g>
		<g transform="translate(29.973 24.172)">
			<path d="M248,220v5.8h5.8V220Zm3.868,3.867h-1.934v-1.934h1.934Z" transform="translate(-248 -220)" />
		</g>
		<g transform="translate(22.238 31.907)">
			<path d="M184,284v5.8h5.8V284Zm3.867,3.867h-1.934v-1.934h1.934Z" transform="translate(-184 -284)" />
		</g>
		<g transform="translate(29.973 31.907)">
			<path d="M248,284v5.8h5.8V284Zm3.868,3.867h-1.934v-1.934h1.934Z" transform="translate(-248 -284)" />
		</g>
		<g transform="translate(42.619 28.551)">
			<g transform="translate(0 0)">
				<rect width="1.872" height="0.936" transform="translate(0)" />
			</g>
		</g>
		<g transform="translate(46.363 28.551)">
			<g transform="translate(0 0)">
				<rect width="3.743" height="0.936" />
			</g>
		</g>
		<g transform="translate(51.978 28.551)">
			<g transform="translate(0 0)">
				<rect width="1.872" height="0.936" />
			</g>
		</g>
		<g transform="translate(42.619 32.294)">
			<g transform="translate(0 0)">
				<rect width="1.872" height="1.872" transform="translate(0)" />
			</g>
		</g>
		<g transform="translate(46.363 32.294)">
			<g transform="translate(0 0)">
				<rect width="3.743" height="1.872" />
			</g>
		</g>
		<g transform="translate(51.978 32.294)">
			<g transform="translate(0 0)">
				<rect width="1.872" height="1.872" />
			</g>
		</g>
		<g transform="translate(42.619 36.038)">
			<g transform="translate(0 0)">
				<rect width="1.872" height="1.872" transform="translate(0)" />
			</g>
		</g>
		<g transform="translate(46.363 36.038)">
			<g transform="translate(0 0)">
				<rect width="3.743" height="1.872" />
			</g>
		</g>
		<g transform="translate(51.978 36.038)">
			<g transform="translate(0 0)">
				<rect width="1.872" height="1.872" />
			</g>
		</g>
		<g transform="translate(42.619 39.781)">
			<g transform="translate(0 0)">
				<rect width="1.872" height="1.872" transform="translate(0)" />
			</g>
		</g>
		<g transform="translate(46.363 39.781)">
			<g transform="translate(0 0)">
				<rect width="3.743" height="1.872" />
			</g>
		</g>
		<g transform="translate(51.978 39.781)">
			<g transform="translate(0 0)">
				<rect width="1.872" height="1.872" />
			</g>
		</g>
	</g>
</svg>
