<svg xmlns="http://www.w3.org/2000/svg" width="100%" height="100%" viewBox="0 0 13.05 14.477">
  <path id="paperclip" d="M12.263,8.922,11.192,7.851,6.374,3.033A2.271,2.271,0,0,0,3.162,6.245L7.98,11.065a.5.5,0,1,0,.714-.714L3.876,5.532A1.262,1.262,0,0,1,5.66,3.747L10.48,8.565,11.55,9.636a2.272,2.272,0,1,1-3.213,3.212l-.892-.892-5-5L2.092,6.6A3.281,3.281,0,0,1,6.731,1.963l5.353,5.353A.5.5,0,1,0,12.8,6.6L7.445,1.249A4.29,4.29,0,0,0,1.378,7.316l5.353,5.353.893.892a3.281,3.281,0,0,0,4.638-4.64Zm0,0" transform="translate(-0.128 0.001)" fill="#748a9d"/>
</svg>
