<svg id="glasses" xmlns="http://www.w3.org/2000/svg" width="100%" height="100%" viewBox="0 0 13.309 10.533">
  <path id="Path_12710" data-name="Path 12710" d="M13.113,57.561l-1.763-5.6a1.55,1.55,0,0,0-1.932-1.029.368.368,0,1,0,.213.7.812.812,0,0,1,1.012.54v0L11.9,56.192a2.758,2.758,0,0,0-4.093,2.084H5.492A2.759,2.759,0,0,0,1.4,56.243l1.277-4.06v0a.812.812,0,0,1,1.012-.54.368.368,0,1,0,.213-.7A1.551,1.551,0,0,0,1.97,51.965l-1.757,5.6a.285.285,0,0,0-.011.046,2.758,2.758,0,1,0,5.29,1.4H7.825a2.758,2.758,0,0,0,5.484-.417A2.714,2.714,0,0,0,13.113,57.561Zm-10.352,3.1a2.022,2.022,0,1,1,2.022-2.022A2.023,2.023,0,0,1,2.761,60.666Zm7.792-.049A2.022,2.022,0,1,1,12.575,58.6,2.023,2.023,0,0,1,10.553,60.617Z" transform="translate(0 -50.87)" fill="#748a9d"/>
</svg>
