<svg id="Capa_1" width="100%" height="100%" viewBox="0 0 512 512" xmlns="http://www.w3.org/2000/svg"><g><path d="m425.97 249.528h17.412c4.269.022 7.792-3.782 7.479-8.048-3.413-46.548-23.56-90.459-56.729-123.644-33.167-33.184-77.065-53.353-123.608-56.79-4.277-.316-8.074 3.195-8.053 7.479v17.505c0 3.568-2.903 6.472-6.472 6.472s-6.472-2.903-6.472-6.472v-17.505c.022-4.288-3.783-7.795-8.053-7.479-37.851 2.795-73.834 16.509-104.061 39.657-3.288 2.519-3.912 7.226-1.394 10.515 2.518 3.288 7.226 3.913 10.515 1.395 25.749-19.72 56.021-32.022 87.992-35.831v9.249c0 11.839 9.632 21.472 21.472 21.472s21.472-9.632 21.472-21.472v-9.247c39.947 4.778 77.349 22.938 106.053 51.656 28.706 28.721 46.848 66.133 51.604 106.088h-9.158c-11.84 0-21.472 9.632-21.472 21.472s9.632 21.472 21.472 21.472h9.137c-4.796 39.911-22.951 77.275-51.645 105.954-28.696 28.682-66.071 46.819-105.99 51.592v-9.048c0-11.839-9.632-21.472-21.472-21.472s-21.472 9.632-21.472 21.472v9.048c-39.919-4.773-77.294-22.911-105.99-51.592-28.693-28.679-46.849-66.043-51.645-105.954h9.137c11.84 0 21.472-9.632 21.472-21.472 0-11.839-9.632-21.471-21.472-21.471h-9.164c4.335-36.831 19.697-70.841 44.707-98.791 2.763-3.087 2.499-7.829-.588-10.59-3.086-2.763-7.828-2.499-10.59.587-29.052 32.467-46.085 72.491-49.257 115.745-.313 4.263 3.194 8.073 7.479 8.048h17.414c3.568 0 6.472 2.903 6.472 6.472s-2.903 6.472-6.472 6.472h-17.399c-4.292-.024-7.797 3.783-7.479 8.057 3.46 46.503 23.625 90.365 56.783 123.506 33.158 33.142 77.033 53.286 123.541 56.721 4.26.315 8.075-3.2 8.053-7.479v-17.307c0-3.568 2.903-6.472 6.472-6.472s6.472 2.903 6.472 6.472v17.307c-.035 4.265 3.786 7.795 8.053 7.479 46.508-3.435 90.383-23.579 123.541-56.721 33.158-33.141 53.323-77.003 56.783-123.506.318-4.276-3.197-8.079-7.479-8.057h-17.401c-3.568 0-6.472-2.903-6.472-6.472s2.903-6.472 6.472-6.472zm-182.948 56.552c-6.598 0-11.966-6.339-11.966-14.131 0-4.142-3.357-7.5-7.5-7.5s-7.5 3.358-7.5 7.5c0 16.063 12.097 29.131 26.966 29.131h5.478v8.877c0 4.142 3.357 7.5 7.5 7.5s7.5-3.358 7.5-7.5v-8.877h5.478c14.869 0 26.966-13.068 26.966-29.131v-14.422c0-16.063-12.098-29.131-26.967-29.131h-5.477v-42.682h5.478c6.598 0 11.966 6.339 11.966 14.131 0 4.142 3.357 7.5 7.5 7.5s7.5-3.358 7.5-7.5c0-16.063-12.097-29.131-26.966-29.131h-5.478v-8.877c0-4.142-3.357-7.5-7.5-7.5s-7.5 3.358-7.5 7.5v8.877h-5.478c-14.869 0-26.966 13.068-26.966 29.131v14.421c0 16.063 12.098 29.131 26.967 29.131h5.477v42.683zm20.478-42.684h5.477c6.599 0 11.967 6.339 11.967 14.131v14.422c0 7.792-5.368 14.131-11.966 14.131h-5.478zm-20.477-14.999c-6.599 0-11.967-6.339-11.967-14.131v-14.421c0-7.792 5.368-14.131 11.966-14.131h5.478v42.683zm-34.751 107.507c-1.495 3.863.423 8.207 4.286 9.703 13.838 5.358 28.454 8.076 43.441 8.076 65.701 0 119.153-52.838 119.153-117.786s-53.451-117.786-119.152-117.786-119.153 52.839-119.153 117.786c0 35.323 15.834 68.476 43.443 90.956 3.214 2.616 7.938 2.131 10.551-1.081 2.616-3.212 2.132-7.936-1.08-10.551-24.095-19.62-37.914-48.532-37.914-79.324 0-56.676 46.723-102.786 104.153-102.786s104.153 46.109 104.153 102.786-46.722 102.786-104.153 102.786c-13.128 0-25.921-2.376-38.025-7.064-3.86-1.495-8.205.423-9.703 4.285zm282.256-121.376h-11.244c-4.89-51.749-27.695-100.249-64.679-137.233-36.96-36.958-85.424-59.761-137.134-64.67v-11.154c.001-11.839-9.631-21.471-21.471-21.471s-21.472 9.632-21.472 21.471v11.154c-51.71 4.909-100.174 27.711-137.134 64.67-36.983 36.984-59.789 85.484-64.679 137.233h-11.243c-11.84 0-21.472 9.633-21.472 21.472s9.632 21.472 21.472 21.472h11.262c4.929 51.672 27.728 100.1 64.661 137.034 36.96 36.958 85.424 59.761 137.134 64.67v11.353c-.001 11.839 9.631 21.471 21.471 21.471s21.472-9.632 21.472-21.472v-11.353c51.71-4.909 100.174-27.711 137.134-64.67 36.934-36.934 59.732-85.362 64.661-137.034h11.262c11.84 0 21.472-9.632 21.472-21.472-.001-11.839-9.633-21.471-21.473-21.471zm0 27.944h-18.188c-3.957 0-7.233 3.074-7.484 7.023-3.225 50.651-24.837 98.384-60.857 134.404-36.045 36.044-83.811 57.659-134.499 60.862-3.951.25-7.027 3.526-7.027 7.485v18.282c0 3.568-2.903 6.472-6.472 6.472s-6.472-2.903-6.472-6.472v-18.282c0-3.958-3.076-7.235-7.027-7.485-50.688-3.203-98.454-24.818-134.499-60.862-36.021-36.021-57.633-83.753-60.857-134.404-.251-3.949-3.527-7.023-7.484-7.023h-18.19c-3.568 0-6.472-2.903-6.472-6.472 0-3.568 2.903-6.471 6.472-6.471h18.177c3.96 0 7.237-3.079 7.485-7.03 3.183-50.727 24.799-98.527 60.868-134.596 36.045-36.044 83.811-57.659 134.499-60.862 3.951-.25 7.027-3.526 7.027-7.485v-18.085c0-3.568 2.903-6.471 6.472-6.471s6.472 2.903 6.472 6.471v18.084c0 3.958 3.076 7.235 7.027 7.485 50.688 3.203 98.454 24.818 134.499 60.862 36.069 36.069 57.686 83.87 60.868 134.596.248 3.952 3.525 7.03 7.485 7.03h18.177c3.568 0 6.472 2.903 6.472 6.472s-2.903 6.472-6.472 6.472z"/></g></svg>