<svg xmlns="http://www.w3.org/2000/svg" width="42.16" height="51.848" viewBox="0 0 42.16 51.848">
	<g transform="translate(0 0)">
		<g transform="translate(0 0)">
			<path d="M69.062,17.726l10.08-11.11a1.04,1.04,0,0,0-.77-1.737H44.927V3.839a3.839,3.839,0,0,0-7.677,0V48.02A3.839,3.839,0,0,0,41.1,51.848h.031a3.839,3.839,0,0,0,3.839-3.839V30.792H78.362a1.04,1.04,0,0,0,.78-1.727ZM42.847,48.02a1.758,1.758,0,0,1-3.516,0V3.807a1.758,1.758,0,0,1,3.516,0Zm2.081-19.308V6.939l31.042-.01-9.123,10.06a1.04,1.04,0,0,0,0,1.394L76,28.712Z" transform="translate(-37.25)" />
		</g>
	</g>
</svg>
