<svg xmlns="http://www.w3.org/2000/svg" width="17.2" height="17.2" viewBox="0 0 17.2 17.2">
	<g id="Group_3734" data-name="Group 3734" transform="translate(-28 -222.032)">
		<path id="Path_12565" data-name="Path 12565" d="M16.784,8.1,10.862,7.05l1.815-1.815a.5.5,0,0,0-.713-.713L10.15,6.338,9.1.416a.5.5,0,0,0-.992,0L7.05,6.338,5.235,4.523a.5.5,0,0,0-.713.713L6.338,7.05.416,8.1a.5.5,0,0,0,0,.992L6.338,10.15,4.523,11.965a.5.5,0,1,0,.713.713L7.05,10.862,8.1,16.784a.5.5,0,0,0,.992,0l1.054-5.922,1.815,1.815a.5.5,0,1,0,.713-.713L10.862,10.15,16.784,9.1a.5.5,0,0,0,0-.992ZM10.212,9.242a.5.5,0,0,0-.268.14l-.563.563a.5.5,0,0,0-.14.268L8.6,13.819l-.642-3.607a.5.5,0,0,0-.14-.268l-.563-.563a.5.5,0,0,0-.268-.14L3.381,8.6l3.607-.642a.5.5,0,0,0,.268-.14l.563-.563a.5.5,0,0,0,.14-.268L8.6,3.381l.642,3.607a.5.5,0,0,0,.14.268l.563.563a.5.5,0,0,0,.268.14l3.607.642Z" transform="translate(28 222.032)"  />
		<path id="Path_12566" data-name="Path 12566" d="M26.1,30.762a.5.5,0,0,0,.658-.273,7.366,7.366,0,0,1,3.986-3.974.5.5,0,1,0-.382-.932A8.38,8.38,0,0,0,25.826,30.1.5.5,0,0,0,26.1,30.762Z" transform="translate(3.079 197.345)"  />
		<path id="Path_12567" data-name="Path 12567" d="M330.459,26.515a7.366,7.366,0,0,1,3.974,3.986.5.5,0,0,0,.932-.382,8.381,8.381,0,0,0-4.521-4.534.5.5,0,0,0-.385.931Z" transform="translate(-291.057 197.345)"  />
		<path id="Path_12568" data-name="Path 12568" d="M334.741,330.641a.5.5,0,0,0-.658.273,7.366,7.366,0,0,1-3.986,3.974.5.5,0,1,0,.382.932,8.381,8.381,0,0,0,4.534-4.521A.5.5,0,0,0,334.741,330.641Z" transform="translate(-290.706 -97.465)"  />
		<path id="Path_12569" data-name="Path 12569" d="M30.732,334.536a7.366,7.366,0,0,1-3.974-3.986.5.5,0,1,0-.932.382,8.381,8.381,0,0,0,4.521,4.534.5.5,0,1,0,.385-.931Z" transform="translate(3.079 -97.112)"  />
		<path id="Path_12570" data-name="Path 12570" d="M241.492,241a.5.5,0,1,0,.5.5A.51.51,0,0,0,241.492,241Z" transform="translate(-204.892 -10.872)"  />
	</g>
</svg>
