<svg id="Group_4019" data-name="Group 4019" xmlns="http://www.w3.org/2000/svg" width="150.306" height="304.375" viewBox="0 0 150.306 304.375">
  <ellipse id="Ellipse_512" data-name="Ellipse 512" cx="18.683" cy="18.683" rx="18.683" ry="18.683" transform="translate(88.79 166.185)" fill="#f2f2f2"/>
  <ellipse id="Ellipse_514" data-name="Ellipse 514" cx="23.354" cy="23.354" rx="23.354" ry="23.354" transform="translate(49.044 8.151)" fill="#2f2e41"/>
  <path id="Path_12825" data-name="Path 12825" d="M554.922,571.654h9.543l4.541-36.813H554.92Z" transform="translate(-439.367 -276.141)" fill="#a0616a"/>
  <path id="Path_12826" data-name="Path 12826" d="M555.515,578.626H537.109v11.589h30A11.589,11.589,0,0,0,555.515,578.626Z" transform="translate(-423.599 -285.84)" fill="#2f2e41"/>
  <path id="Path_12827" data-name="Path 12827" d="M649.922,571.654h9.543l4.541-36.813H649.92Z" transform="translate(-608.323 -276.141)" fill="#a0616a"/>
  <path id="Path_12828" data-name="Path 12828" d="M650.515,578.626H632.109v11.589h30A11.589,11.589,0,0,0,650.515,578.626Z" transform="translate(-592.554 -285.84)" fill="#2f2e41"/>
  <ellipse id="Ellipse_515" data-name="Ellipse 515" cx="19.12" cy="19.12" rx="19.12" ry="19.12" transform="translate(56.827 16.755)" fill="#a0616a"/>
  <path id="Path_12829" data-name="Path 12829" d="M756.884,489.249l-8.555-19.657a24.431,24.431,0,0,1,5.41-27.714,24.791,24.791,0,0,1,2.39-2.079,24.082,24.082,0,0,1,14.783-5.115A25.05,25.05,0,0,1,781.343,437c.281.125.553.257.833.389.537.257,1.066.537,1.58.825a24.661,24.661,0,0,1,12.222,18.59l3.776,31.637c.95,2.483,34.829,92.164,22.98,160.631a3.478,3.478,0,0,1-2.974,2.857l-12.012,1.635a3.5,3.5,0,0,1-3.9-2.748L783.694,554.75a2.727,2.727,0,0,0-5.293-.179L749.924,655.6a3.481,3.481,0,0,1-3.355,2.553,3.99,3.99,0,0,1-.677-.062l-14.674-2.826a3.481,3.481,0,0,1-2.826-3.744C730.548,627.475,742.007,507.021,756.884,489.249Z" transform="translate(-692.332 -372.57)" fill="#2f2e41"/>
  <path id="Path_12830" data-name="Path 12830" d="M733.053,419.425a7.828,7.828,0,0,1-8.247,8.722L714.118,453.83l-8.084-11.984,11.389-22.553a7.871,7.871,0,0,1,15.631.131Z" transform="translate(-582.8 -367.637)" fill="#a0616a"/>
  <path id="Path_12831" data-name="Path 12831" d="M817.86,529.032a7.828,7.828,0,0,1-6.56-10.053L788.813,502.6l13.538-5.07,19.278,16.33a7.871,7.871,0,0,1-3.77,15.17Z" transform="translate(-740.852 -386.492)" fill="#a0616a"/>
  <path id="Path_12832" data-name="Path 12832" d="M748.961,476.707a13.278,13.278,0,0,0,2.568-.253,12.693,12.693,0,0,0,9.3-7.486L775.8,450.71a3.5,3.5,0,0,0-.865-5.2l-10.653-6.594a3.5,3.5,0,0,0-4.839,1.16l-10.553,17.387-20.21-14.936a7.568,7.568,0,0,0-8.8,12.114l20.172,18.4A12.653,12.653,0,0,0,748.961,476.707Z" transform="translate(-635.296 -373.391)" fill="#2f2e41"/>
  <path id="Path_12833" data-name="Path 12833" d="M832.144,505.79h.082a3.509,3.509,0,0,0,2.577-1.222l9.471-11.049a3.5,3.5,0,0,0-.716-5.195L825.823,476.5l16.067-19.316A7.568,7.568,0,0,0,830.3,447.7l-19.527,19.083a12.864,12.864,0,0,0,2.861,20.973l15.96,16.935a3.509,3.509,0,0,0,2.549,1.1Z" transform="translate(-773.089 -375.016)" fill="#2f2e41"/>
  <path id="Path_12834" data-name="Path 12834" d="M798.4,462.078a3.605,3.605,0,0,0,.455-.029,3.473,3.473,0,0,0,2.888-2.389l7.117-21.82a2.4,2.4,0,0,0-1.241-2.9l-.231-.109c-.209-.1-.417-.2-.629-.292a25.357,25.357,0,0,0-10.59-2.353,24.387,24.387,0,0,0-13.36,4.014,2.437,2.437,0,0,0-.7,3.343l13.351,20.916A3.468,3.468,0,0,0,798.4,462.078Z" transform="translate(-717.588 -372.016)" fill="#e6e6e6"/>
  <ellipse id="Ellipse_516" data-name="Ellipse 516" cx="7.642" cy="7.642" rx="7.642" ry="7.642" transform="translate(46.344 5.795)" fill="#2f2e41"/>
  <path id="Path_12835" data-name="Path 12835" d="M798.915,361.365h0a20.24,20.24,0,0,1,20.24,20.24v8.563H808.623l-5.037-8.563-1.511,8.563H770.111l8.563-8.563a20.24,20.24,0,0,1,20.24-20.24Z" transform="translate(-718.732 -356.328)" fill="#2f2e41"/>
  <path id="Path_12836" data-name="Path 12836" d="M884.867,363.1A11.794,11.794,0,0,0,872.037,355c-4.87.814-8.721,4.729-11.015,9.1s-3.354,9.266-4.9,13.957-3.73,9.407-7.624,12.443-9.869,3.86-13.693.737a15.662,15.662,0,0,0,29.175,5.59c2.018-3.59,2.539-7.8,3.137-11.873s1.376-8.291,3.785-11.631,6.919-5.522,10.746-4Z" transform="translate(-834.809 -354.895)" fill="#2f2e41"/>
</svg>
