<svg xmlns="http://www.w3.org/2000/svg" width="128.619" height="207.518" viewBox="0 0 128.619 207.518">
  <g id="Group_4307" data-name="Group 4307" transform="translate(-529.099 -129.257)">
    <path id="Path_13560" data-name="Path 13560" d="M880.59,563.317c0-5.4-20.309-9.77-45.362-9.77s-45.362,4.374-45.362,9.77c0,3.458,8.35,6.495,20.936,8.231v53.531a4.536,4.536,0,1,0,9.073,0V572.512c4.8.372,9.964.575,15.353.575s10.557-.2,15.353-.575v52.567a4.536,4.536,0,1,0,9.073,0V571.548C872.24,569.812,880.59,566.775,880.59,563.317Z" transform="translate(-222.871 -292.841)" fill="#ccc"/>
    <circle id="Ellipse_527" data-name="Ellipse 527" cx="19.541" cy="19.541" r="19.541" transform="translate(597.831 141.966)" fill="#2f2e41"/>
    <path id="Path_13561" data-name="Path 13561" d="M580.439,400.747h-8.556l-4.07-33H580.44Z" transform="translate(-11.696 -72.052)" fill="#a0616a"/>
    <path id="Path_13562" data-name="Path 13562" d="M560.391,411.531h16.5V421.92H550A10.389,10.389,0,0,1,560.391,411.531Z" transform="translate(-6.315 -85.28)" fill="#2f2e41"/>
    <path id="Path_13563" data-name="Path 13563" d="M563.234,392.924l-8.164-2.562,6-32.706,12.048,3.78Z" transform="translate(-7.846 -69.003)" fill="#a0616a"/>
    <path id="Path_13564" data-name="Path 13564" d="M10.389,0h16.5V10.389H0A10.389,10.389,0,0,1,10.389,0Z" transform="translate(532.21 314.086) rotate(17.423)" fill="#2f2e41"/>
    <path id="Path_13565" data-name="Path 13565" d="M773.141,595.39a3.113,3.113,0,0,1-1.1-.2l-6.294-2.36a3.151,3.151,0,0,1-1.964-3.618c1.585-7.125,6.986-31.384,9.943-44.4,3.508-15.434,54.674-18.3,56.85-18.416l.179-.01,5.756,7.233c2.08,6.685,1.421,11.9-1.959,15.5-9.863,10.5-39.31,3.985-42.821,3.16l-15.652,41.085A3.15,3.15,0,0,1,773.141,595.39Z" transform="translate(-214.971 -284.637)" fill="#2f2e41"/>
    <path id="Path_13566" data-name="Path 13566" d="M786.141,602.39a3.111,3.111,0,0,1-1.1-.2l-6.295-2.36a3.151,3.151,0,0,1-1.964-3.617c1.585-7.125,6.986-31.384,9.943-44.4,3.507-15.434,54.674-18.3,56.85-18.416l.179-.01,5.756,7.233c2.08,6.685,1.421,11.9-1.959,15.5-9.863,10.5-39.31,3.985-42.821,3.16l-15.651,41.085A3.15,3.15,0,0,1,786.141,602.39Z" transform="translate(-218.898 -286.752)" fill="#2f2e41"/>
    <path id="Path_13567" data-name="Path 13567" d="M758.43,486.985a7.338,7.338,0,0,1,.618.978l34.42,3.626,4.955-6.793,11.229,6.138-9.732,16.485-42.213-10.763a7.325,7.325,0,1,1,.723-9.671Z" transform="translate(-209.398 -271.856)" fill="#a0616a"/>
    <path id="Path_13568" data-name="Path 13568" d="M862.752,518.236a3.142,3.142,0,0,1-1.43-.35c-6.883-3.5-20.285-9.56-32.713-10.829a3.065,3.065,0,0,1-2.16-1.221,3.153,3.153,0,0,1-.582-2.45c1.121-6.208,3.694-22.016,3.363-34.686A17.165,17.165,0,0,1,842.2,451.625h0a55.735,55.735,0,0,1,6.918-1.364,17.3,17.3,0,0,1,19.233,20.072c-2.216,13.13-4.45,31.467-2.509,44.269a3.145,3.145,0,0,1-1.269,3.035,3.091,3.091,0,0,1-1.819.6Z" transform="translate(-233.733 -261.595)" fill="#c54d39"/>
    <path id="Path_13569" data-name="Path 13569" d="M826.378,487.264a3.139,3.139,0,0,1-1.247-.26l-8.966-3.881a3.144,3.144,0,0,1-1.634-4.129l6.931-16.011a8.025,8.025,0,1,1,14.73,6.376l-6.931,16.011A3.148,3.148,0,0,1,826.378,487.264Z" transform="translate(-230.245 -264.018)" fill="#c54d39"/>
    <circle id="Ellipse_528" data-name="Ellipse 528" cx="17.141" cy="17.141" r="17.141" transform="translate(599.517 148.938)" fill="#a0616a"/>
    <path id="Path_13570" data-name="Path 13570" d="M836.026,400.764a61.825,61.825,0,0,0,26.747,8.813l-2.819-3.378a20.719,20.719,0,0,0,6.4,1.271,7.009,7.009,0,0,0,5.713-2.674,6.52,6.52,0,0,0,.436-6.023,12.349,12.349,0,0,0-3.885-4.857,23.127,23.127,0,0,0-21.526-3.847,13.822,13.822,0,0,0-6.429,4.124c-1.625,2-4.753,3.791-3.921,6.233Z" transform="translate(-236.817 -243.106)" fill="#2f2e41"/>
    <path id="Path_13571" data-name="Path 13571" d="M838.22,379.761a52.68,52.68,0,0,0-19.166-12.394c-4.633-1.716-9.676-2.777-14.52-1.8s-9.424,4.326-10.776,9.078c-1.1,3.886.036,8.07,1.751,11.728s4,7.05,5.391,10.845a24.752,24.752,0,0,1-24.907,33.193c4.759.638,9.146,2.875,13.8,4.065s10.142,1.11,13.6-2.223c3.657-3.526,3.731-9.259,3.554-14.336q-.394-11.321-.789-22.643c-.134-3.849-.248-7.822,1.14-11.414s4.687-6.739,8.538-6.706c2.919.025,5.5,1.793,7.843,3.537s4.818,3.6,7.726,3.864,6.227-1.892,6.01-4.8" transform="translate(-218.681 -235.936)" fill="#2f2e41"/>
    <path id="Path_13572" data-name="Path 13572" d="M816.415,525.33a7.68,7.68,0,1,1,2.96-14.77h0a7.381,7.381,0,0,1,.915.464l31.224-14.018.877-8.468,13.459-.36-.089,14.1a7.593,7.593,0,0,1-5.486,7.218l-36.515,10.394a7.154,7.154,0,0,1-.25.711A7.708,7.708,0,0,1,816.415,525.33Z" transform="translate(-228.575 -273.092)" fill="#a0616a"/>
    <path id="Path_13573" data-name="Path 13573" d="M882.275,485.983a3.138,3.138,0,0,1-1.23.333l-9.752.6a3.144,3.144,0,0,1-3.327-2.942L866.9,466.56a8.025,8.025,0,1,1,16.021-.986l1.071,17.414a3.148,3.148,0,0,1-1.712,3Z" transform="translate(-246.139 -263.987)" fill="#c54d39"/>
    <path id="Path_13574" data-name="Path 13574" d="M2.443,0H57.575a2.443,2.443,0,0,1,2.443,2.443h0a2.443,2.443,0,0,1-2.443,2.443H2.443A2.443,2.443,0,0,1,0,2.443H0A2.443,2.443,0,0,1,2.443,0Z" transform="translate(617.384 253.999) rotate(180)" fill="#3f3d56"/>
    <path id="Path_13575" data-name="Path 13575" d="M745.07,520.669v-34.2a4.541,4.541,0,0,1,4.536-4.536h62.112a4.541,4.541,0,0,1,4.536,4.536v34.2a4.541,4.541,0,0,1-4.536,4.536H749.606a4.541,4.541,0,0,1-4.536-4.536Z" transform="translate(-209.338 -271.206)" fill="#3f3d56"/>
    <circle id="Ellipse_529" data-name="Ellipse 529" cx="4.187" cy="4.187" r="4.187" transform="translate(567.136 228.177)" fill="#fff"/>
  </g>
</svg>
