<svg xmlns="http://www.w3.org/2000/svg" width="104.748" height="227.082" viewBox="0 0 104.748 227.082">
  <g id="Group_4308" data-name="Group 4308" transform="translate(13910.807 -6383.098)">
    <path id="Path_12698" data-name="Path 12698" d="M583.126,462.272a7.126,7.126,0,0,1-5.512,1.04,6.578,6.578,0,0,1-4.407-3.212l-23.437,2.79,5.386-10.131,21.43-1.1a6.987,6.987,0,0,1,8.4,2.638,5.824,5.824,0,0,1-1.864,7.971Z" transform="translate(-14501.824 6170.25) rotate(-17)" fill="#ffb8b8"/>
    <path id="Path_12676" data-name="Path 12676" d="M324.681,534.659a6.1,6.1,0,0,1-5.282-7.729l-15.562-14.486,8.228-2.087,15.3,12.411a6.138,6.138,0,0,1-2.687,11.89Z" transform="translate(-14202.625 5961.542)" fill="#ffb8b8"/>
    <path id="Path_12677" data-name="Path 12677" d="M184.4,547.673h7.443l3.541-28.708H184.4Z" transform="translate(-14040.859 6055.594)" fill="#ffb8b8"/>
    <path id="Path_12678" data-name="Path 12678" d="M0,0H23.392V9.038H9.038A9.038,9.038,0,0,1,0,0H0Z" transform="translate(-13834.661 6610.179) rotate(179.997)" fill="#2f2e41"/>
    <path id="Path_12679" data-name="Path 12679" d="M100.345,539.447l7.193,1.915,10.807-26.831L107.73,511.7Z" transform="translate(-14007.833 6058.447)" fill="#ffb8b8"/>
    <path id="Path_12680" data-name="Path 12680" d="M0,0H23.392V9.038H9.038A9.038,9.038,0,0,1,0,0H0Z" transform="matrix(-0.966, -0.257, 0.257, -0.966, -13888.202, 6610.18)" fill="#2f2e41"/>
    <path id="Path_12681" data-name="Path 12681" d="M349.131,632.207H337.774A2.871,2.871,0,0,1,334.9,629.6l-6.894-71.6a2.275,2.275,0,0,0-4.444-.434l-20.018,66.9a2.879,2.879,0,0,1-3.46,1.971L289.522,623.8a2.882,2.882,0,0,1-2.093-3.513c.172-.674,17.248-67.4,17.4-68.09,3.869-28.514,8.5-36.154,10.984-40.259.206-.34.395-.652.565-.947.213-.369,1.525-4.034,2.358-6.414a2.908,2.908,0,0,1,1.478-1.808c10.448-5.343,22.673-1.645,26.171-.384a2.843,2.843,0,0,1,1.419,1.1c10.493,15.828,5.344,107.753,4.2,126.021A2.884,2.884,0,0,1,349.131,632.207Z" transform="translate(-14196.143 5965.625)" fill="#2f2e41"/>
    <circle id="Ellipse_498" data-name="Ellipse 498" cx="14.911" cy="14.911" r="14.911" transform="translate(-13891.231 6386.664)" fill="#ffb8b8"/>
    <path id="Path_12682" data-name="Path 12682" d="M326.7,478.573l-.107-.1c-.2-.194-20.068-19.658-17.5-37.654,1.1-7.7,7.328-12.616,18.011-14.225A16.473,16.473,0,0,1,345.322,438.2l10.563,36.112Z" transform="translate(-14204.602 5994.525)" fill="#307f8c"/>
    <path id="Path_12683" data-name="Path 12683" d="M310.82,500.024l-14.156-14.067a7.975,7.975,0,0,1-2.112-7.523l6.853-27.877a6.286,6.286,0,1,1,12.135,3.274l-7.215,24.524,11.667,12.528Z" transform="translate(-14198.888 5986.917)" fill="#307f8c"/>
    <path id="Path_12685" data-name="Path 12685" d="M394.6,452.656l-18.423,7.961a7.776,7.776,0,0,1-7.575-.812l-23.427-16.786a6.286,6.286,0,1,1,7.549-10.05l20.088,15.81,15.967-6.177Z" transform="translate(-14217.835 5992.472)" fill="#307f8c"/>
    <path id="Path_12686" data-name="Path 12686" d="M321.7,387.339c1.839-2.3,5.276-2.429,7.8-3.949,3.31-1.991,4.678-6.442,3.612-10.154a12.74,12.74,0,0,0-7.818-7.989,21.576,21.576,0,0,0-11.423-.732c-5.664,1-11.241,3.64-14.7,8.238s-4.334,11.332-1.2,16.156c1.439,2.217,3.66,4.048,4.235,6.628.754,3.387-1.622,6.654-4.167,9.013-2.9,2.687-6.227,4.938-8.768,7.967s-4.235,7.167-3.076,10.947c.971,3.167,3.8,5.5,6.9,6.668a29.235,29.235,0,0,0,9.787,1.4c3.216.063,6.632-.015,9.341-1.749a10.862,10.862,0,0,0,4.563-8.819,20.884,20.884,0,0,0-2.577-9.892,38.032,38.032,0,0,1-2.6-5.573,7.813,7.813,0,0,1,.261-5.988,7.466,7.466,0,0,1,5.223-3.457c.11-.022.226-.041.348-.058a4.491,4.491,0,0,0,3.845-5.238A4.386,4.386,0,0,1,321.7,387.339Z" transform="translate(-14195.549 6019.013)" fill="#2f2e41"/>
  </g>
</svg>
