<svg xmlns="http://www.w3.org/2000/svg" width="54.094" height="54.089" viewBox="0 0 54.094 54.089">
	<g transform="translate(0 0)">
		<path d="M27.015.022a27.087,27.087,0,0,0-2.9.156A25.531,25.531,0,0,0,21.5.6q-.25.052-.5.11A27.048,27.048,0,0,0,7.653,8.177q-.507.52-.993,1.07A27.078,27.078,0,0,0,46.381,46.023q.508-.52.993-1.07A27.077,27.077,0,0,0,27.015.022ZM8.856,9.531c.143-.148.291-.29.436-.433.168-.165.335-.331.506-.491.151-.141.306-.276.46-.413.174-.154.348-.309.526-.458.157-.133.319-.26.479-.388.181-.144.361-.289.547-.428.164-.124.331-.244.5-.361.187-.134.375-.271.565-.4.171-.116.343-.227.516-.338.193-.124.387-.246.583-.361q.265-.158.533-.31.3-.171.6-.333.271-.144.542-.283c.206-.1.413-.2.622-.3.181-.086.368-.171.554-.253l.642-.271c.187-.077.373-.152.561-.224.218-.083.44-.161.661-.238.189-.066.377-.132.569-.194.225-.072.451-.139.679-.2.19-.055.379-.112.57-.163.073-.019.146-.034.219-.053A22.4,22.4,0,0,0,14.959,12a30.316,30.316,0,0,1-6.185-2.38C8.8,9.589,8.83,9.558,8.856,9.531Zm-1.3,1.453a31.36,31.36,0,0,0,6.85,2.726A46.837,46.837,0,0,0,12.585,26.2H1.763A25.218,25.218,0,0,1,7.558,10.984Zm0,32.232A25.222,25.222,0,0,1,1.763,28H12.585A46.833,46.833,0,0,0,14.408,40.49,31.381,31.381,0,0,0,7.558,43.216Zm12.945,8.3c-.182-.046-.371-.106-.559-.161-.228-.067-.458-.134-.683-.207-.19-.061-.378-.127-.566-.193-.222-.077-.444-.155-.663-.239-.188-.071-.373-.146-.559-.222l-.645-.271q-.276-.122-.55-.251c-.21-.1-.42-.2-.632-.305-.181-.09-.361-.181-.542-.279-.2-.109-.406-.221-.608-.337-.181-.1-.352-.2-.526-.308-.2-.119-.394-.242-.588-.367-.171-.109-.343-.22-.512-.334-.192-.13-.383-.265-.571-.4-.165-.118-.33-.236-.493-.361-.187-.141-.37-.286-.552-.432-.16-.127-.319-.254-.475-.385-.181-.15-.355-.306-.53-.461-.153-.136-.308-.271-.458-.41-.172-.161-.339-.328-.507-.493-.145-.144-.293-.285-.436-.432-.026-.028-.051-.057-.078-.084A30.294,30.294,0,0,1,14.955,42.2a22.4,22.4,0,0,0,5.769,9.367C20.65,51.551,20.576,51.536,20.5,51.516Zm5.61.785c-3.862-.549-7.248-4.58-9.378-10.532a45.869,45.869,0,0,1,9.378-1.1Zm0-13.442a47.533,47.533,0,0,0-9.945,1.186A45.154,45.154,0,0,1,14.391,28H26.113V38.86Zm0-12.663H14.391a45.145,45.145,0,0,1,1.777-12.043,47.549,47.549,0,0,0,9.945,1.186Zm0-12.663a45.821,45.821,0,0,1-9.378-1.1c2.13-5.953,5.516-9.984,9.378-10.532Zm20.36-2.551A25.222,25.222,0,0,1,52.268,26.2H41.445A46.833,46.833,0,0,0,39.623,13.71,31.393,31.393,0,0,0,46.473,10.984ZM33.52,2.683c.19.047.378.107.566.162.228.067.458.134.683.207.19.061.378.127.566.193.222.077.444.155.663.239.188.071.373.146.559.222l.645.271q.276.122.55.251c.21.1.42.2.632.305.181.09.361.181.542.279.2.109.406.221.608.337.181.1.352.2.526.308.2.119.394.242.589.367.171.109.343.22.512.334.192.13.382.264.57.4.166.118.331.237.495.361.186.14.368.285.551.431.159.126.319.253.475.385.181.15.355.306.53.461.153.136.308.271.458.41.172.161.339.328.507.493.145.144.293.285.436.432.026.028.051.057.078.084a30.3,30.3,0,0,1-6.185,2.381A22.4,22.4,0,0,0,33.3,2.629C33.373,2.648,33.447,2.663,33.52,2.683Zm-5.6-.784c3.862.549,7.248,4.58,9.378,10.532a45.87,45.87,0,0,1-9.378,1.1Zm0,13.442a47.533,47.533,0,0,0,9.945-1.186A45.154,45.154,0,0,1,39.64,26.2H27.918Zm0,12.663H39.64a45.145,45.145,0,0,1-1.777,12.043h0a47.548,47.548,0,0,0-9.945-1.186Zm0,24.3V40.665a45.821,45.821,0,0,1,9.378,1.1C35.166,47.722,31.78,51.753,27.918,52.3Zm17.257-7.632c-.143.147-.29.289-.435.432-.168.165-.336.332-.508.493-.15.14-.3.271-.458.411-.175.155-.349.31-.528.46-.158.132-.319.259-.479.387-.181.144-.361.289-.547.428-.164.124-.331.244-.5.361-.187.134-.375.271-.565.4-.171.116-.343.227-.516.338q-.29.187-.584.361c-.181.106-.353.209-.531.311q-.3.171-.6.333-.271.144-.542.283c-.206.1-.413.2-.622.3-.181.086-.368.171-.554.253l-.642.271c-.187.076-.373.152-.561.223-.22.084-.441.162-.663.239-.188.066-.375.132-.566.193-.226.073-.451.14-.681.206-.189.056-.378.112-.569.163-.073.019-.146.034-.219.053A22.4,22.4,0,0,0,39.071,42.2a30.316,30.316,0,0,1,6.185,2.38C45.226,44.61,45.2,44.642,45.175,44.669Zm1.3-1.453a31.36,31.36,0,0,0-6.85-2.726A46.838,46.838,0,0,0,41.445,28H52.268A25.218,25.218,0,0,1,46.473,43.216Z" transform="translate(0 -0.022)" />
	</g>
</svg>
