<svg xmlns="http://www.w3.org/2000/svg" width="100%" height="100%" viewBox="0 0 24.75 17.402">
  <g id="Mask_Group_3827" data-name="Mask Group 3827" transform="translate(-173 -32.799)">
    <g id="menu" transform="translate(173 29.125)">
      <g id="Group_3735" data-name="Group 3735">
        <g id="Group_3734" data-name="Group 3734">
          <path id="Path_12706" data-name="Path 12706" d="M23.783,11.408H.967a.967.967,0,0,0,0,1.934H23.783a.967.967,0,0,0,0-1.934Z" fill="#fff"/>
        </g>
      </g>
      <g id="Group_3737" data-name="Group 3737">
        <g id="Group_3736" data-name="Group 3736">
          <path id="Path_12707" data-name="Path 12707" d="M23.783,3.674H.967a.967.967,0,0,0,0,1.934H23.783a.967.967,0,0,0,0-1.934Z" fill="#fff"/>
        </g>
      </g>
      <g id="Group_3739" data-name="Group 3739">
        <g id="Group_3738" data-name="Group 3738">
          <path id="Path_12708" data-name="Path 12708" d="M23.783,19.143H.967a.967.967,0,0,0,0,1.934H23.783a.967.967,0,0,0,0-1.934Z" fill="#fff"/>
        </g>
      </g>
    </g>
  </g>
</svg>
