<svg xmlns="http://www.w3.org/2000/svg" width="198.554" height="253.854" viewBox="0 0 198.554 253.854">
  <g id="Group_4222" data-name="Group 4222" transform="translate(-126.886)">
    <path id="Path_13523" data-name="Path 13523" d="M602.972,443.7H424.5V260.586a70.735,70.735,0,0,1,70.655-70.655h37.161a70.735,70.735,0,0,1,70.655,70.655Z" transform="translate(-297.614 -189.931)" fill="#f2f2f2"/>
    <path id="Path_13524" data-name="Path 13524" d="M565.81,443.705H424.5V260.588a70.108,70.108,0,0,1,13.493-41.535c.325-.442.648-.879.982-1.311a70.638,70.638,0,0,1,15.038-14.6c.323-.235.646-.465.975-.7a70.49,70.49,0,0,1,15.389-8.048c.323-.122.652-.245.981-.363a70.422,70.422,0,0,1,15.211-3.587c.322-.044.652-.078.982-.113a71.528,71.528,0,0,1,15.209,0c.329.034.659.069.985.113a70.406,70.406,0,0,1,15.207,3.587c.329.118.658.24.982.363a70.313,70.313,0,0,1,15.21,7.929c.328.226.657.456.981.687a71.392,71.392,0,0,1,8.989,7.61,70.562,70.562,0,0,1,6.222,7.115c.333.43.656.867.981,1.309a70.11,70.11,0,0,1,13.494,41.535Z" transform="translate(-297.614 -189.933)" fill="#ccc"/>
    <circle id="Ellipse_520" data-name="Ellipse 520" cx="7.823" cy="7.823" r="7.823" transform="translate(248.883 156.224)" fill="#7f482c"/>
    <path id="Path_13525" data-name="Path 13525" d="M585.353,483.617h-5.995l-2.852-23.122h8.848Z" transform="translate(-294.615 -235.329)" fill="#ffb8b8"/>
    <path id="Path_13526" data-name="Path 13526" d="M565.974,504.28h11.561v7.279h-18.84A7.279,7.279,0,0,1,565.974,504.28Z" transform="translate(-285.513 -257.705)" fill="#2f2e41"/>
    <path id="Path_13527" data-name="Path 13527" d="M646.353,483.617h-5.995l-2.852-23.122h8.848Z" transform="translate(-325.788 -235.329)" fill="#ffb8b8"/>
    <path id="Path_13528" data-name="Path 13528" d="M626.974,504.28h11.561v7.279h-18.84A7.279,7.279,0,0,1,626.974,504.28Z" transform="translate(-316.686 -257.705)" fill="#2f2e41"/>
    <path id="Path_13529" data-name="Path 13529" d="M697.15,461.8a5.253,5.253,0,0,1,2.205-7.747l20.378-56.166,10.027,5.472-23.267,53.674a5.281,5.281,0,0,1-9.343,4.766Z" transform="translate(-436.485 -296.206)" fill="#ffb8b8"/>
    <path id="Path_13530" data-name="Path 13530" d="M806.26,479.8a5.253,5.253,0,0,1-1.415-7.929l-6.313-59.414,11.411.521,2.624,58.441a5.281,5.281,0,0,1-6.307,8.381Z" transform="translate(-488.758 -303.65)" fill="#ffb8b8"/>
    <circle id="Ellipse_521" data-name="Ellipse 521" cx="12.009" cy="12.009" r="12.009" transform="translate(287.288 67.263)" fill="#ffb8b8"/>
    <path id="Path_13531" data-name="Path 13531" d="M776.339,452.6H740.133l.044-.282c.065-.421,6.453-42.266,1.742-55.955a5.776,5.776,0,0,1,2.968-7.131h0c6.734-3.171,19.66-7.076,30.57,2.4a13.806,13.806,0,0,1,4.625,11.44Z" transform="translate(-458.914 -289.963)" fill="#c54d39"/>
    <path id="Path_13532" data-name="Path 13532" d="M737.318,420.435l-16.3-3.307,7.641-18.106a6.844,6.844,0,1,1,13.254,3.422Z" transform="translate(-449.145 -294.159)" fill="#c54d39"/>
    <path id="Path_13533" data-name="Path 13533" d="M795.886,427.9l-.98-22.464c-.743-4.223,1.674-8.215,5.392-8.867s7.35,2.279,8.1,6.533l3.683,20.99Z" transform="translate(-486.836 -295.484)" fill="#c54d39"/>
    <path id="Path_13534" data-name="Path 13534" d="M773.1,517.049c5.826,22.188,6.461,50.4,4.89,81.168l-7.823-.978-14.18-58.676-7.823,59.654-8.8-.489c-2.629-32.286-5.19-60-.978-78.234Z" transform="translate(-456.875 -357.1)" fill="#2f2e41"/>
    <path id="Path_13535" data-name="Path 13535" d="M769.949,343a3.879,3.879,0,0,1-6.693-2.155,3.945,3.945,0,0,1,0-.761c.151-1.444.985-2.755.785-4.28a2.245,2.245,0,0,0-.411-1.051c-1.785-2.391-5.976,1.069-7.661-1.095-1.033-1.327.181-3.416-.611-4.9-1.046-1.958-4.146-.992-6.09-2.064-2.163-1.193-2.033-4.511-.61-6.529a10.27,10.27,0,0,1,7.786-3.964,20.886,20.886,0,0,1,8.8,1.717c3.189,1.243,6.351,2.96,8.313,5.764,2.386,3.41,2.616,7.994,1.422,11.98C774.257,338.087,771.779,341.05,769.949,343Z" transform="translate(-462.739 -254.445)" fill="#2f2e41"/>
    <path id="Path_13537" data-name="Path 13537" d="M564.244,445.587H500.678a3.161,3.161,0,0,1-3.178-3.137V300.567a3.161,3.161,0,0,1,3.178-3.137h63.565a3.161,3.161,0,0,1,3.178,3.137V442.45a3.161,3.161,0,0,1-3.178,3.137Z" transform="translate(-334.919 -244.867)" fill="#fff"/>
    <rect id="Rectangle_2025" data-name="Rectangle 2025" width="69.922" height="0.978" transform="translate(162.581 98.472)" fill="#ccc"/>
    <rect id="Rectangle_2026" data-name="Rectangle 2026" width="69.922" height="0.978" transform="translate(162.825 154.268)" fill="#ccc"/>
    <rect id="Rectangle_2027" data-name="Rectangle 2027" width="0.978" height="148.645" transform="translate(184.584 52.564)" fill="#ccc"/>
    <rect id="Rectangle_2028" data-name="Rectangle 2028" width="0.978" height="148.645" transform="translate(209.032 52.564)" fill="#ccc"/>
  </g>
</svg>
