<svg xmlns="http://www.w3.org/2000/svg" width="14.781" height="17.2" viewBox="0 0 14.781 17.2">
  <path id="Path_12459" data-name="Path 12459" d="M198.971,182.77c-.427,0-.731.18-.731.446v3.617c0,.228.3.456.731.456.408,0,.741-.228.741-.456v-3.617C199.712,182.95,199.379,182.77,198.971,182.77Z" transform="translate(-191.58 -176.63)" fill="#fff"/>
  <path id="Path_12460" data-name="Path 12460" d="M197.608,116.36a.684.684,0,1,0,.769.674A.735.735,0,0,0,197.608,116.36Z" transform="translate(-190.218 -112.451)" fill="#fff"/>
  <path id="Path_12461" data-name="Path 12461" d="M7.391,0A7.387,7.387,0,0,0,5.154,14.428l1.68,2.478a.672.672,0,0,0,1.112,0l1.68-2.478A7.386,7.386,0,0,0,7.391,0ZM9.025,13.206a.672.672,0,0,0-.375.269L7.391,15.331,6.132,13.475a.672.672,0,0,0-.375-.269,6.049,6.049,0,1,1,3.268,0Z" fill="#fff"/>
</svg>
