<svg xmlns="http://www.w3.org/2000/svg" width="16.158" height="17.2" viewBox="0 0 16.158 17.2">
	<path id="Path_12462" data-name="Path 12462" d="M69.153,80.224a.782.782,0,1,0-1.106,1.106l2.314,2.314H60.782a.782.782,0,1,0,0,1.564h9.579l-2.314,2.314a.782.782,0,1,0,1.106,1.105L72.8,84.978a.782.782,0,0,0,0-1.106Z" transform="translate(-56.873 -75.826)" fill="#fff" />
	<path id="Path_12463" data-name="Path 12463" d="M7.558,17.2a.782.782,0,1,0,0-1.564H1.564V1.564H7.558A.782.782,0,0,0,7.558,0H.782A.782.782,0,0,0,0,.782V16.418a.782.782,0,0,0,.782.782Z" fill="#fff" />
</svg>
