<svg xmlns="http://www.w3.org/2000/svg" width="62.337" height="60.358" viewBox="0 0 62.337 60.358">
	<g id="Group_4258" data-name="Group 4258" transform="translate(-135.11 -369)">
		<path id="Path_12522" data-name="Path 12522" d="M42.546,136.286a.986.986,0,0,1-.81-.422c-.365-.521-3.583-5.158-4.107-7.253a38.562,38.562,0,0,0-1.5-4.255,19.836,19.836,0,0,0-4.665,3.619c-1.73,2.308-3.557,2.375-3.759,2.375a.991.991,0,0,1-.773-.371,11.325,11.325,0,0,1-2.2-6.555c0-1.419-5.27-3.071-10.39-3.818v2.012l3.769,5.182a.989.989,0,0,1-.678,1.564l-7.916.989a1,1,0,0,1-.822-.282,18.328,18.328,0,0,1-4.21-6.86c-.842-2.951-1.327-5.516-1.467-6.3L.2,112.143a.989.989,0,0,1,.4-1.5c3.65-1.564,4.156-1.564,4.348-1.564a2.2,2.2,0,0,1,1.7,1.226c1.847.876,4.774,1.85,5.771,1.352.35-.6-.772-3.99-2.41-7.06a.989.989,0,0,1,.56-1.4l2.969-.989c.169-.057.2-.123.23-.21.369-1.131-1.394-4.364-2.7-6.193a.988.988,0,0,1,.362-1.46l3.958-1.979a.919.919,0,0,0,.343-.243,2.165,2.165,0,0,0-.494-.553.989.989,0,0,1,.431-1.768l5.937-.989a1.062,1.062,0,0,1,.271-.008l2.71.3a.989.989,0,1,1-.218,1.967l-2.574-.286-4.213.7a2,2,0,0,1,.11.851,2.239,2.239,0,0,1-1.418,1.8L13.325,95.6c1.107,1.717,2.969,5.024,2.326,7a2.241,2.241,0,0,1-1.486,1.474l-1.879.626c.948,1.939,2.576,5.7,1.984,7.552a1.9,1.9,0,0,1-.965,1.169c-2.3,1.149-6.912-1.034-7.812-1.485a.993.993,0,0,1-.443-.442,2.48,2.48,0,0,0-.258-.4c-.385.125-1.292.478-2.252.872l2.207,2.943a.983.983,0,0,1,.185.431c.005.029.5,2.958,1.46,6.323a15.865,15.865,0,0,0,3.383,5.659l5.752-.719-2.972-4.087a1,1,0,0,1-.189-.581v-3.463a.988.988,0,0,1,.332-.74.977.977,0,0,1,.775-.243c3.106.373,13.24,1.9,13.24,5.93a9.353,9.353,0,0,0,1.427,4.828,4.22,4.22,0,0,0,1.74-1.463c1.593-2.124,6.059-4.619,6.248-4.724a.989.989,0,0,1,1.389.476,49.27,49.27,0,0,1,2.029,5.592,19.243,19.243,0,0,0,2.086,3.989,3.88,3.88,0,0,1,2.578-2.708l1.8-.6-2.245-3.742c-.679-.574-1.6-1.578-1.251-2.582.242-.692.92-1.042,2.012-1.042a4.759,4.759,0,0,0,3.463-2.121V112.54a.961.961,0,0,1,.014-.162,65.393,65.393,0,0,1,1.508-6.541,8.781,8.781,0,0,0-.429-5.72.991.991,0,0,1,.647-1.4c.183-.048,4.528-1.1,6.876,1.249a6.231,6.231,0,0,0,1.9,1.328l-.592-2.367a.984.984,0,0,1,.121-.764l1.846-2.954-8.62-3.449H42.547l-2.967-.089a.991.991,0,0,1-.96-1.019,1.016,1.016,0,0,1,1.019-.96l2.938.089h8.875a1.007,1.007,0,0,1,.367.07l9.895,3.958a.99.99,0,0,1,.472,1.444l-2.251,3.6.887,3.55a.989.989,0,0,1-.96,1.229,7.118,7.118,0,0,1-4.657-2.269c-.939-.94-2.659-1.017-3.889-.906a10.589,10.589,0,0,1,.1,5.921c-.876,3.063-1.362,5.757-1.447,6.244v6.842c0,1.184-2.413,3.73-5.086,3.943.089.086.18.166.262.231a1,1,0,0,1,.23.264l2.969,4.947a.99.99,0,0,1-.535,1.447l-2.969.99c-2.056.686-1.362,3.647-1.332,3.772a.991.991,0,0,1-.961,1.225Zm0,0" transform="translate(135.11 293.071)" />
		<path id="Path_12523" data-name="Path 12523" d="M164.775,25.765a.991.991,0,0,1-.755-.349c-.914-1.08-8.923-10.684-8.923-15.7a9.678,9.678,0,0,1,19.355,0c0,5.016-8.009,14.62-8.923,15.7A.991.991,0,0,1,164.775,25.765Zm0-23.748a7.707,7.707,0,0,0-7.7,7.7c0,3.294,5.008,10.174,7.7,13.505,2.691-3.331,7.7-10.211,7.7-13.505A7.707,7.707,0,0,0,164.775,2.018Zm0,12.067a4.947,4.947,0,1,1,4.947-4.947A4.953,4.953,0,0,1,164.775,14.085Zm0-7.916a2.969,2.969,0,1,0,2.969,2.969A2.972,2.972,0,0,0,164.775,6.169Zm0,0" transform="translate(2.492 368.961)" />
	</g>
</svg>
