<svg  width="100%" height="100%" viewBox="0 0 60 60" xmlns="http://www.w3.org/2000/svg">
	<g id="Page-1">
		<g id="011---No-Email">
			<path id="Shape" d="m59.843 20.718c-.195933-.6339061-.5947156-1.1858774-1.135-1.571l-8.708-6v-11.147c0-1.1045695-.8954305-2-2-2h-36c-1.1045695 0-2 .8954305-2 2v11.145l-8.715 6.007c-.53831327.3845025-.93506943.9355332-1.129 1.568-.01800629.0404083-.03369833.0818085-.047.124-.070105.2527885-.10675088.5136802-.109.776v35.38c.00200623.6389002.20957149 1.2601935.592 1.772.005.007.006.016.011.022s.02.015.028.025c.56240338.7414197 1.4384128 1.1781302 2.369 1.181h54c.9331096-.0029616 1.8112631-.4416685 2.374-1.186.006-.008.017-.011.023-.02s.006-.015.011-.022c.3824285-.5118065.5899938-1.1330998.592-1.772v-35.38c-.0024323-.2623062-.0390749-.5231741-.109-.776-.0130271-.0430731-.0290667-.0851769-.048-.126zm-57.843 2.295 22.054 16.735-22.054 16.731zm27.4 15.192c.3549187-.2773195.8530813-.2773195 1.208 0l26.092 19.795h-53.395zm6.549 1.543 22.051-16.735v33.466zm21.619-18.96c.01.007.017.017.027.025l-7.595 5.761v-11zm-9.568-18.788v26.091l-13.708 10.4-2.475-1.877c-1.0731312-.8161117-2.5588688-.8161117-3.632 0l-2.477 1.879-13.708-10.402v-26.091zm-38 13.574v11l-7.593-5.762.02-.019z" />
			<path id="Shape" d="m30 34c8.2842712 0 15-6.7157288 15-15s-6.7157288-15-15-15-15 6.7157288-15 15c.0093685 8.2803876 6.7196124 14.9906315 15 15zm0-28c7.1797017 0 13 5.8202983 13 13s-5.8202983 13-13 13-13-5.8202983-13-13c.008266-7.1762751 5.8237249-12.99173398 13-13z" />
			<path id="Shape" d="m24.143 27.465c.1059438.6297944.5097394 1.1695544 1.084 1.449 1.4909611.7170688 3.1245674 1.0882963 4.779 1.086.4398177-.0001382.8792454-.0261833 1.316-.078 3.5240872-.42529 6.6263653-2.5250336 8.3308775-5.6386648 1.7045123-3.1136313 1.8017499-6.8584407.2611225-10.0563352-.2794456-.5742606-.8192056-.9780562-1.449-1.084-.6434365-.1107351-1.3005553.0981108-1.762.56l-12 12c-.4610037.4619832-.6697012 1.118635-.56 1.762zm13.969-12.365c1.6537774 3.4420538.9553216 7.5530314-1.7424545 10.2557556-2.6977762 2.7027241-6.807467 3.4087117-10.2525455 1.7612444z" />
			<path id="Shape" d="m21.872 24.886c.5348698.0017334 1.048527-.2090531 1.428-.586l12-12c.4610037-.4619832.6697012-1.118635.56-1.762-.1059438-.62979439-.5097394-1.16955438-1.084-1.449-4.2124672-2.03334093-9.2501282-1.18029491-12.558322 2.1265477-3.3081939 3.3068427-4.1632979 8.3441548-2.131678 12.5574523.2795116.574627.8197655.9785134 1.45 1.084.1109838.0191092.2233833.0288104.336.029zm-.809-6.975c.5091921-4.1049875 3.7430125-7.3388079 7.848-7.848.3594843-.0418531.7210876-.0628882 1.083-.063 1.3467415-.00362111 2.6768835.2972077 3.891.88l-11.997 12.02c-.7432985-1.5508785-1.0294635-3.281396-.825-4.989z" />
			<path id="Shape" d="m5 30c-.55228475 0-1 .4477153-1 1v18c0 .5522847.44771525 1 1 1s1-.4477153 1-1v-18c0-.5522847-.44771525-1-1-1z" />
			<path id="Shape" d="m55 30c-.5522847 0-1 .4477153-1 1v18c0 .5522847.4477153 1 1 1s1-.4477153 1-1v-18c0-.5522847-.4477153-1-1-1z" />
			<path id="Shape" d="m45 54h-30c-.5522847 0-1 .4477153-1 1s.4477153 1 1 1h30c.5522847 0 1-.4477153 1-1s-.4477153-1-1-1z" />
		</g>
	</g>
</svg>
