<svg xmlns="http://www.w3.org/2000/svg" height="100%" width="100%" viewBox="0 0 2141.79 764.77"><defs><style>.cls-1{fill:#307f8c;}.cls-2{fill:#f0cc71;}.cls-3{fill:#dc7431;}.cls-4{fill:#cd503c;}.cls-5{fill:#619061;}</style></defs><g id="Layer_2" data-name="Layer 2"><g id="Layer_1-2" data-name="Layer 1"><circle class="cls-1" cx="441.47" cy="148.05" r="148.05"/><circle class="cls-2" cx="130.08" cy="555.59" r="107.17"/><circle class="cls-3" cx="363.87" cy="674.68" r="90.1"/><circle class="cls-4" cx="561.98" cy="579.5" r="66.98"/><circle class="cls-5" cx="126.16" cy="257.35" r="126.16"/><g id="Layer_2-2" data-name="Layer 2"><g id="Layer_1-2-2" data-name="Layer 1-2"><path d="M1087.39,433.36c0,83.19-49.58,152.06-170.79,152.06-124.66,0-168-73.28-168-150.41,0-71.07,50.27-146,172.86-146C1035.79,289,1087.39,356.22,1087.39,433.36Zm-243.79-.55c0,61.15,26.17,93.66,76.44,93.66,46.83,0,73-32.51,73-92.56,0-56.75-24.79-86-75.75-86-47.5,0-73.69,33.05-73.69,84.84Z"/><path d="M1126.65,391.48c0-46.84,0-77.14-1.38-97h90.91c2.07,12.67,2.76,30.85,2.76,50.13,11.7-23.69,43.38-54.54,108.12-54.54v76c-73.69-1.1-106.75,18.73-106.75,84.3V579.9h-93.66Z"/><path d="M1353.92,179.36h93.66V325.91c15.15-18.18,42.7-36.91,98.48-36.91,91.6,0,137.74,63.36,137.74,138.84,0,92-51,157-150.82,157-51.65,0-75.07-17.08-86.78-32.51-.69,9.37-1.38,18.18-2.75,27.55h-90.91c.69-19.28,1.38-57.85,1.38-87.05Zm161.87,171.35c-55.78,0-73.69,29.75-73.69,84.84,0,58.4,19.28,89.26,73.69,89.26,50.27,0,73.69-36.37,73.69-93.67C1589.45,384.36,1567.41,350.71,1515.79,350.71Z"/><path d="M1723.79,248.23V179.36h93.66v68.87Zm0,46.28h93.66V579.9h-93.66Z"/><path d="M1937.93,492.3c4.13,24.24,25.48,38.57,61.3,38.57,33,0,50.27-10.47,50.27-28.65,0-18.73-20-25.9-74.38-38-95-21.49-117.08-47.93-117.08-88.7,0-35.81,28.24-86.5,135.68-86.5,94.35,0,134.29,39.12,138.42,87.05h-90.9c-2.76-15.43-13.78-32.51-51.66-32.51-25.48,0-39.94,8.27-39.94,24.8,0,15.42,13.77,22.59,65.43,33.05,97.1,20.39,126.72,48.49,126.72,93.66,0,59-61.3,89.81-145.32,89.81-87.46,0-142.56-30.85-150.13-92.56Z"/></g></g></g></g></svg>