<svg xmlns="http://www.w3.org/2000/svg" width="17.2" height="17.167" viewBox="0 0 17.2 17.167">
	<path id="Path_12452" data-name="Path 12452" d="M16.861.837C16.453.428,15.747.388,14.819.721a4.945,4.945,0,0,0-1.628.932L10.619,4.225,2.154,2.9,0,5.049,7.038,7.806l-2.26,2.26-3.207.188L.033,11.791l3.481,1.68-.975.975.714.714.974-.974,1.681,3.479,1.538-1.538.188-3.207,2.3-2.3,2.756,7.037L14.84,15.5,13.511,7.041l2.534-2.534a4.944,4.944,0,0,0,.932-1.628C17.31,1.952,17.27,1.245,16.861.837ZM1.8,4.672l.7-.7L9.736,5.107,7.817,7.027Zm11.96,10.482-.7.7L10.709,9.843l1.919-1.919ZM16.028,2.539a4.1,4.1,0,0,1-.7,1.255L6.648,12.478,6.46,15.685l-.262.262L4.982,13.43l.877-.877-.714-.714-.876.876L1.752,11.5l.262-.262,3.207-.188L13.9,2.367a4.1,4.1,0,0,1,1.255-.7c.611-.219.935-.174.989-.12S16.247,1.928,16.028,2.539Z" transform="translate(0 -0.498)"  />
</svg>
