<svg xmlns="http://www.w3.org/2000/svg" width="57.722" height="51.205" viewBox="0 0 57.722 51.205">
	<path d="M62.464,40H11.259A3.262,3.262,0,0,0,8,43.259V79.568a3.262,3.262,0,0,0,3.259,3.259H29.983L28.742,86.55H26.62a.931.931,0,0,0-.931.931v1.862H19.172a.931.931,0,1,0,0,1.862H54.55a.931.931,0,1,0,0-1.862H48.033V87.481a.931.931,0,0,0-.931-.931H44.981l-1.242-3.724H62.464a3.262,3.262,0,0,0,3.259-3.259V43.259A3.262,3.262,0,0,0,62.464,40ZM46.171,88.412v.931H27.551v-.931ZM30.7,86.55l1.242-3.724h9.829l1.242,3.724ZM63.86,79.568a1.4,1.4,0,0,1-1.4,1.4H11.259a1.4,1.4,0,0,1-1.4-1.4v-1.4h54Zm0-3.259h-54V43.259a1.4,1.4,0,0,1,1.4-1.4H62.464a1.4,1.4,0,0,1,1.4,1.4Z" transform="translate(-8 -40)" />
	<path d="M219.172,125.586a5.586,5.586,0,1,0-5.586,5.586A5.586,5.586,0,0,0,219.172,125.586Zm-5.586,3.724a3.724,3.724,0,1,1,3.724-3.724A3.724,3.724,0,0,1,213.586,129.31Z" transform="translate(-184.725 -110.69)" />
	<path d="M140.072,111.732a13.942,13.942,0,0,0,19.786,0,.941.941,0,0,0,.154-.157,13.965,13.965,0,1,0-20.093,0A.941.941,0,0,0,140.072,111.732Zm1.514-1.122V108.4a3.728,3.728,0,0,1,3.724-3.724h9.31a3.728,3.728,0,0,1,3.724,3.724v2.208A12.081,12.081,0,0,1,141.586,110.61Zm8.379-20.828A12.1,12.1,0,0,1,160.2,108.331a5.591,5.591,0,0,0-5.584-5.515h-9.31a5.592,5.592,0,0,0-5.584,5.515,12.1,12.1,0,0,1,10.239-18.549Z" transform="translate(-121.104 -82.334)" />
	<path d="M32.931,151.448h9.31a.931.931,0,0,0,.931-.931v-5.586a.931.931,0,0,0-.931-.931h-9.31a.931.931,0,0,0-.931.931v5.586A.931.931,0,0,0,32.931,151.448Zm.931-5.586H41.31v3.724H33.862Z" transform="translate(-29.207 -131.897)" />
	<path d="M32.931,217.862h9.31a.931.931,0,0,0,0-1.862h-9.31a.931.931,0,1,0,0,1.862Z" transform="translate(-29.207 -195.518)" />
	<path d="M32.931,241.862h9.31a.931.931,0,0,0,0-1.862h-9.31a.931.931,0,1,0,0,1.862Z" transform="translate(-29.207 -216.725)" />
	<path d="M32.931,265.862h3.724a.931.931,0,1,0,0-1.862H32.931a.931.931,0,1,0,0,1.862Z" transform="translate(-29.207 -237.932)" />
	<path d="M89.862,264h-.931a.931.931,0,1,0,0,1.862h.931a.931.931,0,1,0,0-1.862Z" transform="translate(-78.69 -237.932)" />
	<path d="M384.931,151.448h9.31a.931.931,0,0,0,.931-.931v-5.586a.931.931,0,0,0-.931-.931h-9.31a.931.931,0,0,0-.931.931v5.586A.931.931,0,0,0,384.931,151.448Zm.931-5.586h7.448v3.724h-7.448Z" transform="translate(-340.243 -131.897)" />
	<path d="M384.931,217.862h9.31a.931.931,0,0,0,0-1.862h-9.31a.931.931,0,0,0,0,1.862Z" transform="translate(-340.243 -195.518)" />
	<path d="M384.931,241.862h9.31a.931.931,0,0,0,0-1.862h-9.31a.931.931,0,0,0,0,1.862Z" transform="translate(-340.243 -216.725)" />
	<path d="M384.931,265.862h3.724a.931.931,0,0,0,0-1.862h-3.724a.931.931,0,0,0,0,1.862Z" transform="translate(-340.243 -237.932)" />
	<path d="M441.862,264h-.931a.931.931,0,1,0,0,1.862h.931a.931.931,0,1,0,0-1.862Z" transform="translate(-389.726 -237.932)" />
</svg>
