<svg viewBox="0 0 512 512" width="100%" height="100%" xmlns="http://www.w3.org/2000/svg"><path d="m144 136h-16v-16h16zm-32 0h-16v-16h16zm-32 0h-16v-16h16zm-32 0h-16v-16h16zm0 0"/><path d="m160 120h48v16h-48zm0 0"/><path d="m144 200h-16v-16h16zm-32 0h-16v-16h16zm-32 0h-16v-16h16zm-32 0h-16v-16h16zm0 0"/><path d="m160 184h48v16h-48zm0 0"/><path d="m144 264h-16v-16h16zm-32 0h-16v-16h16zm-32 0h-16v-16h16zm-32 0h-16v-16h16zm0 0"/><path d="m160 248h48v16h-48zm0 0"/><path d="m144 328h-16v-16h16zm-32 0h-16v-16h16zm-32 0h-16v-16h16zm-32 0h-16v-16h16zm0 0"/><path d="m160 312h48v16h-48zm0 0"/><path d="m144 392h-16v-16h16zm-32 0h-16v-16h16zm-32 0h-16v-16h16zm-32 0h-16v-16h16zm0 0"/><path d="m160 376h48v16h-48zm0 0"/><path d="m416 136h-16v-16h16zm-32 0h-16v-16h16zm-32 0h-16v-16h16zm-32 0h-16v-16h16zm0 0"/><path d="m432 120h48v16h-48zm0 0"/><path d="m416 200h-16v-16h16zm-32 0h-16v-16h16zm-32 0h-16v-16h16zm-32 0h-16v-16h16zm0 0"/><path d="m432 184h48v16h-48zm0 0"/><path d="m416 264h-16v-16h16zm-32 0h-16v-16h16zm-32 0h-16v-16h16zm-32 0h-16v-16h16zm0 0"/><path d="m432 248h48v16h-48zm0 0"/><path d="m416 328h-16v-16h16zm-32 0h-16v-16h16zm-32 0h-16v-16h16zm-32 0h-16v-16h16zm0 0"/><path d="m432 312h48v16h-48zm0 0"/><path d="m416 392h-16v-16h16zm-32 0h-16v-16h16zm-32 0h-16v-16h16zm-32 0h-16v-16h16zm0 0"/><path d="m432 376h48v16h-48zm0 0"/><path d="m0 512h240v-512h-240zm16-464h16v-16h-16v-16h208v16h-16v16h16v40h-208zm0 56h208v48h-208zm0 64h208v48h-208zm0 64h208v48h-208zm0 64h208v48h-208zm0 64h208v48h-208zm0 120h16v-16h-16v-40h208v40h-16v16h16v16h-208zm0 0"/><path d="m48 32h144v16h-144zm0 0"/><path d="m48 464h144v16h-144zm0 0"/><path d="m272 0v512h240v-512zm224 464h-16v16h16v16h-208v-16h16v-16h-16v-40h208zm0-56h-208v-48h208zm0-64h-208v-48h208zm0-64h-208v-48h208zm0-64h-208v-48h208zm0-64h-208v-48h208zm0-120h-16v16h16v40h-208v-40h16v-16h-16v-16h208zm0 0"/><path d="m320 32h144v16h-144zm0 0"/><path d="m320 464h144v16h-144zm0 0"/></svg>