<svg xmlns="http://www.w3.org/2000/svg" width="17.2" height="17.2" viewBox="0 0 17.2 17.2">
	<path id="Path_12457" data-name="Path 12457" d="M12.428,9.423l-1.146,1.146L10.134,9.422l2.755-2.753a3.393,3.393,0,0,0,4.077-4.506l-.28-.718-1.8,1.8-.728-.2-.195-.728,1.8-1.8L15.046.242A3.393,3.393,0,0,0,10.54,4.321L7.785,7.076l-3.7-3.7L5.069,2.4,2.03,0,0,2.03,2.4,5.07l.981-.981,3.7,3.7-2.43,2.43a3.572,3.572,0,1,0,2.347,2.347l2.431-2.431,1.148,1.148L9.423,12.428l4.149,4.15a2.125,2.125,0,0,0,3.005-3.005ZM1.344,2.11l.766-.766L3.557,2.486,2.486,3.557ZM11.7,4.58l-.12-.307a2.385,2.385,0,0,1,2.261-3.259L12.836,2.023l.5,1.851,1.852.5,1.008-1.008a2.385,2.385,0,0,1-3.259,2.26l-.307-.12L9.421,8.71,8.5,7.786ZM5.812,12.318l.132.312a2.572,2.572,0,1,1-1.366-1.366l.312.131,2.9-2.9.923.923Zm6.615-1.471.923.923-1.579,1.579-.923-.923Zm3.438,5.018a1.118,1.118,0,0,1-1.579,0l-1.8-1.8,1.579-1.579,1.8,1.8a1.119,1.119,0,0,1,0,1.579Z" fill="#fff" />
	<path id="Path_12458" data-name="Path 12458" d="M58.833,356.26a1.66,1.66,0,1,0,1.174.486A1.659,1.659,0,0,0,58.833,356.26Zm.462,2.121a.648.648,0,1,1,.193-.461A.652.652,0,0,1,59.295,358.381Z" transform="translate(-55.254 -344.292)" fill="#fff" />
</svg>
