<svg xmlns="http://www.w3.org/2000/svg" width="17.2" height="17.2" viewBox="0 0 17.2 17.2">
	<path id="Path_12564" data-name="Path 12564" d="M14.681,2.519A8.6,8.6,0,0,0,2.519,14.681,8.6,8.6,0,0,0,14.681,2.519Zm1.211,8.2H10.985l3.778-6.544a7.584,7.584,0,0,1,1.13,6.544Zm-8.513,0L6.158,8.6,7.379,6.486H9.821L11.042,8.6,9.821,10.715Zm6.7-7.369L11.624,7.592,7.844,1.045q.373-.037.756-.038A7.571,7.571,0,0,1,14.075,3.346ZM6.785,1.228l2.454,4.25H1.68a7.624,7.624,0,0,1,5.105-4.25ZM1.308,6.486H6.216L2.438,13.029a7.584,7.584,0,0,1-1.13-6.544Zm1.817,7.369L5.577,9.608l3.78,6.547q-.373.037-.756.038a7.571,7.571,0,0,1-5.475-2.338Zm7.29,2.118-2.454-4.25H15.52A7.624,7.624,0,0,1,10.415,15.973Z" transform="translate(0)"  />
</svg>
