<svg xmlns="http://www.w3.org/2000/svg" width="66.121" height="48.54" viewBox="0 0 66.121 48.54">
	<g transform="translate(50.721 20.712)">
		<path d="M400.366,229.587c-2.25-1.125-6.468-1.138-6.647-1.138a.969.969,0,1,0,0,1.937c1.089,0,4.249.168,5.781.933a.969.969,0,0,0,.866-1.733Z" transform="translate(-392.751 -228.449)" />
	</g>
	<g transform="translate(0 0)">
		<path d="M63.165,103.706l-4-1.143a.406.406,0,0,1-.293-.389v-1.335a7.281,7.281,0,0,0,.926-.759,7.125,7.125,0,0,0,2.181-5.155V93.082l.387-.773a6.179,6.179,0,0,0,.649-2.749V84.569a.969.969,0,0,0-.969-.969H52.725a6.154,6.154,0,0,0-6.147,6.147V89.8a5.137,5.137,0,0,0,.54,2.286l.5.992v1.582a7.557,7.557,0,0,0,3.107,6.11v1.4c0,.216,0,.305-.8.534l-1.952.558-5.646-2.053a.967.967,0,0,0-.264-.742l-1.8-1.9V95.393c.191-.157.379-.319.561-.489A11.368,11.368,0,0,0,44.4,86.64V84.1a11.2,11.2,0,0,0,1.036-4.708V69.035a.969.969,0,0,0-.969-.969h-14.5a9.264,9.264,0,0,0-9.253,9.253v2.071A11.2,11.2,0,0,0,21.748,84.1v2.187a11.835,11.835,0,0,0,4.142,9.033v3.257l-1.8,1.9a.967.967,0,0,0-.264.742l-5.959,2.167a5.079,5.079,0,0,0-1.2.627l-.936-.468a7.4,7.4,0,0,0,3.71-3,.968.968,0,0,0,0-.866c-.7-1.4-.783-3.956-.851-6.013-.023-.685-.044-1.332-.085-1.908A8.425,8.425,0,0,0,10.289,83.6a8.425,8.425,0,0,0-8.215,8.149c-.041.576-.062,1.223-.085,1.908-.068,2.057-.153,4.616-.851,6.013a.968.968,0,0,0,0,.866,7.4,7.4,0,0,0,3.714,3l-2.6,1.3A4.054,4.054,0,0,0,0,108.481v7.156a.969.969,0,1,0,1.937,0v-7.156a2.127,2.127,0,0,1,1.182-1.913l3.237-1.618,1.126,1.07a4.073,4.073,0,0,0,5.615,0l1.126-1.07,1.055.528a5.1,5.1,0,0,0-.779,2.7v7.455a.969.969,0,0,0,1.937,0v-7.455a3.184,3.184,0,0,1,2.089-2.983l6.283-2.285,2.616,3.923a2,2,0,0,0,1.47.883q.1.01.2.01a2,2,0,0,0,1.415-.587l1.6-1.6v10.089a.969.969,0,1,0,1.937,0V105.548l1.6,1.6a2,2,0,0,0,1.415.587q.1,0,.2-.01a2,2,0,0,0,1.47-.883l2.616-3.923L47.62,105.2a3.184,3.184,0,0,1,2.089,2.983v7.455a.969.969,0,1,0,1.937,0v-7.455a5.12,5.12,0,0,0-1.433-3.544l.239-.068a5.311,5.311,0,0,0,.9-.325l2.473,2.473v8.919a.969.969,0,0,0,1.937,0v-8.919l2.456-2.456a2.3,2.3,0,0,0,.412.164l4,1.143a2.147,2.147,0,0,1,1.551,2.056v8.012a.969.969,0,0,0,1.937,0v-8.012A4.093,4.093,0,0,0,63.165,103.706ZM6.214,102a6.963,6.963,0,0,1-3.108-2,10.676,10.676,0,0,0,.552-2.319,7.223,7.223,0,0,0,2.556,3.154Zm5.549,2.621a2.137,2.137,0,0,1-2.946,0l-.9-.856a2,2,0,0,0,.236-.946v-1.032a7.2,7.2,0,0,0,4.277,0v1.032a2,2,0,0,0,.236.946ZM10.29,100.17a5.251,5.251,0,0,1-5.245-5.245.963.963,0,0,0-1.128-.954c0-.083.006-.167.008-.249.022-.666.042-1.3.081-1.835a7.191,7.191,0,0,1,1.958-4.516,6.018,6.018,0,0,1,8.65,0,7.191,7.191,0,0,1,1.958,4.516c.038.539.059,1.168.081,1.834l.006.173a8.7,8.7,0,0,0-4.784-3.5,12.156,12.156,0,0,0-3.684-.584.969.969,0,0,0-.67.3L5.773,91.923a.969.969,0,0,0,1.394,1.345l1.454-1.508c1.252.061,5.281.53,6.848,3.98A5.232,5.232,0,0,1,10.29,100.17ZM14.364,102v-1.155a7.164,7.164,0,0,0,2.557-3.157A10.662,10.662,0,0,0,17.473,100,7,7,0,0,1,14.364,102Zm9.321-15.713v-2.4a.969.969,0,0,0-.1-.421,9.291,9.291,0,0,1-.939-4.07V77.32A7.325,7.325,0,0,1,29.966,70H43.5v9.388a9.291,9.291,0,0,1-.939,4.07.969.969,0,0,0-.1.421V86.64a9.3,9.3,0,0,1-2.969,6.851,9.637,9.637,0,0,1-.744.63l-.017.012a9.313,9.313,0,0,1-6.285,1.875A9.593,9.593,0,0,1,23.685,86.285Zm5.454,19.489a.061.061,0,0,1-.054.019.062.062,0,0,1-.049-.03l-3.012-4.518.969-1.019,4.57,3.124Zm3.934-3.738-5.245-3.585V96.643a10.905,10.905,0,0,0,4.493,1.3q.383.025.762.025a11.219,11.219,0,0,0,5.235-1.283v1.769Zm4.037,3.728a.062.062,0,0,1-.049.03.06.06,0,0,1-.054-.019l-2.424-2.424,4.57-3.124.969,1.019Zm17.686-.817-2.2-2.2a2.657,2.657,0,0,0,.06-.575v-.409a6.791,6.791,0,0,0,1.918.339c.075,0,.149,0,.223,0a7.2,7.2,0,0,0,2.135-.323v.39a2.315,2.315,0,0,0,.07.564Zm3.653-6.257a5.206,5.206,0,0,1-3.814,1.478,5.422,5.422,0,0,1-5.083-5.5V92.854a.968.968,0,0,0-.1-.433l-.6-1.2a3.191,3.191,0,0,1-.335-1.419v-.058a4.214,4.214,0,0,1,4.21-4.21h8.352V89.56a4.232,4.232,0,0,1-.444,1.883l-.489.978a.968.968,0,0,0-.1.433v2.071A5.2,5.2,0,0,1,58.449,98.689Z" transform="translate(0 -68.066)" />
	</g>
	<g transform="translate(60.041 40.389)">
		<path d="M465.892,380.814a.969.969,0,0,0-.969.969V388a.969.969,0,1,0,1.937,0v-6.214A.969.969,0,0,0,465.892,380.814Z" transform="translate(-464.923 -380.814)" />
	</g>
	<g transform="translate(4.142 41.669)">
		<path d="M33.046,390.728a.969.969,0,0,0-.969.969v4.933a.969.969,0,1,0,1.937,0V391.7A.969.969,0,0,0,33.046,390.728Z" transform="translate(-32.077 -390.728)" />
	</g>
	<g transform="translate(24.855 8.799)">
		<path d="M208.612,139.079c-3.663-3.663-11.328-2.963-14.453-2.492a1.988,1.988,0,0,0-1.7,1.981V140.8a.969.969,0,0,0,1.937,0v-2.231a.064.064,0,0,1,.051-.065,30.6,30.6,0,0,1,6.292-.307c3.02.2,5.208.959,6.5,2.254a.969.969,0,0,0,1.37-1.37Z" transform="translate(-192.46 -136.203)" />
	</g>
	<g transform="translate(20.712 42.46)">
		<path d="M161.353,396.853a.969.969,0,0,0-.969.969v4.142a.969.969,0,0,0,1.937,0v-4.142A.969.969,0,0,0,161.353,396.853Z" transform="translate(-160.384 -396.853)" />
	</g>
	<g transform="translate(43.496 42.46)">
		<path d="M337.775,396.853a.969.969,0,0,0-.969.969v4.142a.969.969,0,0,0,1.937,0v-4.142A.969.969,0,0,0,337.775,396.853Z" transform="translate(-336.806 -396.853)" />
	</g>
</svg>
